EncodeSansCondensed-Black.ufo
<glyph name="quotedbl" format="2">
  <advance width="898.0"/>
  <unicode hex="0022"/>
  <outline>
    <contour>
      <point x="104.0" y="812.0" type="line"/>
      <point x="344.0" y="812.0" type="line"/>
      <point x="418.0" y="1616.0" type="line"/>
      <point x="30.0" y="1616.0" type="line"/>
    </contour>
    <contour>
      <point x="554.0" y="812.0" type="line"/>
      <point x="794.0" y="812.0" type="line"/>
      <point x="868.0" y="1616.0" type="line"/>
      <point x="480.0" y="1616.0" type="line"/>
    </contour>
  </outline>
</glyph>
<glyph name="numbersign" format="2">
  <advance width="1200.0"/>
  <unicode hex="0023"/>
  <outline>
    <contour>
      <point x="592.0" y="0.0" type="line"/>
      <point x="880.0" y="0.0" type="line"/>
      <point x="1004.0" y="1480.0" type="line"/>
      <point x="716.0" y="1480.0" type="line"/>
    </contour>
    <contour>
      <point x="90.0" y="380.0" type="line"/>
      <point x="1110.0" y="380.0" type="line"/>
      <point x="1110.0" y="666.0" type="line"/>
      <point x="90.0" y="666.0" type="line"/>
    </contour>
    <contour>
      <point x="196.0" y="0.0" type="line"/>
      <point x="484.0" y="0.0" type="line"/>
      <point x="608.0" y="1480.0" type="line"/>
      <point x="320.0" y="1480.0" type="line"/>
    </contour>
    <contour>
      <point x="90.0" y="814.0" type="line"/>
      <point x="1110.0" y="814.0" type="line"/>
      <point x="1110.0" y="1100.0" type="line"/>
      <point x="90.0" y="1100.0" type="line"/>
    </contour>
  </outline>
</glyph>
<glyph name="percent" format="2">
  <advance width="2000.0"/>
  <unicode hex="0025"/>
  <note>
450
</note>
  <outline>
    <contour>
      <point x="536.0" y="0.0" type="line"/>
      <point x="840.0" y="0.0" type="line"/>
      <point x="1464.0" y="1480.0" type="line"/>
      <point x="1160.0" y="1480.0" type="line"/>
    </contour>
    <contour>
      <point x="450.0" y="566.0" type="curve" smooth="yes"/>
      <point x="690.0" y="566.0"/>
      <point x="850.0" y="716.0"/>
      <point x="850.0" y="1034.0" type="curve" smooth="yes"/>
      <point x="850.0" y="1352.0"/>
      <point x="690.0" y="1500.0"/>
      <point x="450.0" y="1500.0" type="curve" smooth="yes"/>
      <point x="210.0" y="1500.0"/>
      <point x="50.0" y="1352.0"/>
      <point x="50.0" y="1034.0" type="curve" smooth="yes"/>
      <point x="50.0" y="716.0"/>
      <point x="210.0" y="566.0"/>
    </contour>
    <contour>
      <point x="450.0" y="810.0" type="curve" smooth="yes"/>
      <point x="396.0" y="810.0"/>
      <point x="358.0" y="856.0"/>
      <point x="358.0" y="1034.0" type="curve" smooth="yes"/>
      <point x="358.0" y="1212.0"/>
      <point x="396.0" y="1256.0"/>
      <point x="450.0" y="1256.0" type="curve" smooth="yes"/>
      <point x="504.0" y="1256.0"/>
      <point x="542.0" y="1212.0"/>
      <point x="542.0" y="1034.0" type="curve" smooth="yes"/>
      <point x="542.0" y="856.0"/>
      <point x="504.0" y="810.0"/>
    </contour>
    <contour>
      <point x="1550.0" y="-18.0" type="curve" smooth="yes"/>
      <point x="1790.0" y="-18.0"/>
      <point x="1950.0" y="132.0"/>
      <point x="1950.0" y="450.0" type="curve" smooth="yes"/>
      <point x="1950.0" y="768.0"/>
      <point x="1790.0" y="916.0"/>
      <point x="1550.0" y="916.0" type="curve" smooth="yes"/>
      <point x="1310.0" y="916.0"/>
      <point x="1150.0" y="768.0"/>
      <point x="1150.0" y="450.0" type="curve" smooth="yes"/>
      <point x="1150.0" y="132.0"/>
      <point x="1310.0" y="-18.0"/>
    </contour>
    <contour>
      <point x="1550.0" y="226.0" type="curve" smooth="yes"/>
      <point x="1496.0" y="226.0"/>
      <point x="1458.0" y="272.0"/>
      <point x="1458.0" y="450.0" type="curve" smooth="yes"/>
      <point x="1458.0" y="628.0"/>
      <point x="1496.0" y="672.0"/>
      <point x="1550.0" y="672.0" type="curve" smooth="yes"/>
      <point x="1604.0" y="672.0"/>
      <point x="1642.0" y="628.0"/>
      <point x="1642.0" y="450.0" type="curve" smooth="yes"/>
      <point x="1642.0" y="272.0"/>
      <point x="1604.0" y="226.0"/>
    </contour>
  </outline>
</glyph>
<glyph name="ampersand" format="2">
  <advance width="1502.0"/>
  <unicode hex="0026"/>
  <outline>
    <contour>
      <point x="1296.0" y="-20.0" type="line"/>
      <point x="1502.0" y="280.0" type="line"/>
      <point x="656.0" y="884.0" type="line" smooth="yes"/>
      <point x="596.0" y="926.0"/>
      <point x="568.0" y="966.0"/>
      <point x="568.0" y="1026.0" type="curve" smooth="yes"/>
      <point x="568.0" y="1116.0"/>
      <point x="634.0" y="1172.0"/>
      <point x="828.0" y="1172.0" type="curve" smooth="yes"/>
      <point x="894.0" y="1172.0"/>
      <point x="978.0" y="1162.0"/>
      <point x="1040.0" y="1150.0" type="curve"/>
      <point x="1040.0" y="1476.0" type="line"/>
      <point x="966.0" y="1490.0"/>
      <point x="886.0" y="1500.0"/>
      <point x="790.0" y="1500.0" type="curve" smooth="yes"/>
      <point x="372.0" y="1500.0"/>
      <point x="174.0" y="1318.0"/>
      <point x="174.0" y="1024.0" type="curve" smooth="yes"/>
      <point x="174.0" y="868.0"/>
      <point x="238.0" y="736.0"/>
      <point x="450.0" y="584.0" type="curve" smooth="yes"/>
    </contour>
    <contour>
      <point x="618.0" y="-18.0" type="curve" smooth="yes"/>
      <point x="1020.0" y="-18.0"/>
      <point x="1278.0" y="212.0"/>
      <point x="1278.0" y="666.0" type="curve" smooth="yes"/>
      <point x="1278.0" y="738.0"/>
      <point x="1268.0" y="826.0"/>
      <point x="1250.0" y="906.0" type="curve"/>
      <point x="936.0" y="906.0" type="line"/>
      <point x="954.0" y="826.0"/>
      <point x="964.0" y="736.0"/>
      <point x="964.0" y="662.0" type="curve" smooth="yes"/>
      <point x="964.0" y="364.0"/>
      <point x="830.0" y="270.0"/>
      <point x="664.0" y="270.0" type="curve" smooth="yes"/>
      <point x="530.0" y="270.0"/>
      <point x="450.0" y="336.0"/>
      <point x="450.0" y="454.0" type="curve" smooth="yes"/>
      <point x="450.0" y="532.0"/>
      <point x="478.0" y="586.0"/>
      <point x="522.0" y="632.0" type="curve"/>
      <point x="322.0" y="786.0" type="line"/>
      <point x="180.0" y="740.0"/>
      <point x="60.0" y="602.0"/>
      <point x="60.0" y="406.0" type="curve" smooth="yes"/>
      <point x="60.0" y="148.0"/>
      <point x="250.0" y="-18.0"/>
    </contour>
  </outline>
</glyph>
<glyph name="parenleft" format="2">
  <advance width="674.0"/>
  <unicode hex="0028"/>
  <outline>
    <contour>
      <point x="342.0" y="-440.0" type="curve"/>
      <point x="726.0" y="-440.0" type="line"/>
      <point x="560.0" y="-148.0"/>
      <point x="476.0" y="198.0"/>
      <point x="476.0" y="588.0" type="curve" smooth="yes"/>
      <point x="476.0" y="978.0"/>
      <point x="560.0" y="1324.0"/>
      <point x="726.0" y="1616.0" type="curve"/>
      <point x="342.0" y="1616.0" type="line"/>
      <point x="156.0" y="1334.0"/>
      <point x="74.0" y="988.0"/>
      <point x="74.0" y="588.0" type="curve" smooth="yes"/>
      <point x="74.0" y="188.0"/>
      <point x="156.0" y="-158.0"/>
    </contour>
  </outline>
</glyph>
<glyph name="one" format="2">
  <advance width="724.0"/>
  <unicode hex="0031"/>
  <outline>
    <contour>
      <point x="234.0" y="0.0" type="line"/>
      <point x="626.0" y="0.0" type="line"/>
      <point x="626.0" y="1486.0" type="line"/>
      <point x="386.0" y="1486.0" type="line"/>
      <point x="8.0" y="1254.0" type="line"/>
      <point x="8.0" y="892.0" type="line"/>
      <point x="386.0" y="1124.0" type="line"/>
      <point x="234.0" y="1244.0" type="line"/>
    </contour>
  </outline>
</glyph>
<glyph name="five" format="2">
  <advance width="1000.0"/>
  <unicode hex="0035"/>
  <outline>
    <contour>
      <point x="382.0" y="-20.0" type="curve" smooth="yes"/>
      <point x="754.0" y="-20.0"/>
      <point x="972.0" y="136.0"/>
      <point x="972.0" y="456.0" type="curve" smooth="yes"/>
      <point x="972.0" y="750.0"/>
      <point x="800.0" y="892.0"/>
      <point x="400.0" y="920.0" type="curve" smooth="yes"/>
      <point x="282.0" y="928.0" type="line"/>
      <point x="460.0" y="794.0" type="line"/>
      <point x="492.0" y="1340.0" type="line"/>
      <point x="318.0" y="1158.0" type="line"/>
      <point x="920.0" y="1158.0" type="line"/>
      <point x="920.0" y="1480.0" type="line"/>
      <point x="132.0" y="1480.0" type="line"/>
      <point x="86.0" y="628.0" type="line"/>
      <point x="204.0" y="620.0" type="line" smooth="yes"/>
      <point x="534.0" y="598.0"/>
      <point x="598.0" y="546.0"/>
      <point x="598.0" y="440.0" type="curve" smooth="yes"/>
      <point x="598.0" y="336.0"/>
      <point x="532.0" y="286.0"/>
      <point x="372.0" y="286.0" type="curve" smooth="yes"/>
      <point x="280.0" y="286.0"/>
      <point x="150.0" y="302.0"/>
      <point x="50.0" y="330.0" type="curve"/>
      <point x="50.0" y="26.0" type="line"/>
      <point x="156.0" y="-4.0"/>
      <point x="268.0" y="-20.0"/>
    </contour>
  </outline>
</glyph>
<glyph name="seven" format="2">
  <advance width="932.0"/>
  <unicode hex="0037"/>
  <outline>
    <contour>
      <point x="84.0" y="0.0" type="line"/>
      <point x="490.0" y="0.0" type="line"/>
      <point x="876.0" y="1260.0" type="line"/>
      <point x="876.0" y="1480.0" type="line"/>
      <point x="10.0" y="1480.0" type="line"/>
      <point x="10.0" y="1138.0" type="line"/>
      <point x="642.0" y="1138.0" type="line"/>
      <point x="500.0" y="1260.0" type="line"/>
    </contour>
  </outline>
</glyph>
<glyph name="eight" format="2">
  <advance width="1220.0"/>
  <unicode hex="0038"/>
  <outline>
    <contour>
      <point x="612.0" y="-20.0" type="curve" smooth="yes"/>
      <point x="958.0" y="-20.0"/>
      <point x="1164.0" y="156.0"/>
      <point x="1164.0" y="412.0" type="curve" smooth="yes"/>
      <point x="1164.0" y="632.0"/>
      <point x="1064.0" y="762.0"/>
      <point x="724.0" y="884.0" type="curve" smooth="yes"/>
      <point x="498.0" y="966.0"/>
      <point x="456.0" y="1006.0"/>
      <point x="456.0" y="1092.0" type="curve" smooth="yes"/>
      <point x="456.0" y="1168.0"/>
      <point x="518.0" y="1222.0"/>
      <point x="630.0" y="1222.0" type="curve" smooth="yes"/>
      <point x="736.0" y="1222.0"/>
      <point x="798.0" y="1176.0"/>
      <point x="798.0" y="1088.0" type="curve" smooth="yes"/>
      <point x="798.0" y="1000.0"/>
      <point x="756.0" y="932.0"/>
      <point x="654.0" y="866.0" type="curve"/>
      <point x="884.0" y="756.0" type="line"/>
      <point x="1070.0" y="852.0"/>
      <point x="1130.0" y="984.0"/>
      <point x="1130.0" y="1118.0" type="curve" smooth="yes"/>
      <point x="1130.0" y="1354.0"/>
      <point x="934.0" y="1500.0"/>
      <point x="626.0" y="1500.0" type="curve" smooth="yes"/>
      <point x="282.0" y="1500.0"/>
      <point x="86.0" y="1334.0"/>
      <point x="86.0" y="1080.0" type="curve" smooth="yes"/>
      <point x="86.0" y="868.0"/>
      <point x="196.0" y="712.0"/>
      <point x="534.0" y="600.0" type="curve" smooth="yes"/>
      <point x="746.0" y="530.0"/>
      <point x="800.0" y="484.0"/>
      <point x="800.0" y="394.0" type="curve" smooth="yes"/>
      <point x="800.0" y="310.0"/>
      <point x="742.0" y="258.0"/>
      <point x="612.0" y="258.0" type="curve" smooth="yes"/>
      <point x="484.0" y="258.0"/>
      <point x="418.0" y="314.0"/>
      <point x="418.0" y="412.0" type="curve" smooth="yes"/>
      <point x="418.0" y="492.0"/>
      <point x="470.0" y="586.0"/>
      <point x="582.0" y="630.0" type="curve"/>
      <point x="340.0" y="740.0" type="line"/>
      <point x="148.0" y="662.0"/>
      <point x="54.0" y="532.0"/>
      <point x="54.0" y="378.0" type="curve" smooth="yes"/>
      <point x="54.0" y="148.0"/>
      <point x="242.0" y="-20.0"/>
    </contour>
  </outline>
</glyph>
<glyph name="nine" format="2">
  <advance width="1162.0"/>
  <unicode hex="0039"/>
  <outline>
    <contour>
      <point x="540.0" y="1500.0" type="curve" smooth="yes"/>
      <point x="242.0" y="1500.0"/>
      <point x="36.0" y="1322.0"/>
      <point x="36.0" y="1016.0" type="curve" smooth="yes"/>
      <point x="36.0" y="702.0"/>
      <point x="242.0" y="568.0"/>
      <point x="470.0" y="568.0" type="curve" smooth="yes"/>
      <point x="592.0" y="568.0"/>
      <point x="710.0" y="614.0"/>
      <point x="772.0" y="700.0" type="curve"/>
      <point x="772.0" y="980.0" type="line"/>
      <point x="716.0" y="894.0"/>
      <point x="632.0" y="860.0"/>
      <point x="550.0" y="860.0" type="curve" smooth="yes"/>
      <point x="456.0" y="860.0"/>
      <point x="390.0" y="912.0"/>
      <point x="390.0" y="1030.0" type="curve" smooth="yes"/>
      <point x="390.0" y="1152.0"/>
      <point x="456.0" y="1204.0"/>
      <point x="536.0" y="1204.0" type="curve" smooth="yes"/>
      <point x="640.0" y="1204.0"/>
      <point x="706.0" y="1140.0"/>
      <point x="706.0" y="852.0" type="curve" smooth="yes"/>
      <point x="706.0" y="686.0" type="line" smooth="yes"/>
      <point x="706.0" y="408.0"/>
      <point x="594.0" y="294.0"/>
      <point x="366.0" y="294.0" type="curve" smooth="yes"/>
      <point x="266.0" y="294.0"/>
      <point x="194.0" y="304.0"/>
      <point x="110.0" y="328.0" type="curve"/>
      <point x="110.0" y="16.0" type="line"/>
      <point x="180.0" y="-10.0"/>
      <point x="280.0" y="-20.0"/>
      <point x="378.0" y="-20.0" type="curve" smooth="yes"/>
      <point x="812.0" y="-20.0"/>
      <point x="1090.0" y="224.0"/>
      <point x="1090.0" y="778.0" type="curve" smooth="yes"/>
      <point x="1090.0" y="1302.0"/>
      <point x="866.0" y="1500.0"/>
    </contour>
  </outline>
</glyph>
<glyph name="colon" format="2">
  <advance width="544.0"/>
  <unicode hex="003A"/>
  <outline>
    <contour>
      <point x="272.0" y="-20.0" type="curve" smooth="yes"/>
      <point x="416.0" y="-20.0"/>
      <point x="518.0" y="76.0"/>
      <point x="518.0" y="222.0" type="curve" smooth="yes"/>
      <point x="518.0" y="368.0"/>
      <point x="420.0" y="464.0"/>
      <point x="272.0" y="464.0" type="curve" smooth="yes"/>
      <point x="124.0" y="464.0"/>
      <point x="26.0" y="372.0"/>
      <point x="26.0" y="222.0" type="curve" smooth="yes"/>
      <point x="26.0" y="72.0"/>
      <point x="128.0" y="-20.0"/>
    </contour>
    <contour>
      <point x="272.0" y="636.0" type="curve" smooth="yes"/>
      <point x="416.0" y="636.0"/>
      <point x="518.0" y="732.0"/>
      <point x="518.0" y="878.0" type="curve" smooth="yes"/>
      <point x="518.0" y="1024.0"/>
      <point x="420.0" y="1120.0"/>
      <point x="272.0" y="1120.0" type="curve" smooth="yes"/>
      <point x="124.0" y="1120.0"/>
      <point x="26.0" y="1028.0"/>
      <point x="26.0" y="878.0" type="curve" smooth="yes"/>
      <point x="26.0" y="728.0"/>
      <point x="128.0" y="636.0"/>
    </contour>
  </outline>
</glyph>
<glyph name="less" format="2">
  <advance width="1036.0"/>
  <unicode hex="003C"/>
  <outline>
    <contour>
      <point x="958.0" y="232.0" type="line"/>
      <point x="958.0" y="532.0" type="line"/>
      <point x="294.0" y="772.0" type="line"/>
      <point x="294.0" y="748.0" type="line"/>
      <point x="958.0" y="988.0" type="line"/>
      <point x="958.0" y="1288.0" type="line"/>
      <point x="78.0" y="954.0" type="line"/>
      <point x="78.0" y="566.0" type="line"/>
    </contour>
  </outline>
</glyph>
<glyph name="equal" format="2">
  <advance width="1036.0"/>
  <unicode hex="003D"/>
  <outline>
    <contour>
      <point x="78.0" y="840.0" type="line"/>
      <point x="958.0" y="840.0" type="line"/>
      <point x="958.0" y="1140.0" type="line"/>
      <point x="78.0" y="1140.0" type="line"/>
    </contour>
    <contour>
      <point x="78.0" y="380.0" type="line"/>
      <point x="958.0" y="380.0" type="line"/>
      <point x="958.0" y="680.0" type="line"/>
      <point x="78.0" y="680.0" type="line"/>
    </contour>
  </outline>
</glyph>
<glyph name="question" format="2">
  <advance width="912.0"/>
  <unicode hex="003F"/>
  <outline>
    <contour>
      <point x="274.0" y="532.0" type="line"/>
      <point x="510.0" y="532.0" type="line"/>
      <point x="540.0" y="692.0" type="line"/>
      <point x="748.0" y="752.0"/>
      <point x="882.0" y="892.0"/>
      <point x="882.0" y="1102.0" type="curve" smooth="yes"/>
      <point x="882.0" y="1358.0"/>
      <point x="702.0" y="1500.0"/>
      <point x="354.0" y="1500.0" type="curve" smooth="yes"/>
      <point x="238.0" y="1500.0"/>
      <point x="98.0" y="1480.0"/>
      <point x="10.0" y="1450.0" type="curve"/>
      <point x="10.0" y="1146.0" type="line"/>
      <point x="92.0" y="1176.0"/>
      <point x="202.0" y="1194.0"/>
      <point x="298.0" y="1194.0" type="curve" smooth="yes"/>
      <point x="448.0" y="1194.0"/>
      <point x="508.0" y="1150.0"/>
      <point x="508.0" y="1056.0" type="curve" smooth="yes"/>
      <point x="508.0" y="966.0"/>
      <point x="448.0" y="912.0"/>
      <point x="208.0" y="868.0" type="curve"/>
    </contour>
    <contour>
      <point x="392.0" y="-20.0" type="curve" smooth="yes"/>
      <point x="536.0" y="-20.0"/>
      <point x="638.0" y="76.0"/>
      <point x="638.0" y="216.0" type="curve" smooth="yes"/>
      <point x="638.0" y="356.0"/>
      <point x="540.0" y="452.0"/>
      <point x="392.0" y="452.0" type="curve" smooth="yes"/>
      <point x="244.0" y="452.0"/>
      <point x="146.0" y="360.0"/>
      <point x="146.0" y="216.0" type="curve" smooth="yes"/>
      <point x="146.0" y="72.0"/>
      <point x="248.0" y="-20.0"/>
    </contour>
  </outline>
</glyph>
<glyph name="at" format="2">
  <advance width="1984.0"/>
  <unicode hex="0040"/>
  <outline>
    <contour>
      <point x="1034.0" y="-460.0" type="curve" smooth="yes"/>
      <point x="1180.0" y="-460.0"/>
      <point x="1322.0" y="-442.0"/>
      <point x="1462.0" y="-406.0" type="curve"/>
      <point x="1462.0" y="-150.0" type="line"/>
      <point x="1320.0" y="-186.0"/>
      <point x="1180.0" y="-204.0"/>
      <point x="1034.0" y="-204.0" type="curve" smooth="yes"/>
      <point x="552.0" y="-204.0"/>
      <point x="356.0" y="-12.0"/>
      <point x="356.0" y="520.0" type="curve" smooth="yes"/>
      <point x="356.0" y="1052.0"/>
      <point x="552.0" y="1242.0"/>
      <point x="1002.0" y="1242.0" type="curve" smooth="yes"/>
      <point x="1452.0" y="1242.0"/>
      <point x="1650.0" y="1060.0"/>
      <point x="1652.0" y="580.0" type="curve" smooth="yes"/>
      <point x="1654.0" y="300.0"/>
      <point x="1608.0" y="246.0"/>
      <point x="1530.0" y="246.0" type="curve" smooth="yes"/>
      <point x="1486.0" y="246.0"/>
      <point x="1458.0" y="274.0"/>
      <point x="1458.0" y="344.0" type="curve" smooth="yes"/>
      <point x="1458.0" y="636.0" type="line" smooth="yes"/>
      <point x="1458.0" y="976.0"/>
      <point x="1314.0" y="1098.0"/>
      <point x="982.0" y="1098.0" type="curve" smooth="yes"/>
      <point x="876.0" y="1098.0"/>
      <point x="748.0" y="1080.0"/>
      <point x="650.0" y="1048.0" type="curve"/>
      <point x="646.0" y="744.0" type="line"/>
      <point x="728.0" y="776.0"/>
      <point x="824.0" y="792.0"/>
      <point x="906.0" y="792.0" type="curve" smooth="yes"/>
      <point x="1044.0" y="792.0"/>
      <point x="1084.0" y="752.0"/>
      <point x="1084.0" y="654.0" type="curve" smooth="yes"/>
      <point x="1084.0" y="288.0" type="line"/>
      <point x="1060.0" y="270.0"/>
      <point x="1034.0" y="264.0"/>
      <point x="1010.0" y="264.0" type="curve" smooth="yes"/>
      <point x="962.0" y="264.0"/>
      <point x="928.0" y="294.0"/>
      <point x="928.0" y="354.0" type="curve" smooth="yes"/>
      <point x="928.0" y="418.0"/>
      <point x="966.0" y="456.0"/>
      <point x="1038.0" y="460.0" type="curve" smooth="yes"/>
      <point x="1174.0" y="468.0" type="line"/>
      <point x="1122.0" y="676.0" type="line"/>
      <point x="990.0" y="668.0" type="line" smooth="yes"/>
      <point x="676.0" y="648.0"/>
      <point x="554.0" y="524.0"/>
      <point x="554.0" y="306.0" type="curve" smooth="yes"/>
      <point x="554.0" y="110.0"/>
      <point x="682.0" y="-22.0"/>
      <point x="868.0" y="-22.0" type="curve" smooth="yes"/>
      <point x="970.0" y="-22.0"/>
      <point x="1068.0" y="14.0"/>
      <point x="1102.0" y="132.0" type="curve"/>
      <point x="1120.0" y="132.0" type="line"/>
      <point x="1188.0" y="26.0"/>
      <point x="1298.0" y="-22.0"/>
      <point x="1452.0" y="-22.0" type="curve" smooth="yes"/>
      <point x="1730.0" y="-22.0"/>
      <point x="1930.0" y="140.0"/>
      <point x="1930.0" y="588.0" type="curve" smooth="yes"/>
      <point x="1930.0" y="1194.0"/>
      <point x="1592.0" y="1498.0"/>
      <point x="1002.0" y="1498.0" type="curve" smooth="yes"/>
      <point x="412.0" y="1498.0"/>
      <point x="54.0" y="1194.0"/>
      <point x="54.0" y="520.0" type="curve" smooth="yes"/>
      <point x="54.0" y="-154.0"/>
      <point x="412.0" y="-460.0"/>
    </contour>
  </outline>
</glyph>
<glyph name="H" format="2">
  <advance width="1366.0"/>
  <unicode hex="0048"/>
  <anchor x="684.0" y="0.0" name="bottom"/>
  <anchor x="684.0" y="1200.0" name="center"/>
  <anchor x="684.0" y="1520.0" name="top"/>
  <anchor x="28.0" y="1480.0" name="topleft"/>
  <outline>
    <contour>
      <point x="88.0" y="0.0" type="line"/>
      <point x="480.0" y="0.0" type="line"/>
      <point x="480.0" y="576.0" type="line"/>
      <point x="886.0" y="576.0" type="line"/>
      <point x="886.0" y="0.0" type="line"/>
      <point x="1278.0" y="0.0" type="line"/>
      <point x="1278.0" y="1480.0" type="line"/>
      <point x="886.0" y="1480.0" type="line"/>
      <point x="886.0" y="934.0" type="line"/>
      <point x="480.0" y="934.0" type="line"/>
      <point x="480.0" y="1480.0" type="line"/>
      <point x="88.0" y="1480.0" type="line"/>
    </contour>
  </outline>
</glyph>
<glyph name="J" format="2">
  <advance width="568.0"/>
  <unicode hex="004A"/>
  <anchor x="480.0" y="0.0" name="bottom"/>
  <anchor x="284.0" y="1520.0" name="top"/>
  <outline>
    <contour>
      <point x="206.0" y="-350.0" type="line"/>
      <point x="410.0" y="-132.0"/>
      <point x="480.0" y="72.0"/>
      <point x="480.0" y="322.0" type="curve"/>
      <point x="480.0" y="1480.0" type="line"/>
      <point x="88.0" y="1480.0" type="line"/>
      <point x="88.0" y="306.0" type="line" smooth="yes"/>
      <point x="88.0" y="100.0"/>
      <point x="58.0" y="-26.0"/>
      <point x="-50.0" y="-182.0" type="curve"/>
    </contour>
  </outline>
</glyph>
<glyph name="K" format="2">
  <advance width="1238.0"/>
  <unicode hex="004B"/>
  <anchor x="646.0" y="0.0" name="bottom"/>
  <anchor x="634.0" y="1480.0" name="top"/>
  <outline>
    <contour>
      <point x="890.0" y="0.0" type="line"/>
      <point x="1308.0" y="0.0" type="line"/>
      <point x="848.0" y="816.0" type="line"/>
      <point x="844.0" y="706.0" type="line"/>
      <point x="1272.0" y="1480.0" type="line"/>
      <point x="866.0" y="1480.0" type="line"/>
      <point x="464.0" y="750.0" type="line"/>
    </contour>
    <contour>
      <point x="88.0" y="0.0" type="line"/>
      <point x="480.0" y="0.0" type="line"/>
      <point x="480.0" y="1480.0" type="line"/>
      <point x="88.0" y="1480.0" type="line"/>
    </contour>
    <contour>
      <point x="428.0" y="576.0" type="line"/>
      <point x="602.0" y="576.0" type="line"/>
      <point x="602.0" y="934.0" type="line"/>
      <point x="428.0" y="934.0" type="line"/>
    </contour>
  </outline>
</glyph>
<glyph name="M" format="2">
  <advance width="1736.0"/>
  <unicode hex="004D"/>
  <anchor x="894.0" y="0.0" name="bottom"/>
  <anchor x="894.0" y="1480.0" name="top"/>
  <outline>
    <contour>
      <point x="92.0" y="0.0" type="line"/>
      <point x="456.0" y="0.0" type="line"/>
      <point x="456.0" y="1102.0" type="line"/>
      <point x="380.0" y="1102.0" type="line"/>
      <point x="716.0" y="220.0" type="line"/>
      <point x="1020.0" y="220.0" type="line"/>
      <point x="1342.0" y="1102.0" type="line"/>
      <point x="1280.0" y="1102.0" type="line"/>
      <point x="1280.0" y="0.0" type="line"/>
      <point x="1644.0" y="0.0" type="line"/>
      <point x="1644.0" y="1480.0" type="line"/>
      <point x="1160.0" y="1480.0" type="line"/>
      <point x="860.0" y="618.0" type="line"/>
      <point x="890.0" y="618.0" type="line"/>
      <point x="576.0" y="1480.0" type="line"/>
      <point x="92.0" y="1480.0" type="line"/>
    </contour>
  </outline>
</glyph>
<glyph name="Q" format="2">
  <advance width="1396.0"/>
  <unicode hex="0051"/>
  <outline>
    <contour>
      <point x="1244.0" y="-354.0" type="curve"/>
      <point x="1318.0" y="-36.0" type="line"/>
      <point x="1150.0" y="-12.0"/>
      <point x="984.0" y="32.0"/>
      <point x="734.0" y="130.0" type="curve"/>
      <point x="606.0" y="34.0" type="line"/>
      <point x="1074.0" y="-34.0"/>
      <point x="1342.0" y="224.0"/>
      <point x="1342.0" y="740.0" type="curve" smooth="yes"/>
      <point x="1342.0" y="1276.0"/>
      <point x="1078.0" y="1500.0"/>
      <point x="698.0" y="1500.0" type="curve" smooth="yes"/>
      <point x="318.0" y="1500.0"/>
      <point x="54.0" y="1276.0"/>
      <point x="54.0" y="740.0" type="curve" smooth="yes"/>
      <point x="54.0" y="184.0"/>
      <point x="344.0" y="-180.0"/>
    </contour>
    <contour>
      <point x="698.0" y="304.0" type="curve" smooth="yes"/>
      <point x="544.0" y="304.0"/>
      <point x="458.0" y="414.0"/>
      <point x="458.0" y="748.0" type="curve" smooth="yes"/>
      <point x="458.0" y="1066.0"/>
      <point x="544.0" y="1176.0"/>
      <point x="698.0" y="1176.0" type="curve" smooth="yes"/>
      <point x="852.0" y="1176.0"/>
      <point x="938.0" y="1066.0"/>
      <point x="938.0" y="732.0" type="curve" smooth="yes"/>
      <point x="938.0" y="414.0"/>
      <point x="852.0" y="304.0"/>
    </contour>
  </outline>
</glyph>
<glyph name="U" format="2">
  <advance width="1338.0"/>
  <unicode hex="0055"/>
  <anchor x="674.0" y="0.0" name="bottom"/>
  <anchor x="926.0" y="0.0" name="ogonek"/>
  <anchor x="674.0" y="1520.0" name="top"/>
  <anchor x="940.0" y="1480.0" name="topright"/>
  <outline>
    <contour>
      <point x="674.0" y="-20.0" type="curve" smooth="yes"/>
      <point x="1064.0" y="-20.0"/>
      <point x="1256.0" y="158.0"/>
      <point x="1256.0" y="604.0" type="curve" smooth="yes"/>
      <point x="1256.0" y="1480.0" type="line"/>
      <point x="872.0" y="1480.0" type="line"/>
      <point x="872.0" y="560.0" type="line" smooth="yes"/>
      <point x="872.0" y="370.0"/>
      <point x="798.0" y="308.0"/>
      <point x="674.0" y="308.0" type="curve" smooth="yes"/>
      <point x="550.0" y="308.0"/>
      <point x="474.0" y="370.0"/>
      <point x="474.0" y="560.0" type="curve" smooth="yes"/>
      <point x="474.0" y="1480.0" type="line"/>
      <point x="82.0" y="1480.0" type="line"/>
      <point x="82.0" y="604.0" type="line" smooth="yes"/>
      <point x="82.0" y="158.0"/>
      <point x="280.0" y="-20.0"/>
    </contour>
  </outline>
</glyph>
<glyph name="grave" format="2">
  <advance width="1200.0"/>
  <unicode hex="0060"/>
  <anchor x="600.0" y="1200.0" name="_top"/>
  <anchor x="600.0" y="1656.0" name="top"/>
  <outline>
    <contour>
      <point x="432.0" y="1220.0" type="line"/>
      <point x="768.0" y="1220.0" type="line"/>
      <point x="560.0" y="1616.0" type="line"/>
      <point x="172.0" y="1616.0" type="line"/>
    </contour>
  </outline>
</glyph>
<glyph name="b" format="2">
  <advance width="1104.0"/>
  <unicode hex="0062"/>
  <anchor x="562.0" y="0.0" name="bottom"/>
  <anchor x="272.0" y="1616.0" name="top"/>
  <outline>
    <contour>
      <point x="480.0" y="-20.0" type="curve" smooth="yes"/>
      <point x="892.0" y="-22.0"/>
      <point x="1064.0" y="190.0"/>
      <point x="1064.0" y="566.0" type="curve" smooth="yes"/>
      <point x="1064.0" y="948.0"/>
      <point x="894.0" y="1118.0"/>
      <point x="700.0" y="1118.0" type="curve" smooth="yes"/>
      <point x="600.0" y="1118.0"/>
      <point x="524.0" y="1072.0"/>
      <point x="482.0" y="988.0" type="curve"/>
      <point x="464.0" y="988.0" type="line"/>
      <point x="464.0" y="1616.0" type="line"/>
      <point x="78.0" y="1616.0" type="line"/>
      <point x="78.0" y="46.0" type="line"/>
      <point x="196.0" y="2.0"/>
      <point x="346.0" y="-20.0"/>
    </contour>
    <contour>
      <point x="512.0" y="272.0" type="curve" smooth="yes"/>
      <point x="496.0" y="272.0"/>
      <point x="480.0" y="274.0"/>
      <point x="464.0" y="278.0" type="curve"/>
      <point x="464.0" y="782.0" type="line"/>
      <point x="482.0" y="790.0"/>
      <point x="506.0" y="794.0"/>
      <point x="528.0" y="794.0" type="curve" smooth="yes"/>
      <point x="620.0" y="794.0"/>
      <point x="670.0" y="748.0"/>
      <point x="670.0" y="532.0" type="curve" smooth="yes"/>
      <point x="670.0" y="326.0"/>
      <point x="616.0" y="272.0"/>
    </contour>
  </outline>
</glyph>
<glyph name="h" format="2">
  <advance width="1098.0"/>
  <unicode hex="0068"/>
  <anchor x="552.0" y="0.0" name="bottom"/>
  <anchor x="552.0" y="550.0" name="center"/>
  <anchor x="78.0" y="1350.0" name="stroke"/>
  <anchor x="552.0" y="1616.0" name="top"/>
  <outline>
    <contour>
      <point x="78.0" y="0.0" type="line"/>
      <point x="464.0" y="0.0" type="line"/>
      <point x="464.0" y="736.0" type="line"/>
      <point x="486.0" y="760.0"/>
      <point x="526.0" y="776.0"/>
      <point x="560.0" y="776.0" type="curve" smooth="yes"/>
      <point x="606.0" y="776.0"/>
      <point x="638.0" y="752.0"/>
      <point x="638.0" y="672.0" type="curve" smooth="yes"/>
      <point x="638.0" y="0.0" type="line"/>
      <point x="1024.0" y="0.0" type="line"/>
      <point x="1024.0" y="708.0" type="line" smooth="yes"/>
      <point x="1024.0" y="1010.0"/>
      <point x="886.0" y="1118.0"/>
      <point x="728.0" y="1118.0" type="curve" smooth="yes"/>
      <point x="602.0" y="1118.0"/>
      <point x="530.0" y="1068.0"/>
      <point x="482.0" y="988.0" type="curve"/>
      <point x="464.0" y="988.0" type="line"/>
      <point x="464.0" y="1616.0" type="line"/>
      <point x="78.0" y="1616.0" type="line"/>
    </contour>
  </outline>
</glyph>
<glyph name="j" format="2">
  <advance width="544.0"/>
  <unicode hex="006A"/>
  <anchor x="272.0" y="1200.0" name="_top"/>
  <anchor x="272.0" y="1200.0" name="top"/>
  <outline>
    <contour>
      <point x="196.0" y="-476.0" type="line"/>
      <point x="398.0" y="-258.0"/>
      <point x="466.0" y="-54.0"/>
      <point x="466.0" y="196.0" type="curve" smooth="yes"/>
      <point x="466.0" y="1100.0" type="line"/>
      <point x="78.0" y="1100.0" type="line"/>
      <point x="78.0" y="180.0" type="line" smooth="yes"/>
      <point x="78.0" y="-26.0"/>
      <point x="48.0" y="-152.0"/>
      <point x="-60.0" y="-308.0" type="curve"/>
    </contour>
    <contour>
      <point x="272.0" y="1210.0" type="curve" smooth="yes"/>
      <point x="434.0" y="1210.0"/>
      <point x="506.0" y="1288.0"/>
      <point x="506.0" y="1418.0" type="curve" smooth="yes"/>
      <point x="506.0" y="1548.0"/>
      <point x="434.0" y="1626.0"/>
      <point x="272.0" y="1626.0" type="curve" smooth="yes"/>
      <point x="110.0" y="1626.0"/>
      <point x="38.0" y="1548.0"/>
      <point x="38.0" y="1418.0" type="curve" smooth="yes"/>
      <point x="38.0" y="1288.0"/>
      <point x="110.0" y="1210.0"/>
    </contour>
  </outline>
</glyph>
<glyph name="m" format="2">
  <advance width="1628.0"/>
  <unicode hex="006D"/>
  <anchor x="818.0" y="0.0" name="bottom"/>
  <anchor x="818.0" y="1200.0" name="top"/>
  <outline>
    <contour>
      <point x="78.0" y="0.0" type="line"/>
      <point x="464.0" y="0.0" type="line"/>
      <point x="464.0" y="736.0" type="line"/>
      <point x="484.0" y="760.0"/>
      <point x="522.0" y="776.0"/>
      <point x="554.0" y="776.0" type="curve" smooth="yes"/>
      <point x="598.0" y="776.0"/>
      <point x="628.0" y="754.0"/>
      <point x="628.0" y="682.0" type="curve" smooth="yes"/>
      <point x="628.0" y="0.0" type="line"/>
      <point x="1006.0" y="0.0" type="line"/>
      <point x="1006.0" y="728.0" type="line" smooth="yes"/>
      <point x="1006.0" y="1014.0"/>
      <point x="872.0" y="1118.0"/>
      <point x="710.0" y="1118.0" type="curve" smooth="yes"/>
      <point x="592.0" y="1118.0"/>
      <point x="508.0" y="1074.0"/>
      <point x="442.0" y="988.0" type="curve"/>
      <point x="426.0" y="988.0" type="line"/>
      <point x="398.0" y="1100.0" type="line"/>
      <point x="78.0" y="1100.0" type="line"/>
    </contour>
    <contour>
      <point x="1168.0" y="0.0" type="line"/>
      <point x="1554.0" y="0.0" type="line"/>
      <point x="1554.0" y="704.0" type="line" smooth="yes"/>
      <point x="1554.0" y="1010.0"/>
      <point x="1412.0" y="1118.0"/>
      <point x="1228.0" y="1118.0" type="curve" smooth="yes"/>
      <point x="1108.0" y="1118.0"/>
      <point x="996.0" y="1060.0"/>
      <point x="930.0" y="956.0" type="curve"/>
      <point x="992.0" y="736.0" type="line"/>
      <point x="1016.0" y="760.0"/>
      <point x="1058.0" y="776.0"/>
      <point x="1090.0" y="776.0" type="curve" smooth="yes"/>
      <point x="1134.0" y="776.0"/>
      <point x="1168.0" y="754.0"/>
      <point x="1168.0" y="682.0" type="curve" smooth="yes"/>
    </contour>
  </outline>
</glyph>
<glyph name="x" format="2">
  <advance width="1052.0"/>
  <unicode hex="0078"/>
  <anchor x="526.0" y="0.0" name="bottom"/>
  <anchor x="528.0" y="1200.0" name="top"/>
  <outline>
    <contour>
      <point x="674.0" y="0.0" type="line"/>
      <point x="1090.0" y="0.0" type="line"/>
      <point x="756.0" y="558.0" type="line"/>
      <point x="530.0" y="844.0" type="line"/>
      <point x="388.0" y="1100.0" type="line"/>
      <point x="-28.0" y="1100.0" type="line"/>
      <point x="294.0" y="554.0" type="line"/>
      <point x="524.0" y="272.0" type="line"/>
    </contour>
    <contour>
      <point x="-34.0" y="0.0" type="line"/>
      <point x="370.0" y="0.0" type="line"/>
      <point x="524.0" y="272.0" type="line"/>
      <point x="756.0" y="558.0" type="line"/>
      <point x="1076.0" y="1100.0" type="line"/>
      <point x="672.0" y="1100.0" type="line"/>
      <point x="530.0" y="844.0" type="line"/>
      <point x="294.0" y="554.0" type="line"/>
    </contour>
  </outline>
</glyph>
<glyph name="z" format="2">
  <advance width="876.0"/>
  <unicode hex="007A"/>
  <anchor x="446.0" y="0.0" name="bottom"/>
  <anchor x="446.0" y="1200.0" name="top"/>
  <outline>
    <contour>
      <point x="42.0" y="0.0" type="line"/>
      <point x="850.0" y="0.0" type="line"/>
      <point x="850.0" y="300.0" type="line"/>
      <point x="422.0" y="300.0" type="line"/>
      <point x="422.0" y="228.0" type="line"/>
      <point x="840.0" y="860.0" type="line"/>
      <point x="840.0" y="1100.0" type="line"/>
      <point x="52.0" y="1100.0" type="line"/>
      <point x="52.0" y="800.0" type="line"/>
      <point x="460.0" y="800.0" type="line"/>
      <point x="460.0" y="872.0" type="line"/>
      <point x="42.0" y="240.0" type="line"/>
    </contour>
  </outline>
</glyph>
<glyph name="braceright" format="2">
  <advance width="714.0"/>
  <unicode hex="007D"/>
  <outline>
    <contour>
      <point x="150.0" y="-460.0" type="curve" smooth="yes"/>
      <point x="426.0" y="-460.0"/>
      <point x="566.0" y="-324.0"/>
      <point x="566.0" y="-66.0" type="curve" smooth="yes"/>
      <point x="566.0" y="382.0" type="line" smooth="yes"/>
      <point x="566.0" y="442.0"/>
      <point x="606.0" y="482.0"/>
      <point x="666.0" y="482.0" type="curve" smooth="yes"/>
      <point x="728.0" y="482.0" type="line"/>
      <point x="728.0" y="782.0" type="line"/>
      <point x="666.0" y="782.0" type="line" smooth="yes"/>
      <point x="606.0" y="782.0"/>
      <point x="566.0" y="822.0"/>
      <point x="566.0" y="882.0" type="curve" smooth="yes"/>
      <point x="566.0" y="1242.0" type="line" smooth="yes"/>
      <point x="566.0" y="1500.0"/>
      <point x="426.0" y="1636.0"/>
      <point x="150.0" y="1636.0" type="curve" smooth="yes"/>
      <point x="80.0" y="1636.0"/>
      <point x="22.0" y="1630.0"/>
      <point x="-30.0" y="1622.0" type="curve"/>
      <point x="-30.0" y="1330.0" type="line"/>
      <point x="82.0" y="1330.0" type="line" smooth="yes"/>
      <point x="146.0" y="1330.0"/>
      <point x="180.0" y="1304.0"/>
      <point x="180.0" y="1246.0" type="curve" smooth="yes"/>
      <point x="180.0" y="912.0" type="line" smooth="yes"/>
      <point x="180.0" y="716.0"/>
      <point x="282.0" y="608.0"/>
      <point x="556.0" y="608.0" type="curve"/>
      <point x="556.0" y="656.0" type="line"/>
      <point x="282.0" y="656.0"/>
      <point x="180.0" y="548.0"/>
      <point x="180.0" y="352.0" type="curve" smooth="yes"/>
      <point x="180.0" y="-70.0" type="line" smooth="yes"/>
      <point x="180.0" y="-128.0"/>
      <point x="146.0" y="-154.0"/>
      <point x="82.0" y="-154.0" type="curve" smooth="yes"/>
      <point x="-30.0" y="-154.0" type="line"/>
      <point x="-30.0" y="-446.0" type="line"/>
      <point x="22.0" y="-454.0"/>
      <point x="80.0" y="-460.0"/>
    </contour>
  </outline>
</glyph>
<glyph name="exclamdown" format="2">
  <advance width="584.0"/>
  <unicode hex="00A1"/>
  <outline>
    <contour>
      <point x="176.0" y="556.0" type="line"/>
      <point x="84.0" y="98.0" type="line"/>
      <point x="84.0" y="-380.0" type="line"/>
      <point x="500.0" y="-380.0" type="line"/>
      <point x="500.0" y="98.0" type="line"/>
      <point x="412.0" y="556.0" type="line"/>
    </contour>
    <contour>
      <point x="292.0" y="1120.0" type="curve" smooth="yes"/>
      <point x="148.0" y="1120.0"/>
      <point x="46.0" y="1028.0"/>
      <point x="46.0" y="878.0" type="curve" smooth="yes"/>
      <point x="46.0" y="728.0"/>
      <point x="144.0" y="636.0"/>
      <point x="292.0" y="636.0" type="curve" smooth="yes"/>
      <point x="440.0" y="636.0"/>
      <point x="538.0" y="732.0"/>
      <point x="538.0" y="878.0" type="curve" smooth="yes"/>
      <point x="538.0" y="1024.0"/>
      <point x="436.0" y="1120.0"/>
    </contour>
  </outline>
</glyph>
<glyph name="cent" format="2">
  <advance width="846.0"/>
  <unicode hex="00A2"/>
  <outline>
    <contour>
      <point x="566.0" y="-22.0" type="curve" smooth="yes"/>
      <point x="644.0" y="-22.0"/>
      <point x="732.0" y="-10.0"/>
      <point x="806.0" y="14.0" type="curve"/>
      <point x="806.0" y="326.0" type="line"/>
      <point x="750.0" y="308.0"/>
      <point x="700.0" y="298.0"/>
      <point x="654.0" y="298.0" type="curve" smooth="yes"/>
      <point x="512.0" y="298.0"/>
      <point x="442.0" y="358.0"/>
      <point x="442.0" y="554.0" type="curve" smooth="yes"/>
      <point x="442.0" y="730.0"/>
      <point x="512.0" y="798.0"/>
      <point x="678.0" y="798.0" type="curve" smooth="yes"/>
      <point x="720.0" y="798.0"/>
      <point x="766.0" y="794.0"/>
      <point x="806.0" y="788.0" type="curve"/>
      <point x="806.0" y="1100.0" type="line"/>
      <point x="742.0" y="1112.0"/>
      <point x="676.0" y="1118.0"/>
      <point x="602.0" y="1118.0" type="curve" smooth="yes"/>
      <point x="262.0" y="1118.0"/>
      <point x="40.0" y="952.0"/>
      <point x="40.0" y="548.0" type="curve" smooth="yes"/>
      <point x="40.0" y="158.0"/>
      <point x="230.0" y="-22.0"/>
    </contour>
    <contour>
      <point x="374.0" y="-240.0" type="line"/>
      <point x="694.0" y="-240.0" type="line"/>
      <point x="694.0" y="60.0" type="line"/>
      <point x="374.0" y="60.0" type="line"/>
    </contour>
    <contour>
      <point x="374.0" y="1040.0" type="line"/>
      <point x="694.0" y="1040.0" type="line"/>
      <point x="694.0" y="1340.0" type="line"/>
      <point x="374.0" y="1340.0" type="line"/>
    </contour>
  </outline>
</glyph>
<glyph name="sterling" format="2">
  <advance width="1206.0"/>
  <unicode hex="00A3"/>
  <outline>
    <contour>
      <point x="210.0" y="124.0" type="line"/>
      <point x="596.0" y="124.0" type="line"/>
      <point x="596.0" y="1016.0" type="line" smooth="yes"/>
      <point x="596.0" y="1122.0"/>
      <point x="656.0" y="1172.0"/>
      <point x="872.0" y="1172.0" type="curve" smooth="yes"/>
      <point x="954.0" y="1172.0"/>
      <point x="1058.0" y="1160.0"/>
      <point x="1138.0" y="1140.0" type="curve"/>
      <point x="1138.0" y="1466.0" type="line"/>
      <point x="1054.0" y="1486.0"/>
      <point x="944.0" y="1500.0"/>
      <point x="834.0" y="1500.0" type="curve" smooth="yes"/>
      <point x="408.0" y="1500.0"/>
      <point x="210.0" y="1318.0"/>
      <point x="210.0" y="1006.0" type="curve" smooth="yes"/>
    </contour>
    <contour>
      <point x="50.0" y="0.0" type="line"/>
      <point x="1172.0" y="0.0" type="line"/>
      <point x="1172.0" y="334.0" type="line"/>
      <point x="50.0" y="334.0" type="line"/>
    </contour>
    <contour>
      <point x="50.0" y="600.0" type="line"/>
      <point x="978.0" y="600.0" type="line"/>
      <point x="978.0" y="900.0" type="line"/>
      <point x="50.0" y="900.0" type="line"/>
    </contour>
  </outline>
</glyph>
<glyph name="yen" format="2">
  <advance width="1186.0"/>
  <unicode hex="00A5"/>
  <outline>
    <contour>
      <point x="398.0" y="0.0" type="line"/>
      <point x="790.0" y="0.0" type="line"/>
      <point x="790.0" y="770.0" type="line"/>
      <point x="710.0" y="460.0" type="line"/>
      <point x="1252.0" y="1480.0" type="line"/>
      <point x="876.0" y="1480.0" type="line"/>
      <point x="556.0" y="870.0" type="line"/>
      <point x="656.0" y="870.0" type="line"/>
      <point x="338.0" y="1480.0" type="line"/>
      <point x="-72.0" y="1480.0" type="line"/>
      <point x="478.0" y="460.0" type="line"/>
      <point x="398.0" y="776.0" type="line"/>
    </contour>
    <contour>
      <point x="108.0" y="252.0" type="line"/>
      <point x="1080.0" y="252.0" type="line"/>
      <point x="1080.0" y="486.0" type="line"/>
      <point x="108.0" y="486.0" type="line"/>
    </contour>
    <contour>
      <point x="108.0" y="562.0" type="line"/>
      <point x="1080.0" y="562.0" type="line"/>
      <point x="1080.0" y="796.0" type="line"/>
      <point x="108.0" y="796.0" type="line"/>
    </contour>
  </outline>
</glyph>
<glyph name="copyright" format="2">
  <advance width="1608.0"/>
  <unicode hex="00A9"/>
  <outline>
    <contour>
      <point x="804.0" y="-22.0" type="curve" smooth="yes"/>
      <point x="1256.0" y="-22.0"/>
      <point x="1554.0" y="282.0"/>
      <point x="1554.0" y="740.0" type="curve" smooth="yes"/>
      <point x="1554.0" y="1198.0"/>
      <point x="1256.0" y="1502.0"/>
      <point x="804.0" y="1502.0" type="curve" smooth="yes"/>
      <point x="352.0" y="1502.0"/>
      <point x="54.0" y="1198.0"/>
      <point x="54.0" y="740.0" type="curve" smooth="yes"/>
      <point x="54.0" y="282.0"/>
      <point x="352.0" y="-22.0"/>
    </contour>
    <contour>
      <point x="874.0" y="324.0" type="curve" smooth="yes"/>
      <point x="956.0" y="324.0"/>
      <point x="1028.0" y="336.0"/>
      <point x="1078.0" y="354.0" type="curve"/>
      <point x="1078.0" y="604.0" type="line"/>
      <point x="1000.0" y="586.0"/>
      <point x="958.0" y="580.0"/>
      <point x="902.0" y="580.0" type="curve" smooth="yes"/>
      <point x="790.0" y="580.0"/>
      <point x="728.0" y="634.0"/>
      <point x="728.0" y="732.0" type="curve" smooth="yes"/>
      <point x="728.0" y="832.0"/>
      <point x="784.0" y="888.0"/>
      <point x="914.0" y="888.0" type="curve" smooth="yes"/>
      <point x="970.0" y="888.0"/>
      <point x="1018.0" y="882.0"/>
      <point x="1078.0" y="872.0" type="curve"/>
      <point x="1078.0" y="1122.0" type="line"/>
      <point x="1022.0" y="1136.0"/>
      <point x="960.0" y="1144.0"/>
      <point x="886.0" y="1144.0" type="curve" smooth="yes"/>
      <point x="606.0" y="1144.0"/>
      <point x="428.0" y="992.0"/>
      <point x="428.0" y="732.0" type="curve" smooth="yes"/>
      <point x="428.0" y="474.0"/>
      <point x="602.0" y="324.0"/>
    </contour>
    <contour>
      <point x="804.0" y="190.0" type="curve" smooth="yes"/>
      <point x="466.0" y="190.0"/>
      <point x="276.0" y="400.0"/>
      <point x="276.0" y="740.0" type="curve" smooth="yes"/>
      <point x="276.0" y="1080.0"/>
      <point x="466.0" y="1290.0"/>
      <point x="804.0" y="1290.0" type="curve" smooth="yes"/>
      <point x="1142.0" y="1290.0"/>
      <point x="1332.0" y="1080.0"/>
      <point x="1332.0" y="740.0" type="curve" smooth="yes"/>
      <point x="1332.0" y="400.0"/>
      <point x="1142.0" y="190.0"/>
    </contour>
  </outline>
</glyph>
<glyph name="guillemetleft" format="2">
  <advance width="1182.0"/>
  <unicode hex="00AB"/>
  <outline>
    <contour>
      <point x="258.0" y="130.0" type="line"/>
      <point x="638.0" y="130.0" type="line"/>
      <point x="440.0" y="570.0" type="line"/>
      <point x="638.0" y="1010.0" type="line"/>
      <point x="258.0" y="1010.0" type="line"/>
      <point x="60.0" y="570.0" type="line"/>
    </contour>
    <contour>
      <point x="782.0" y="130.0" type="line"/>
      <point x="1162.0" y="130.0" type="line"/>
      <point x="964.0" y="570.0" type="line"/>
      <point x="1162.0" y="1010.0" type="line"/>
      <point x="782.0" y="1010.0" type="line"/>
      <point x="584.0" y="570.0" type="line"/>
    </contour>
  </outline>
</glyph>
<glyph name="logicalnot" format="2">
  <advance width="1240.0"/>
  <unicode hex="00AC"/>
  <outline>
    <contour>
      <point x="854.0" y="190.0" type="line"/>
      <point x="1166.0" y="190.0" type="line"/>
      <point x="1166.0" y="910.0" type="line"/>
      <point x="78.0" y="910.0" type="line"/>
      <point x="78.0" y="610.0" type="line"/>
      <point x="854.0" y="610.0" type="line"/>
    </contour>
  </outline>
</glyph>
<glyph name="registered" format="2">
  <advance width="1356.0"/>
  <unicode hex="00AE"/>
  <outline>
    <contour>
      <point x="678.0" y="268.0" type="curve" smooth="yes"/>
      <point x="1040.0" y="268.0"/>
      <point x="1288.0" y="518.0"/>
      <point x="1288.0" y="882.0" type="curve" smooth="yes"/>
      <point x="1288.0" y="1246.0"/>
      <point x="1040.0" y="1498.0"/>
      <point x="678.0" y="1498.0" type="curve" smooth="yes"/>
      <point x="316.0" y="1498.0"/>
      <point x="68.0" y="1246.0"/>
      <point x="68.0" y="882.0" type="curve" smooth="yes"/>
      <point x="68.0" y="518.0"/>
      <point x="316.0" y="268.0"/>
    </contour>
    <contour>
      <point x="784.0" y="600.0" type="line"/>
      <point x="966.0" y="600.0" type="line"/>
      <point x="814.0" y="820.0" type="line"/>
      <point x="650.0" y="794.0" type="line"/>
    </contour>
    <contour>
      <point x="678.0" y="424.0" type="curve" smooth="yes"/>
      <point x="410.0" y="424.0"/>
      <point x="236.0" y="604.0"/>
      <point x="236.0" y="882.0" type="curve" smooth="yes"/>
      <point x="236.0" y="1162.0"/>
      <point x="410.0" y="1342.0"/>
      <point x="678.0" y="1342.0" type="curve" smooth="yes"/>
      <point x="946.0" y="1342.0"/>
      <point x="1120.0" y="1162.0"/>
      <point x="1120.0" y="882.0" type="curve" smooth="yes"/>
      <point x="1120.0" y="604.0"/>
      <point x="946.0" y="424.0"/>
    </contour>
    <contour>
      <point x="456.0" y="600.0" type="line"/>
      <point x="622.0" y="600.0" type="line"/>
      <point x="628.0" y="786.0" type="line"/>
      <point x="670.0" y="786.0" type="line" smooth="yes"/>
      <point x="850.0" y="786.0"/>
      <point x="934.0" y="850.0"/>
      <point x="934.0" y="988.0" type="curve" smooth="yes"/>
      <point x="934.0" y="1126.0"/>
      <point x="848.0" y="1192.0"/>
      <point x="670.0" y="1192.0" type="curve" smooth="yes"/>
      <point x="456.0" y="1192.0" type="line"/>
    </contour>
    <contour>
      <point x="628.0" y="918.0" type="line"/>
      <point x="628.0" y="1060.0" type="line"/>
      <point x="696.0" y="1060.0" type="line" smooth="yes"/>
      <point x="744.0" y="1060.0"/>
      <point x="772.0" y="1036.0"/>
      <point x="772.0" y="988.0" type="curve" smooth="yes"/>
      <point x="772.0" y="940.0"/>
      <point x="746.0" y="918.0"/>
      <point x="696.0" y="918.0" type="curve" smooth="yes"/>
    </contour>
  </outline>
</glyph>
<glyph name="macron" format="2">
  <advance width="1200.0"/>
  <unicode hex="00AF"/>
  <anchor x="600.0" y="1200.0" name="_top"/>
  <anchor x="600.0" y="1616.0" name="top"/>
  <outline>
    <contour>
      <point x="244.0" y="1296.0" type="line"/>
      <point x="956.0" y="1296.0" type="line"/>
      <point x="956.0" y="1542.0" type="line"/>
      <point x="244.0" y="1542.0" type="line"/>
    </contour>
  </outline>
</glyph>
<glyph name="degree" format="2">
  <advance width="908.0"/>
  <unicode hex="00B0"/>
  <outline>
    <contour>
      <point x="454.0" y="742.0" type="curve" smooth="yes"/>
      <point x="676.0" y="742.0"/>
      <point x="840.0" y="902.0"/>
      <point x="840.0" y="1122.0" type="curve" smooth="yes"/>
      <point x="840.0" y="1342.0"/>
      <point x="676.0" y="1500.0"/>
      <point x="454.0" y="1500.0" type="curve" smooth="yes"/>
      <point x="232.0" y="1500.0"/>
      <point x="68.0" y="1342.0"/>
      <point x="68.0" y="1122.0" type="curve" smooth="yes"/>
      <point x="68.0" y="902.0"/>
      <point x="232.0" y="742.0"/>
    </contour>
    <contour>
      <point x="454.0" y="968.0" type="curve" smooth="yes"/>
      <point x="372.0" y="968.0"/>
      <point x="310.0" y="1026.0"/>
      <point x="310.0" y="1122.0" type="curve" smooth="yes"/>
      <point x="310.0" y="1218.0"/>
      <point x="374.0" y="1274.0"/>
      <point x="454.0" y="1274.0" type="curve" smooth="yes"/>
      <point x="534.0" y="1274.0"/>
      <point x="598.0" y="1218.0"/>
      <point x="598.0" y="1122.0" type="curve" smooth="yes"/>
      <point x="598.0" y="1026.0"/>
      <point x="536.0" y="968.0"/>
    </contour>
  </outline>
</glyph>
<glyph name="threesuperior" format="2">
  <advance width="820.0"/>
  <unicode hex="00B3"/>
  <outline>
    <contour>
      <point x="310.0" y="-150.0" type="curve" smooth="yes"/>
      <point x="582.0" y="-150.0"/>
      <point x="740.0" y="-44.0"/>
      <point x="740.0" y="146.0" type="curve" smooth="yes"/>
      <point x="740.0" y="274.0"/>
      <point x="676.0" y="360.0"/>
      <point x="540.0" y="382.0" type="curve"/>
      <point x="540.0" y="374.0" type="line"/>
      <point x="648.0" y="398.0"/>
      <point x="712.0" y="484.0"/>
      <point x="712.0" y="606.0" type="curve" smooth="yes"/>
      <point x="712.0" y="780.0"/>
      <point x="580.0" y="878.0"/>
      <point x="328.0" y="878.0" type="curve" smooth="yes"/>
      <point x="244.0" y="878.0"/>
      <point x="144.0" y="864.0"/>
      <point x="80.0" y="844.0" type="curve"/>
      <point x="80.0" y="616.0" type="line"/>
      <point x="136.0" y="638.0"/>
      <point x="216.0" y="650.0"/>
      <point x="282.0" y="650.0" type="curve" smooth="yes"/>
      <point x="384.0" y="650.0"/>
      <point x="424.0" y="624.0"/>
      <point x="424.0" y="570.0" type="curve" smooth="yes"/>
      <point x="424.0" y="520.0"/>
      <point x="392.0" y="490.0"/>
      <point x="306.0" y="490.0" type="curve" smooth="yes"/>
      <point x="152.0" y="490.0" type="line"/>
      <point x="152.0" y="256.0" type="line"/>
      <point x="310.0" y="256.0" type="line" smooth="yes"/>
      <point x="412.0" y="256.0"/>
      <point x="452.0" y="230.0"/>
      <point x="452.0" y="168.0" type="curve" smooth="yes"/>
      <point x="452.0" y="106.0"/>
      <point x="412.0" y="78.0"/>
      <point x="298.0" y="78.0" type="curve" smooth="yes"/>
      <point x="232.0" y="78.0"/>
      <point x="142.0" y="88.0"/>
      <point x="72.0" y="106.0" type="curve"/>
      <point x="72.0" y="-122.0" type="line"/>
      <point x="148.0" y="-140.0"/>
      <point x="232.0" y="-150.0"/>
    </contour>
  </outline>
</glyph>
<glyph name="periodcentered" format="2">
  <advance width="544.0"/>
  <unicode hex="00B7"/>
  <anchor x="272.0" y="560.0" name="_periodcentered"/>
  <outline>
    <contour>
      <point x="272.0" y="318.0" type="curve" smooth="yes"/>
      <point x="416.0" y="318.0"/>
      <point x="518.0" y="414.0"/>
      <point x="518.0" y="560.0" type="curve" smooth="yes"/>
      <point x="518.0" y="706.0"/>
      <point x="420.0" y="802.0"/>
      <point x="272.0" y="802.0" type="curve" smooth="yes"/>
      <point x="124.0" y="802.0"/>
      <point x="26.0" y="710.0"/>
      <point x="26.0" y="560.0" type="curve" smooth="yes"/>
      <point x="26.0" y="410.0"/>
      <point x="128.0" y="318.0"/>
    </contour>
  </outline>
</glyph>
<glyph name="onesuperior" format="2">
  <advance width="820.0"/>
  <unicode hex="00B9"/>
  <outline>
    <contour>
      <point x="290.0" y="-116.0" type="line"/>
      <point x="592.0" y="-116.0" type="line"/>
      <point x="592.0" y="868.0" type="line"/>
      <point x="406.0" y="868.0" type="line"/>
      <point x="138.0" y="706.0" type="line"/>
      <point x="138.0" y="436.0" type="line"/>
      <point x="406.0" y="598.0" type="line"/>
      <point x="290.0" y="690.0" type="line"/>
    </contour>
    <contour>
      <point x="124.0" y="-136.0" type="line"/>
      <point x="750.0" y="-136.0" type="line"/>
      <point x="750.0" y="120.0" type="line"/>
      <point x="124.0" y="120.0" type="line"/>
    </contour>
  </outline>
</glyph>
<glyph name="guillemetright" format="2">
  <advance width="1182.0"/>
  <unicode hex="00BB"/>
  <outline>
    <contour>
      <point x="20.0" y="130.0" type="line"/>
      <point x="400.0" y="130.0" type="line"/>
      <point x="598.0" y="570.0" type="line"/>
      <point x="400.0" y="1010.0" type="line"/>
      <point x="20.0" y="1010.0" type="line"/>
      <point x="218.0" y="570.0" type="line"/>
    </contour>
    <contour>
      <point x="544.0" y="130.0" type="line"/>
      <point x="924.0" y="130.0" type="line"/>
      <point x="1122.0" y="570.0" type="line"/>
      <point x="924.0" y="1010.0" type="line"/>
      <point x="544.0" y="1010.0" type="line"/>
      <point x="742.0" y="570.0" type="line"/>
    </contour>
  </outline>
</glyph>
<glyph name="onequarter" format="2">
  <advance width="1986.0"/>
  <unicode hex="00BC"/>
  <outline>
    <contour>
      <point x="290.0" y="636.0" type="line"/>
      <point x="592.0" y="636.0" type="line"/>
      <point x="592.0" y="1620.0" type="line"/>
      <point x="406.0" y="1620.0" type="line"/>
      <point x="138.0" y="1458.0" type="line"/>
      <point x="138.0" y="1188.0" type="line"/>
      <point x="406.0" y="1350.0" type="line"/>
      <point x="290.0" y="1442.0" type="line"/>
    </contour>
    <contour>
      <point x="124.0" y="616.0" type="line"/>
      <point x="750.0" y="616.0" type="line"/>
      <point x="750.0" y="872.0" type="line"/>
      <point x="124.0" y="872.0" type="line"/>
    </contour>
    <contour>
      <point x="470.0" y="-136.0" type="line"/>
      <point x="786.0" y="-136.0" type="line"/>
      <point x="1516.0" y="1616.0" type="line"/>
      <point x="1200.0" y="1616.0" type="line"/>
    </contour>
    <contour>
      <point x="1190.0" y="48.0" type="line"/>
      <point x="1964.0" y="48.0" type="line"/>
      <point x="1964.0" y="272.0" type="line"/>
      <point x="1446.0" y="272.0" type="line"/>
      <point x="1480.0" y="214.0" type="line"/>
      <point x="1744.0" y="864.0" type="line"/>
      <point x="1462.0" y="864.0" type="line"/>
      <point x="1190.0" y="214.0" type="line"/>
    </contour>
    <contour>
      <point x="1602.0" y="-136.0" type="line"/>
      <point x="1862.0" y="-136.0" type="line"/>
      <point x="1862.0" y="526.0" type="line"/>
      <point x="1670.0" y="526.0" type="line"/>
      <point x="1602.0" y="272.0" type="line"/>
    </contour>
  </outline>
</glyph>
<glyph name="questiondown" format="2">
  <advance width="912.0"/>
  <unicode hex="00BF"/>
  <outline>
    <contour>
      <point x="638.0" y="568.0" type="line"/>
      <point x="402.0" y="568.0" type="line"/>
      <point x="372.0" y="408.0" type="line"/>
      <point x="164.0" y="348.0"/>
      <point x="30.0" y="208.0"/>
      <point x="30.0" y="-2.0" type="curve" smooth="yes"/>
      <point x="30.0" y="-258.0"/>
      <point x="210.0" y="-400.0"/>
      <point x="558.0" y="-400.0" type="curve" smooth="yes"/>
      <point x="674.0" y="-400.0"/>
      <point x="814.0" y="-380.0"/>
      <point x="902.0" y="-350.0" type="curve"/>
      <point x="902.0" y="-46.0" type="line"/>
      <point x="820.0" y="-76.0"/>
      <point x="710.0" y="-94.0"/>
      <point x="614.0" y="-94.0" type="curve" smooth="yes"/>
      <point x="464.0" y="-94.0"/>
      <point x="404.0" y="-50.0"/>
      <point x="404.0" y="44.0" type="curve" smooth="yes"/>
      <point x="404.0" y="134.0"/>
      <point x="464.0" y="188.0"/>
      <point x="704.0" y="232.0" type="curve"/>
    </contour>
    <contour>
      <point x="520.0" y="1120.0" type="curve" smooth="yes"/>
      <point x="376.0" y="1120.0"/>
      <point x="274.0" y="1024.0"/>
      <point x="274.0" y="884.0" type="curve" smooth="yes"/>
      <point x="274.0" y="744.0"/>
      <point x="372.0" y="648.0"/>
      <point x="520.0" y="648.0" type="curve" smooth="yes"/>
      <point x="668.0" y="648.0"/>
      <point x="766.0" y="740.0"/>
      <point x="766.0" y="884.0" type="curve" smooth="yes"/>
      <point x="766.0" y="1028.0"/>
      <point x="664.0" y="1120.0"/>
    </contour>
  </outline>
</glyph>
<glyph name="Atilde" format="2">
  <advance width="1300.0"/>
  <unicode hex="00C3"/>
  <anchor x="650.0" y="1520.0" name="_top"/>
  <anchor x="650.0" y="0.0" name="bottom"/>
  <anchor x="1308.0" y="0.0" name="ogonek"/>
  <anchor x="650.0" y="1520.0" name="top"/>
  <outline>
    <contour>
      <point x="-8.0" y="0.0" type="line"/>
      <point x="372.0" y="0.0" type="line"/>
      <point x="664.0" y="1306.0" type="line"/>
      <point x="628.0" y="1306.0" type="line"/>
      <point x="924.0" y="0.0" type="line"/>
      <point x="1308.0" y="0.0" type="line"/>
      <point x="944.0" y="1480.0" type="line"/>
      <point x="356.0" y="1480.0" type="line"/>
    </contour>
    <contour>
      <point x="246.0" y="344.0" type="line"/>
      <point x="1052.0" y="344.0" type="line"/>
      <point x="980.0" y="674.0" type="line"/>
      <point x="318.0" y="674.0" type="line"/>
    </contour>
    <contour>
      <point x="820.0" y="1586.0" type="curve" smooth="yes"/>
      <point x="912.0" y="1586.0"/>
      <point x="972.0" y="1608.0"/>
      <point x="1026.0" y="1662.0" type="curve"/>
      <point x="1026.0" y="1896.0" type="line"/>
      <point x="964.0" y="1846.0"/>
      <point x="908.0" y="1820.0"/>
      <point x="824.0" y="1820.0" type="curve" smooth="yes"/>
      <point x="710.0" y="1820.0"/>
      <point x="618.0" y="1902.0"/>
      <point x="480.0" y="1902.0" type="curve" smooth="yes"/>
      <point x="388.0" y="1902.0"/>
      <point x="328.0" y="1878.0"/>
      <point x="274.0" y="1824.0" type="curve"/>
      <point x="274.0" y="1590.0" type="line"/>
      <point x="336.0" y="1640.0"/>
      <point x="392.0" y="1666.0"/>
      <point x="476.0" y="1666.0" type="curve" smooth="yes"/>
      <point x="590.0" y="1666.0"/>
      <point x="682.0" y="1586.0"/>
    </contour>
  </outline>
</glyph>
<glyph name="Egrave" format="2">
  <advance width="1128.0"/>
  <unicode hex="00C8"/>
  <anchor x="596.0" y="1520.0" name="_top"/>
  <anchor x="596.0" y="0.0" name="bottom"/>
  <anchor x="990.0" y="0.0" name="ogonek"/>
  <anchor x="596.0" y="1520.0" name="top"/>
  <anchor x="36.0" y="1480.0" name="topleft"/>
  <outline>
    <contour>
      <point x="88.0" y="0.0" type="line"/>
      <point x="1070.0" y="0.0" type="line"/>
      <point x="1070.0" y="334.0" type="line"/>
      <point x="474.0" y="334.0" type="line"/>
      <point x="474.0" y="1146.0" type="line"/>
      <point x="1060.0" y="1146.0" type="line"/>
      <point x="1060.0" y="1480.0" type="line"/>
      <point x="88.0" y="1480.0" type="line"/>
    </contour>
    <contour>
      <point x="366.0" y="588.0" type="line"/>
      <point x="956.0" y="588.0" type="line"/>
      <point x="956.0" y="922.0" type="line"/>
      <point x="366.0" y="922.0" type="line"/>
    </contour>
    <contour>
      <point x="424.0" y="1586.0" type="line"/>
      <point x="768.0" y="1586.0" type="line"/>
      <point x="606.0" y="1902.0" type="line"/>
      <point x="206.0" y="1902.0" type="line"/>
    </contour>
  </outline>
</glyph>
<glyph name="Edieresis" format="2">
  <advance width="1128.0"/>
  <unicode hex="00CB"/>
  <anchor x="596.0" y="1520.0" name="_top"/>
  <anchor x="596.0" y="0.0" name="bottom"/>
  <anchor x="990.0" y="0.0" name="ogonek"/>
  <anchor x="596.0" y="1520.0" name="top"/>
  <anchor x="36.0" y="1480.0" name="topleft"/>
  <outline>
    <contour>
      <point x="88.0" y="0.0" type="line"/>
      <point x="1070.0" y="0.0" type="line"/>
      <point x="1070.0" y="334.0" type="line"/>
      <point x="474.0" y="334.0" type="line"/>
      <point x="474.0" y="1146.0" type="line"/>
      <point x="1060.0" y="1146.0" type="line"/>
      <point x="1060.0" y="1480.0" type="line"/>
      <point x="88.0" y="1480.0" type="line"/>
    </contour>
    <contour>
      <point x="366.0" y="588.0" type="line"/>
      <point x="956.0" y="588.0" type="line"/>
      <point x="956.0" y="922.0" type="line"/>
      <point x="366.0" y="922.0" type="line"/>
    </contour>
    <contour>
      <point x="846.0" y="1570.0" type="curve" smooth="yes"/>
      <point x="978.0" y="1570.0"/>
      <point x="1054.0" y="1634.0"/>
      <point x="1054.0" y="1750.0" type="curve" smooth="yes"/>
      <point x="1054.0" y="1866.0"/>
      <point x="978.0" y="1930.0"/>
      <point x="846.0" y="1930.0" type="curve" smooth="yes"/>
      <point x="714.0" y="1930.0"/>
      <point x="638.0" y="1866.0"/>
      <point x="638.0" y="1750.0" type="curve" smooth="yes"/>
      <point x="638.0" y="1634.0"/>
      <point x="714.0" y="1570.0"/>
    </contour>
    <contour>
      <point x="346.0" y="1570.0" type="curve" smooth="yes"/>
      <point x="478.0" y="1570.0"/>
      <point x="554.0" y="1634.0"/>
      <point x="554.0" y="1750.0" type="curve" smooth="yes"/>
      <point x="554.0" y="1866.0"/>
      <point x="478.0" y="1930.0"/>
      <point x="346.0" y="1930.0" type="curve" smooth="yes"/>
      <point x="214.0" y="1930.0"/>
      <point x="138.0" y="1866.0"/>
      <point x="138.0" y="1750.0" type="curve" smooth="yes"/>
      <point x="138.0" y="1634.0"/>
      <point x="214.0" y="1570.0"/>
    </contour>
  </outline>
</glyph>
<glyph name="Igrave" format="2">
  <advance width="568.0"/>
  <unicode hex="00CC"/>
  <anchor x="284.0" y="1520.0" name="_top"/>
  <anchor x="284.0" y="0.0" name="bottom"/>
  <anchor x="480.0" y="0.0" name="ogonek"/>
  <anchor x="284.0" y="1520.0" name="top"/>
  <outline>
    <contour>
      <point x="88.0" y="0.0" type="line"/>
      <point x="480.0" y="0.0" type="line"/>
      <point x="480.0" y="1480.0" type="line"/>
      <point x="88.0" y="1480.0" type="line"/>
    </contour>
    <contour>
      <point x="112.0" y="1586.0" type="line"/>
      <point x="456.0" y="1586.0" type="line"/>
      <point x="294.0" y="1902.0" type="line"/>
      <point x="-106.0" y="1902.0" type="line"/>
    </contour>
  </outline>
</glyph>
<glyph name="Icircumflex" format="2">
  <advance width="568.0"/>
  <unicode hex="00CE"/>
  <anchor x="284.0" y="1520.0" name="_top"/>
  <anchor x="284.0" y="0.0" name="bottom"/>
  <anchor x="480.0" y="0.0" name="ogonek"/>
  <anchor x="284.0" y="1520.0" name="top"/>
  <outline>
    <contour>
      <point x="88.0" y="0.0" type="line"/>
      <point x="480.0" y="0.0" type="line"/>
      <point x="480.0" y="1480.0" type="line"/>
      <point x="88.0" y="1480.0" type="line"/>
    </contour>
    <contour>
      <point x="-70.0" y="1586.0" type="line"/>
      <point x="186.0" y="1586.0" type="line"/>
      <point x="306.0" y="1804.0" type="line"/>
      <point x="262.0" y="1804.0" type="line"/>
      <point x="382.0" y="1586.0" type="line"/>
      <point x="638.0" y="1586.0" type="line"/>
      <point x="446.0" y="1902.0" type="line"/>
      <point x="122.0" y="1902.0" type="line"/>
    </contour>
  </outline>
</glyph>
<glyph name="Idieresis" format="2">
  <advance width="568.0"/>
  <unicode hex="00CF"/>
  <anchor x="284.0" y="1520.0" name="_top"/>
  <anchor x="284.0" y="0.0" name="bottom"/>
  <anchor x="480.0" y="0.0" name="ogonek"/>
  <anchor x="284.0" y="1520.0" name="top"/>
  <outline>
    <contour>
      <point x="88.0" y="0.0" type="line"/>
      <point x="480.0" y="0.0" type="line"/>
      <point x="480.0" y="1480.0" type="line"/>
      <point x="88.0" y="1480.0" type="line"/>
    </contour>
    <contour>
      <point x="534.0" y="1570.0" type="curve" smooth="yes"/>
      <point x="666.0" y="1570.0"/>
      <point x="742.0" y="1634.0"/>
      <point x="742.0" y="1750.0" type="curve" smooth="yes"/>
      <point x="742.0" y="1866.0"/>
      <point x="666.0" y="1930.0"/>
      <point x="534.0" y="1930.0" type="curve" smooth="yes"/>
      <point x="402.0" y="1930.0"/>
      <point x="326.0" y="1866.0"/>
      <point x="326.0" y="1750.0" type="curve" smooth="yes"/>
      <point x="326.0" y="1634.0"/>
      <point x="402.0" y="1570.0"/>
    </contour>
    <contour>
      <point x="34.0" y="1570.0" type="curve" smooth="yes"/>
      <point x="166.0" y="1570.0"/>
      <point x="242.0" y="1634.0"/>
      <point x="242.0" y="1750.0" type="curve" smooth="yes"/>
      <point x="242.0" y="1866.0"/>
      <point x="166.0" y="1930.0"/>
      <point x="34.0" y="1930.0" type="curve" smooth="yes"/>
      <point x="-98.0" y="1930.0"/>
      <point x="-174.0" y="1866.0"/>
      <point x="-174.0" y="1750.0" type="curve" smooth="yes"/>
      <point x="-174.0" y="1634.0"/>
      <point x="-98.0" y="1570.0"/>
    </contour>
  </outline>
</glyph>
<glyph name="Eth" format="2">
  <advance width="1332.0"/>
  <unicode hex="00D0"/>
  <anchor x="88.0" y="762.0" name="_stroke"/>
  <anchor x="638.0" y="0.0" name="bottom"/>
  <anchor x="652.0" y="740.0" name="center"/>
  <anchor x="88.0" y="762.0" name="stroke"/>
  <anchor x="618.0" y="1520.0" name="top"/>
  <outline>
    <contour>
      <point x="472.0" y="-20.0" type="curve" smooth="yes"/>
      <point x="1014.0" y="-20.0"/>
      <point x="1278.0" y="212.0"/>
      <point x="1278.0" y="740.0" type="curve" smooth="yes"/>
      <point x="1278.0" y="1264.0"/>
      <point x="1028.0" y="1500.0"/>
      <point x="526.0" y="1500.0" type="curve" smooth="yes"/>
      <point x="370.0" y="1500.0"/>
      <point x="224.0" y="1480.0"/>
      <point x="88.0" y="1450.0" type="curve"/>
      <point x="88.0" y="2.0" type="line"/>
      <point x="208.0" y="-12.0"/>
      <point x="348.0" y="-20.0"/>
    </contour>
    <contour>
      <point x="580.0" y="306.0" type="curve" smooth="yes"/>
      <point x="558.0" y="306.0"/>
      <point x="524.0" y="306.0"/>
      <point x="480.0" y="308.0" type="curve"/>
      <point x="480.0" y="1166.0" type="line"/>
      <point x="504.0" y="1172.0"/>
      <point x="546.0" y="1176.0"/>
      <point x="574.0" y="1176.0" type="curve" smooth="yes"/>
      <point x="756.0" y="1176.0"/>
      <point x="874.0" y="1078.0"/>
      <point x="874.0" y="740.0" type="curve" smooth="yes"/>
      <point x="874.0" y="404.0"/>
      <point x="764.0" y="306.0"/>
    </contour>
    <contour>
      <point x="0.0" y="632.0" type="line"/>
      <point x="676.0" y="632.0" type="line"/>
      <point x="676.0" y="892.0" type="line"/>
      <point x="0.0" y="892.0" type="line"/>
    </contour>
  </outline>
</glyph>
<glyph name="Ntilde" format="2">
  <advance width="1380.0"/>
  <unicode hex="00D1"/>
  <anchor x="690.0" y="1520.0" name="_top"/>
  <anchor x="690.0" y="0.0" name="bottom"/>
  <anchor x="690.0" y="1520.0" name="top"/>
  <outline>
    <contour>
      <point x="88.0" y="0.0" type="line"/>
      <point x="454.0" y="0.0" type="line"/>
      <point x="454.0" y="930.0" type="line"/>
      <point x="396.0" y="930.0" type="line"/>
      <point x="902.0" y="0.0" type="line"/>
      <point x="1292.0" y="0.0" type="line"/>
      <point x="1292.0" y="1480.0" type="line"/>
      <point x="926.0" y="1480.0" type="line"/>
      <point x="926.0" y="550.0" type="line"/>
      <point x="984.0" y="550.0" type="line"/>
      <point x="478.0" y="1480.0" type="line"/>
      <point x="88.0" y="1480.0" type="line"/>
    </contour>
    <contour>
      <point x="860.0" y="1586.0" type="curve" smooth="yes"/>
      <point x="952.0" y="1586.0"/>
      <point x="1012.0" y="1608.0"/>
      <point x="1066.0" y="1662.0" type="curve"/>
      <point x="1066.0" y="1896.0" type="line"/>
      <point x="1004.0" y="1846.0"/>
      <point x="948.0" y="1820.0"/>
      <point x="864.0" y="1820.0" type="curve" smooth="yes"/>
      <point x="750.0" y="1820.0"/>
      <point x="658.0" y="1902.0"/>
      <point x="520.0" y="1902.0" type="curve" smooth="yes"/>
      <point x="428.0" y="1902.0"/>
      <point x="368.0" y="1878.0"/>
      <point x="314.0" y="1824.0" type="curve"/>
      <point x="314.0" y="1590.0" type="line"/>
      <point x="376.0" y="1640.0"/>
      <point x="432.0" y="1666.0"/>
      <point x="516.0" y="1666.0" type="curve" smooth="yes"/>
      <point x="630.0" y="1666.0"/>
      <point x="722.0" y="1586.0"/>
    </contour>
  </outline>
</glyph>
<glyph name="Oacute" format="2">
  <advance width="1396.0"/>
  <unicode hex="00D3"/>
  <anchor x="698.0" y="1520.0" name="_top"/>
  <anchor x="698.0" y="0.0" name="bottom"/>
  <anchor x="698.0" y="740.0" name="center"/>
  <anchor x="890.0" y="0.0" name="ogonek"/>
  <anchor x="698.0" y="1520.0" name="top"/>
  <anchor x="42.0" y="1480.0" name="topleft"/>
  <anchor x="882.0" y="1480.0" name="topright"/>
  <outline>
    <contour>
      <point x="698.0" y="-20.0" type="curve" smooth="yes"/>
      <point x="1078.0" y="-20.0"/>
      <point x="1342.0" y="204.0"/>
      <point x="1342.0" y="740.0" type="curve" smooth="yes"/>
      <point x="1342.0" y="1276.0"/>
      <point x="1078.0" y="1500.0"/>
      <point x="698.0" y="1500.0" type="curve" smooth="yes"/>
      <point x="318.0" y="1500.0"/>
      <point x="54.0" y="1276.0"/>
      <point x="54.0" y="740.0" type="curve" smooth="yes"/>
      <point x="54.0" y="204.0"/>
      <point x="318.0" y="-20.0"/>
    </contour>
    <contour>
      <point x="698.0" y="304.0" type="curve" smooth="yes"/>
      <point x="544.0" y="304.0"/>
      <point x="458.0" y="414.0"/>
      <point x="458.0" y="748.0" type="curve" smooth="yes"/>
      <point x="458.0" y="1066.0"/>
      <point x="544.0" y="1176.0"/>
      <point x="698.0" y="1176.0" type="curve" smooth="yes"/>
      <point x="852.0" y="1176.0"/>
      <point x="938.0" y="1066.0"/>
      <point x="938.0" y="732.0" type="curve" smooth="yes"/>
      <point x="938.0" y="414.0"/>
      <point x="852.0" y="304.0"/>
    </contour>
    <contour>
      <point x="526.0" y="1586.0" type="line"/>
      <point x="870.0" y="1586.0" type="line"/>
      <point x="1088.0" y="1902.0" type="line"/>
      <point x="688.0" y="1902.0" type="line"/>
    </contour>
  </outline>
</glyph>
<glyph name="Otilde" format="2">
  <advance width="1396.0"/>
  <unicode hex="00D5"/>
  <anchor x="698.0" y="1520.0" name="_top"/>
  <anchor x="698.0" y="0.0" name="bottom"/>
  <anchor x="698.0" y="740.0" name="center"/>
  <anchor x="890.0" y="0.0" name="ogonek"/>
  <anchor x="698.0" y="1520.0" name="top"/>
  <anchor x="42.0" y="1480.0" name="topleft"/>
  <anchor x="882.0" y="1480.0" name="topright"/>
  <outline>
    <contour>
      <point x="698.0" y="-20.0" type="curve" smooth="yes"/>
      <point x="1078.0" y="-20.0"/>
      <point x="1342.0" y="204.0"/>
      <point x="1342.0" y="740.0" type="curve" smooth="yes"/>
      <point x="1342.0" y="1276.0"/>
      <point x="1078.0" y="1500.0"/>
      <point x="698.0" y="1500.0" type="curve" smooth="yes"/>
      <point x="318.0" y="1500.0"/>
      <point x="54.0" y="1276.0"/>
      <point x="54.0" y="740.0" type="curve" smooth="yes"/>
      <point x="54.0" y="204.0"/>
      <point x="318.0" y="-20.0"/>
    </contour>
    <contour>
      <point x="698.0" y="304.0" type="curve" smooth="yes"/>
      <point x="544.0" y="304.0"/>
      <point x="458.0" y="414.0"/>
      <point x="458.0" y="748.0" type="curve" smooth="yes"/>
      <point x="458.0" y="1066.0"/>
      <point x="544.0" y="1176.0"/>
      <point x="698.0" y="1176.0" type="curve" smooth="yes"/>
      <point x="852.0" y="1176.0"/>
      <point x="938.0" y="1066.0"/>
      <point x="938.0" y="732.0" type="curve" smooth="yes"/>
      <point x="938.0" y="414.0"/>
      <point x="852.0" y="304.0"/>
    </contour>
    <contour>
      <point x="868.0" y="1586.0" type="curve" smooth="yes"/>
      <point x="960.0" y="1586.0"/>
      <point x="1020.0" y="1608.0"/>
      <point x="1074.0" y="1662.0" type="curve"/>
      <point x="1074.0" y="1896.0" type="line"/>
      <point x="1012.0" y="1846.0"/>
      <point x="956.0" y="1820.0"/>
      <point x="872.0" y="1820.0" type="curve" smooth="yes"/>
      <point x="758.0" y="1820.0"/>
      <point x="666.0" y="1902.0"/>
      <point x="528.0" y="1902.0" type="curve" smooth="yes"/>
      <point x="436.0" y="1902.0"/>
      <point x="376.0" y="1878.0"/>
      <point x="322.0" y="1824.0" type="curve"/>
      <point x="322.0" y="1590.0" type="line"/>
      <point x="384.0" y="1640.0"/>
      <point x="440.0" y="1666.0"/>
      <point x="524.0" y="1666.0" type="curve" smooth="yes"/>
      <point x="638.0" y="1666.0"/>
      <point x="730.0" y="1586.0"/>
    </contour>
  </outline>
</glyph>
<glyph name="Odieresis" format="2">
  <advance width="1396.0"/>
  <unicode hex="00D6"/>
  <anchor x="698.0" y="1520.0" name="_top"/>
  <anchor x="698.0" y="0.0" name="bottom"/>
  <anchor x="698.0" y="740.0" name="center"/>
  <anchor x="890.0" y="0.0" name="ogonek"/>
  <anchor x="698.0" y="1520.0" name="top"/>
  <anchor x="42.0" y="1480.0" name="topleft"/>
  <anchor x="882.0" y="1480.0" name="topright"/>
  <outline>
    <contour>
      <point x="698.0" y="-20.0" type="curve" smooth="yes"/>
      <point x="1078.0" y="-20.0"/>
      <point x="1342.0" y="204.0"/>
      <point x="1342.0" y="740.0" type="curve" smooth="yes"/>
      <point x="1342.0" y="1276.0"/>
      <point x="1078.0" y="1500.0"/>
      <point x="698.0" y="1500.0" type="curve" smooth="yes"/>
      <point x="318.0" y="1500.0"/>
      <point x="54.0" y="1276.0"/>
      <point x="54.0" y="740.0" type="curve" smooth="yes"/>
      <point x="54.0" y="204.0"/>
      <point x="318.0" y="-20.0"/>
    </contour>
    <contour>
      <point x="698.0" y="304.0" type="curve" smooth="yes"/>
      <point x="544.0" y="304.0"/>
      <point x="458.0" y="414.0"/>
      <point x="458.0" y="748.0" type="curve" smooth="yes"/>
      <point x="458.0" y="1066.0"/>
      <point x="544.0" y="1176.0"/>
      <point x="698.0" y="1176.0" type="curve" smooth="yes"/>
      <point x="852.0" y="1176.0"/>
      <point x="938.0" y="1066.0"/>
      <point x="938.0" y="732.0" type="curve" smooth="yes"/>
      <point x="938.0" y="414.0"/>
      <point x="852.0" y="304.0"/>
    </contour>
    <contour>
      <point x="948.0" y="1570.0" type="curve" smooth="yes"/>
      <point x="1080.0" y="1570.0"/>
      <point x="1156.0" y="1634.0"/>
      <point x="1156.0" y="1750.0" type="curve" smooth="yes"/>
      <point x="1156.0" y="1866.0"/>
      <point x="1080.0" y="1930.0"/>
      <point x="948.0" y="1930.0" type="curve" smooth="yes"/>
      <point x="816.0" y="1930.0"/>
      <point x="740.0" y="1866.0"/>
      <point x="740.0" y="1750.0" type="curve" smooth="yes"/>
      <point x="740.0" y="1634.0"/>
      <point x="816.0" y="1570.0"/>
    </contour>
    <contour>
      <point x="448.0" y="1570.0" type="curve" smooth="yes"/>
      <point x="580.0" y="1570.0"/>
      <point x="656.0" y="1634.0"/>
      <point x="656.0" y="1750.0" type="curve" smooth="yes"/>
      <point x="656.0" y="1866.0"/>
      <point x="580.0" y="1930.0"/>
      <point x="448.0" y="1930.0" type="curve" smooth="yes"/>
      <point x="316.0" y="1930.0"/>
      <point x="240.0" y="1866.0"/>
      <point x="240.0" y="1750.0" type="curve" smooth="yes"/>
      <point x="240.0" y="1634.0"/>
      <point x="316.0" y="1570.0"/>
    </contour>
  </outline>
</glyph>
<glyph name="multiply" format="2">
  <advance width="1008.0"/>
  <unicode hex="00D7"/>
  <outline>
    <contour>
      <point x="270.0" y="314.0" type="line"/>
      <point x="504.0" y="548.0" type="line"/>
      <point x="738.0" y="314.0" type="line"/>
      <point x="950.0" y="526.0" type="line"/>
      <point x="716.0" y="760.0" type="line"/>
      <point x="950.0" y="994.0" type="line"/>
      <point x="738.0" y="1206.0" type="line"/>
      <point x="504.0" y="972.0" type="line"/>
      <point x="270.0" y="1206.0" type="line"/>
      <point x="58.0" y="994.0" type="line"/>
      <point x="292.0" y="760.0" type="line"/>
      <point x="58.0" y="526.0" type="line"/>
    </contour>
  </outline>
</glyph>
<glyph name="Udieresis" format="2">
  <advance width="1338.0"/>
  <unicode hex="00DC"/>
  <anchor x="674.0" y="1520.0" name="_top"/>
  <anchor x="674.0" y="0.0" name="bottom"/>
  <anchor x="926.0" y="0.0" name="ogonek"/>
  <anchor x="674.0" y="1520.0" name="top"/>
  <anchor x="940.0" y="1480.0" name="topright"/>
  <outline>
    <contour>
      <point x="674.0" y="-20.0" type="curve" smooth="yes"/>
      <point x="1064.0" y="-20.0"/>
      <point x="1256.0" y="158.0"/>
      <point x="1256.0" y="604.0" type="curve" smooth="yes"/>
      <point x="1256.0" y="1480.0" type="line"/>
      <point x="872.0" y="1480.0" type="line"/>
      <point x="872.0" y="560.0" type="line" smooth="yes"/>
      <point x="872.0" y="370.0"/>
      <point x="798.0" y="308.0"/>
      <point x="674.0" y="308.0" type="curve" smooth="yes"/>
      <point x="550.0" y="308.0"/>
      <point x="474.0" y="370.0"/>
      <point x="474.0" y="560.0" type="curve" smooth="yes"/>
      <point x="474.0" y="1480.0" type="line"/>
      <point x="82.0" y="1480.0" type="line"/>
      <point x="82.0" y="604.0" type="line" smooth="yes"/>
      <point x="82.0" y="158.0"/>
      <point x="280.0" y="-20.0"/>
    </contour>
    <contour>
      <point x="924.0" y="1570.0" type="curve" smooth="yes"/>
      <point x="1056.0" y="1570.0"/>
      <point x="1132.0" y="1634.0"/>
      <point x="1132.0" y="1750.0" type="curve" smooth="yes"/>
      <point x="1132.0" y="1866.0"/>
      <point x="1056.0" y="1930.0"/>
      <point x="924.0" y="1930.0" type="curve" smooth="yes"/>
      <point x="792.0" y="1930.0"/>
      <point x="716.0" y="1866.0"/>
      <point x="716.0" y="1750.0" type="curve" smooth="yes"/>
      <point x="716.0" y="1634.0"/>
      <point x="792.0" y="1570.0"/>
    </contour>
    <contour>
      <point x="424.0" y="1570.0" type="curve" smooth="yes"/>
      <point x="556.0" y="1570.0"/>
      <point x="632.0" y="1634.0"/>
      <point x="632.0" y="1750.0" type="curve" smooth="yes"/>
      <point x="632.0" y="1866.0"/>
      <point x="556.0" y="1930.0"/>
      <point x="424.0" y="1930.0" type="curve" smooth="yes"/>
      <point x="292.0" y="1930.0"/>
      <point x="216.0" y="1866.0"/>
      <point x="216.0" y="1750.0" type="curve" smooth="yes"/>
      <point x="216.0" y="1634.0"/>
      <point x="292.0" y="1570.0"/>
    </contour>
  </outline>
</glyph>
<glyph name="Thorn" format="2">
  <advance width="1228.0"/>
  <unicode hex="00DE"/>
  <outline>
    <contour>
      <point x="88.0" y="0.0" type="line"/>
      <point x="480.0" y="0.0" type="line"/>
      <point x="480.0" y="210.0" type="line"/>
      <point x="514.0" y="210.0"/>
      <point x="538.0" y="208.0"/>
      <point x="578.0" y="208.0" type="curve" smooth="yes"/>
      <point x="958.0" y="208.0"/>
      <point x="1172.0" y="394.0"/>
      <point x="1172.0" y="760.0" type="curve" smooth="yes"/>
      <point x="1172.0" y="1144.0"/>
      <point x="956.0" y="1314.0"/>
      <point x="534.0" y="1314.0" type="curve" smooth="yes"/>
      <point x="518.0" y="1314.0"/>
      <point x="496.0" y="1312.0"/>
      <point x="480.0" y="1312.0" type="curve"/>
      <point x="480.0" y="1480.0" type="line"/>
      <point x="88.0" y="1480.0" type="line"/>
    </contour>
    <contour>
      <point x="578.0" y="522.0" type="curve" smooth="yes"/>
      <point x="538.0" y="522.0"/>
      <point x="510.0" y="524.0"/>
      <point x="480.0" y="528.0" type="curve"/>
      <point x="480.0" y="992.0" type="line"/>
      <point x="506.0" y="998.0"/>
      <point x="528.0" y="1000.0"/>
      <point x="568.0" y="1000.0" type="curve" smooth="yes"/>
      <point x="720.0" y="1000.0"/>
      <point x="792.0" y="928.0"/>
      <point x="792.0" y="756.0" type="curve" smooth="yes"/>
      <point x="792.0" y="584.0"/>
      <point x="720.0" y="522.0"/>
    </contour>
  </outline>
</glyph>
<glyph name="eacute" format="2">
  <advance width="998.0"/>
  <unicode hex="00E9"/>
  <anchor x="514.0" y="1200.0" name="_top"/>
  <anchor x="514.0" y="0.0" name="bottom"/>
  <anchor x="906.0" y="0.0" name="ogonek"/>
  <anchor x="514.0" y="1200.0" name="top"/>
  <outline>
    <contour>
      <point x="614.0" y="-22.0" type="curve" smooth="yes"/>
      <point x="718.0" y="-22.0"/>
      <point x="806.0" y="-10.0"/>
      <point x="914.0" y="14.0" type="curve"/>
      <point x="914.0" y="318.0" type="line"/>
      <point x="830.0" y="298.0"/>
      <point x="746.0" y="284.0"/>
      <point x="664.0" y="284.0" type="curve" smooth="yes"/>
      <point x="476.0" y="284.0"/>
      <point x="430.0" y="328.0"/>
      <point x="430.0" y="472.0" type="curve" smooth="yes"/>
      <point x="430.0" y="646.0" type="line" smooth="yes"/>
      <point x="430.0" y="830.0"/>
      <point x="456.0" y="870.0"/>
      <point x="522.0" y="870.0" type="curve" smooth="yes"/>
      <point x="586.0" y="870.0"/>
      <point x="610.0" y="830.0"/>
      <point x="610.0" y="646.0" type="curve"/>
      <point x="664.0" y="662.0" type="line"/>
      <point x="324.0" y="662.0" type="line"/>
      <point x="324.0" y="434.0" type="line"/>
      <point x="968.0" y="434.0" type="line"/>
      <point x="968.0" y="544.0" type="line" smooth="yes"/>
      <point x="968.0" y="910.0"/>
      <point x="820.0" y="1118.0"/>
      <point x="524.0" y="1118.0" type="curve" smooth="yes"/>
      <point x="208.0" y="1118.0"/>
      <point x="40.0" y="910.0"/>
      <point x="40.0" y="556.0" type="curve" smooth="yes"/>
      <point x="40.0" y="150.0"/>
      <point x="206.0" y="-22.0"/>
    </contour>
    <contour>
      <point x="346.0" y="1220.0" type="line"/>
      <point x="682.0" y="1220.0" type="line"/>
      <point x="942.0" y="1616.0" type="line"/>
      <point x="554.0" y="1616.0" type="line"/>
    </contour>
  </outline>
</glyph>
<glyph name="icircumflex" format="2">
  <advance width="544.0"/>
  <unicode hex="00EE"/>
  <anchor x="272.0" y="1200.0" name="_top"/>
  <anchor x="272.0" y="0.0" name="bottom"/>
  <anchor x="466.0" y="0.0" name="ogonek"/>
  <anchor x="272.0" y="1200.0" name="top"/>
  <outline>
    <contour>
      <point x="78.0" y="0.0" type="line"/>
      <point x="466.0" y="0.0" type="line"/>
      <point x="466.0" y="1100.0" type="line"/>
      <point x="78.0" y="1100.0" type="line"/>
    </contour>
    <contour>
      <point x="-82.0" y="1220.0" type="line"/>
      <point x="174.0" y="1220.0" type="line"/>
      <point x="294.0" y="1492.0" type="line"/>
      <point x="250.0" y="1492.0" type="line"/>
      <point x="370.0" y="1220.0" type="line"/>
      <point x="626.0" y="1220.0" type="line"/>
      <point x="434.0" y="1616.0" type="line"/>
      <point x="110.0" y="1616.0" type="line"/>
    </contour>
  </outline>
</glyph>
<glyph name="idieresis" format="2">
  <advance width="544.0"/>
  <unicode hex="00EF"/>
  <anchor x="272.0" y="1200.0" name="_top"/>
  <anchor x="272.0" y="0.0" name="bottom"/>
  <anchor x="466.0" y="0.0" name="ogonek"/>
  <anchor x="272.0" y="1200.0" name="top"/>
  <outline>
    <contour>
      <point x="78.0" y="0.0" type="line"/>
      <point x="466.0" y="0.0" type="line"/>
      <point x="466.0" y="1100.0" type="line"/>
      <point x="78.0" y="1100.0" type="line"/>
    </contour>
    <contour>
      <point x="514.0" y="1220.0" type="curve" smooth="yes"/>
      <point x="638.0" y="1220.0"/>
      <point x="718.0" y="1294.0"/>
      <point x="718.0" y="1418.0" type="curve" smooth="yes"/>
      <point x="718.0" y="1542.0"/>
      <point x="638.0" y="1616.0"/>
      <point x="514.0" y="1616.0" type="curve" smooth="yes"/>
      <point x="390.0" y="1616.0"/>
      <point x="310.0" y="1542.0"/>
      <point x="310.0" y="1418.0" type="curve" smooth="yes"/>
      <point x="310.0" y="1294.0"/>
      <point x="390.0" y="1220.0"/>
    </contour>
    <contour>
      <point x="30.0" y="1220.0" type="curve" smooth="yes"/>
      <point x="154.0" y="1220.0"/>
      <point x="234.0" y="1294.0"/>
      <point x="234.0" y="1418.0" type="curve" smooth="yes"/>
      <point x="234.0" y="1542.0"/>
      <point x="154.0" y="1616.0"/>
      <point x="30.0" y="1616.0" type="curve" smooth="yes"/>
      <point x="-94.0" y="1616.0"/>
      <point x="-174.0" y="1542.0"/>
      <point x="-174.0" y="1418.0" type="curve" smooth="yes"/>
      <point x="-174.0" y="1294.0"/>
      <point x="-94.0" y="1220.0"/>
    </contour>
  </outline>
</glyph>
<glyph name="ntilde" format="2">
  <advance width="1098.0"/>
  <unicode hex="00F1"/>
  <anchor x="552.0" y="1200.0" name="_top"/>
  <anchor x="10.0" y="1200.0" name="apostrophe"/>
  <anchor x="552.0" y="0.0" name="bottom"/>
  <anchor x="552.0" y="1200.0" name="top"/>
  <outline>
    <contour>
      <point x="78.0" y="0.0" type="line"/>
      <point x="464.0" y="0.0" type="line"/>
      <point x="464.0" y="736.0" type="line"/>
      <point x="486.0" y="760.0"/>
      <point x="522.0" y="776.0"/>
      <point x="560.0" y="776.0" type="curve" smooth="yes"/>
      <point x="606.0" y="776.0"/>
      <point x="638.0" y="754.0"/>
      <point x="638.0" y="678.0" type="curve" smooth="yes"/>
      <point x="638.0" y="0.0" type="line"/>
      <point x="1024.0" y="0.0" type="line"/>
      <point x="1024.0" y="708.0" type="line" smooth="yes"/>
      <point x="1024.0" y="1008.0"/>
      <point x="886.0" y="1118.0"/>
      <point x="706.0" y="1118.0" type="curve" smooth="yes"/>
      <point x="594.0" y="1118.0"/>
      <point x="506.0" y="1074.0"/>
      <point x="442.0" y="988.0" type="curve"/>
      <point x="426.0" y="988.0" type="line"/>
      <point x="398.0" y="1100.0" type="line"/>
      <point x="78.0" y="1100.0" type="line"/>
    </contour>
    <contour>
      <point x="710.0" y="1250.0" type="curve" smooth="yes"/>
      <point x="794.0" y="1250.0"/>
      <point x="854.0" y="1274.0"/>
      <point x="908.0" y="1332.0" type="curve"/>
      <point x="908.0" y="1582.0" type="line"/>
      <point x="846.0" y="1520.0"/>
      <point x="790.0" y="1492.0"/>
      <point x="714.0" y="1492.0" type="curve" smooth="yes"/>
      <point x="612.0" y="1492.0"/>
      <point x="520.0" y="1588.0"/>
      <point x="394.0" y="1588.0" type="curve" smooth="yes"/>
      <point x="310.0" y="1588.0"/>
      <point x="250.0" y="1564.0"/>
      <point x="196.0" y="1506.0" type="curve"/>
      <point x="196.0" y="1256.0" type="line"/>
      <point x="258.0" y="1318.0"/>
      <point x="314.0" y="1346.0"/>
      <point x="390.0" y="1346.0" type="curve" smooth="yes"/>
      <point x="492.0" y="1346.0"/>
      <point x="584.0" y="1250.0"/>
    </contour>
  </outline>
</glyph>
<glyph name="odieresis" format="2">
  <advance width="1068.0"/>
  <unicode hex="00F6"/>
  <anchor x="534.0" y="1200.0" name="_top"/>
  <anchor x="534.0" y="0.0" name="bottom"/>
  <anchor x="534.0" y="550.0" name="center"/>
  <anchor x="706.0" y="0.0" name="ogonek"/>
  <anchor x="534.0" y="1200.0" name="top"/>
  <anchor x="534.0" y="1100.0" name="topright"/>
  <outline>
    <contour>
      <point x="534.0" y="-22.0" type="curve" smooth="yes"/>
      <point x="850.0" y="-22.0"/>
      <point x="1028.0" y="158.0"/>
      <point x="1028.0" y="546.0" type="curve" smooth="yes"/>
      <point x="1028.0" y="926.0"/>
      <point x="850.0" y="1118.0"/>
      <point x="534.0" y="1118.0" type="curve" smooth="yes"/>
      <point x="218.0" y="1118.0"/>
      <point x="40.0" y="936.0"/>
      <point x="40.0" y="542.0" type="curve" smooth="yes"/>
      <point x="40.0" y="158.0"/>
      <point x="218.0" y="-22.0"/>
    </contour>
    <contour>
      <point x="534.0" y="262.0" type="curve" smooth="yes"/>
      <point x="466.0" y="262.0"/>
      <point x="434.0" y="302.0"/>
      <point x="434.0" y="546.0" type="curve" smooth="yes"/>
      <point x="434.0" y="790.0"/>
      <point x="470.0" y="834.0"/>
      <point x="534.0" y="834.0" type="curve" smooth="yes"/>
      <point x="598.0" y="834.0"/>
      <point x="634.0" y="790.0"/>
      <point x="634.0" y="542.0" type="curve" smooth="yes"/>
      <point x="634.0" y="302.0"/>
      <point x="602.0" y="262.0"/>
    </contour>
    <contour>
      <point x="776.0" y="1220.0" type="curve" smooth="yes"/>
      <point x="900.0" y="1220.0"/>
      <point x="980.0" y="1294.0"/>
      <point x="980.0" y="1418.0" type="curve" smooth="yes"/>
      <point x="980.0" y="1542.0"/>
      <point x="900.0" y="1616.0"/>
      <point x="776.0" y="1616.0" type="curve" smooth="yes"/>
      <point x="652.0" y="1616.0"/>
      <point x="572.0" y="1542.0"/>
      <point x="572.0" y="1418.0" type="curve" smooth="yes"/>
      <point x="572.0" y="1294.0"/>
      <point x="652.0" y="1220.0"/>
    </contour>
    <contour>
      <point x="292.0" y="1220.0" type="curve" smooth="yes"/>
      <point x="416.0" y="1220.0"/>
      <point x="496.0" y="1294.0"/>
      <point x="496.0" y="1418.0" type="curve" smooth="yes"/>
      <point x="496.0" y="1542.0"/>
      <point x="416.0" y="1616.0"/>
      <point x="292.0" y="1616.0" type="curve" smooth="yes"/>
      <point x="168.0" y="1616.0"/>
      <point x="88.0" y="1542.0"/>
      <point x="88.0" y="1418.0" type="curve" smooth="yes"/>
      <point x="88.0" y="1294.0"/>
      <point x="168.0" y="1220.0"/>
    </contour>
  </outline>
</glyph>
<glyph name="udieresis" format="2">
  <advance width="1090.0"/>
  <unicode hex="00FC"/>
  <anchor x="544.0" y="1200.0" name="_top"/>
  <anchor x="544.0" y="0.0" name="bottom"/>
  <anchor x="1012.0" y="0.0" name="ogonek"/>
  <anchor x="544.0" y="1200.0" name="top"/>
  <anchor x="700.0" y="1100.0" name="topright"/>
  <outline>
    <contour>
      <point x="388.0" y="-20.0" type="curve" smooth="yes"/>
      <point x="496.0" y="-20.0"/>
      <point x="580.0" y="24.0"/>
      <point x="648.0" y="112.0" type="curve"/>
      <point x="664.0" y="112.0" type="line"/>
      <point x="692.0" y="0.0" type="line"/>
      <point x="1012.0" y="0.0" type="line"/>
      <point x="1012.0" y="1100.0" type="line"/>
      <point x="626.0" y="1100.0" type="line"/>
      <point x="626.0" y="362.0" type="line"/>
      <point x="604.0" y="338.0"/>
      <point x="564.0" y="322.0"/>
      <point x="534.0" y="322.0" type="curve" smooth="yes"/>
      <point x="492.0" y="322.0"/>
      <point x="460.0" y="346.0"/>
      <point x="460.0" y="422.0" type="curve" smooth="yes"/>
      <point x="460.0" y="1100.0" type="line"/>
      <point x="74.0" y="1100.0" type="line"/>
      <point x="74.0" y="386.0" type="line" smooth="yes"/>
      <point x="74.0" y="88.0"/>
      <point x="212.0" y="-20.0"/>
    </contour>
    <contour>
      <point x="786.0" y="1220.0" type="curve" smooth="yes"/>
      <point x="910.0" y="1220.0"/>
      <point x="990.0" y="1294.0"/>
      <point x="990.0" y="1418.0" type="curve" smooth="yes"/>
      <point x="990.0" y="1542.0"/>
      <point x="910.0" y="1616.0"/>
      <point x="786.0" y="1616.0" type="curve" smooth="yes"/>
      <point x="662.0" y="1616.0"/>
      <point x="582.0" y="1542.0"/>
      <point x="582.0" y="1418.0" type="curve" smooth="yes"/>
      <point x="582.0" y="1294.0"/>
      <point x="662.0" y="1220.0"/>
    </contour>
    <contour>
      <point x="302.0" y="1220.0" type="curve" smooth="yes"/>
      <point x="426.0" y="1220.0"/>
      <point x="506.0" y="1294.0"/>
      <point x="506.0" y="1418.0" type="curve" smooth="yes"/>
      <point x="506.0" y="1542.0"/>
      <point x="426.0" y="1616.0"/>
      <point x="302.0" y="1616.0" type="curve" smooth="yes"/>
      <point x="178.0" y="1616.0"/>
      <point x="98.0" y="1542.0"/>
      <point x="98.0" y="1418.0" type="curve" smooth="yes"/>
      <point x="98.0" y="1294.0"/>
      <point x="178.0" y="1220.0"/>
    </contour>
  </outline>
</glyph>
<glyph name="Abreve" format="2">
  <advance width="1300.0"/>
  <unicode hex="0102"/>
  <anchor x="650.0" y="1520.0" name="_top"/>
  <anchor x="650.0" y="0.0" name="bottom"/>
  <anchor x="1308.0" y="0.0" name="ogonek"/>
  <anchor x="650.0" y="1520.0" name="top"/>
  <outline>
    <contour>
      <point x="-8.0" y="0.0" type="line"/>
      <point x="372.0" y="0.0" type="line"/>
      <point x="664.0" y="1306.0" type="line"/>
      <point x="628.0" y="1306.0" type="line"/>
      <point x="924.0" y="0.0" type="line"/>
      <point x="1308.0" y="0.0" type="line"/>
      <point x="944.0" y="1480.0" type="line"/>
      <point x="356.0" y="1480.0" type="line"/>
    </contour>
    <contour>
      <point x="246.0" y="344.0" type="line"/>
      <point x="1052.0" y="344.0" type="line"/>
      <point x="980.0" y="674.0" type="line"/>
      <point x="318.0" y="674.0" type="line"/>
    </contour>
    <contour>
      <point x="650.0" y="1586.0" type="curve" smooth="yes"/>
      <point x="864.0" y="1586.0"/>
      <point x="996.0" y="1698.0"/>
      <point x="1016.0" y="1902.0" type="curve"/>
      <point x="784.0" y="1902.0" type="line"/>
      <point x="772.0" y="1808.0"/>
      <point x="728.0" y="1772.0"/>
      <point x="650.0" y="1772.0" type="curve" smooth="yes"/>
      <point x="572.0" y="1772.0"/>
      <point x="528.0" y="1808.0"/>
      <point x="516.0" y="1902.0" type="curve"/>
      <point x="284.0" y="1902.0" type="line"/>
      <point x="304.0" y="1698.0"/>
      <point x="436.0" y="1586.0"/>
    </contour>
  </outline>
</glyph>
<glyph name="aogonek" format="2">
  <advance width="1008.0"/>
  <unicode hex="0105"/>
  <anchor x="934.0" y="0.0" name="_ogonek"/>
  <anchor x="502.0" y="0.0" name="bottom"/>
  <anchor x="934.0" y="0.0" name="ogonek"/>
  <anchor x="502.0" y="1200.0" name="top"/>
  <outline>
    <contour>
      <point x="344.0" y="-22.0" type="curve" smooth="yes"/>
      <point x="446.0" y="-22.0"/>
      <point x="532.0" y="14.0"/>
      <point x="578.0" y="112.0" type="curve"/>
      <point x="594.0" y="112.0" type="line"/>
      <point x="622.0" y="0.0" type="line"/>
      <point x="934.0" y="0.0" type="line"/>
      <point x="934.0" y="646.0" type="line" smooth="yes"/>
      <point x="934.0" y="996.0"/>
      <point x="790.0" y="1118.0"/>
      <point x="452.0" y="1118.0" type="curve" smooth="yes"/>
      <point x="344.0" y="1118.0"/>
      <point x="216.0" y="1104.0"/>
      <point x="116.0" y="1080.0" type="curve"/>
      <point x="116.0" y="776.0" type="line"/>
      <point x="200.0" y="800.0"/>
      <point x="296.0" y="812.0"/>
      <point x="374.0" y="812.0" type="curve" smooth="yes"/>
      <point x="520.0" y="812.0"/>
      <point x="560.0" y="772.0"/>
      <point x="560.0" y="664.0" type="curve" smooth="yes"/>
      <point x="560.0" y="284.0" type="line"/>
      <point x="536.0" y="266.0"/>
      <point x="510.0" y="260.0"/>
      <point x="486.0" y="260.0" type="curve" smooth="yes"/>
      <point x="438.0" y="260.0"/>
      <point x="404.0" y="290.0"/>
      <point x="404.0" y="350.0" type="curve" smooth="yes"/>
      <point x="404.0" y="414.0"/>
      <point x="442.0" y="452.0"/>
      <point x="514.0" y="456.0" type="curve" smooth="yes"/>
      <point x="650.0" y="464.0" type="line"/>
      <point x="598.0" y="678.0" type="line"/>
      <point x="466.0" y="670.0" type="line" smooth="yes"/>
      <point x="152.0" y="650.0"/>
      <point x="30.0" y="524.0"/>
      <point x="30.0" y="306.0" type="curve" smooth="yes"/>
      <point x="30.0" y="108.0"/>
      <point x="158.0" y="-22.0"/>
    </contour>
    <contour>
      <point x="764.0" y="-460.0" type="curve" smooth="yes"/>
      <point x="838.0" y="-460.0"/>
      <point x="888.0" y="-446.0"/>
      <point x="934.0" y="-430.0" type="curve"/>
      <point x="934.0" y="-280.0" type="line"/>
      <point x="886.0" y="-298.0"/>
      <point x="848.0" y="-306.0"/>
      <point x="816.0" y="-306.0" type="curve" smooth="yes"/>
      <point x="744.0" y="-306.0"/>
      <point x="708.0" y="-272.0"/>
      <point x="708.0" y="-216.0" type="curve" smooth="yes"/>
      <point x="708.0" y="-144.0"/>
      <point x="746.0" y="-72.0"/>
      <point x="934.0" y="0.0" type="curve"/>
      <point x="822.0" y="86.0" type="line"/>
      <point x="568.0" y="-8.0"/>
      <point x="492.0" y="-104.0"/>
      <point x="492.0" y="-238.0" type="curve" smooth="yes"/>
      <point x="492.0" y="-374.0"/>
      <point x="584.0" y="-460.0"/>
    </contour>
  </outline>
</glyph>
<glyph name="Ccircumflex" format="2">
  <advance width="1102.0"/>
  <unicode hex="0108"/>
  <anchor x="688.0" y="1520.0" name="_top"/>
  <anchor x="688.0" y="0.0" name="bottom"/>
  <anchor x="688.0" y="1520.0" name="top"/>
  <outline>
    <contour>
      <point x="770.0" y="-20.0" type="curve" smooth="yes"/>
      <point x="874.0" y="-20.0"/>
      <point x="992.0" y="-2.0"/>
      <point x="1068.0" y="28.0" type="curve"/>
      <point x="1068.0" y="356.0" type="line"/>
      <point x="978.0" y="328.0"/>
      <point x="894.0" y="310.0"/>
      <point x="828.0" y="310.0" type="curve" smooth="yes"/>
      <point x="578.0" y="310.0"/>
      <point x="464.0" y="410.0"/>
      <point x="464.0" y="740.0" type="curve" smooth="yes"/>
      <point x="464.0" y="1060.0"/>
      <point x="586.0" y="1170.0"/>
      <point x="828.0" y="1170.0" type="curve" smooth="yes"/>
      <point x="912.0" y="1170.0"/>
      <point x="992.0" y="1158.0"/>
      <point x="1068.0" y="1142.0" type="curve"/>
      <point x="1068.0" y="1470.0" type="line"/>
      <point x="984.0" y="1490.0"/>
      <point x="888.0" y="1500.0"/>
      <point x="792.0" y="1500.0" type="curve" smooth="yes"/>
      <point x="330.0" y="1500.0"/>
      <point x="54.0" y="1254.0"/>
      <point x="54.0" y="736.0" type="curve" smooth="yes"/>
      <point x="54.0" y="198.0"/>
      <point x="318.0" y="-20.0"/>
    </contour>
    <contour>
      <point x="334.0" y="1586.0" type="line"/>
      <point x="590.0" y="1586.0" type="line"/>
      <point x="710.0" y="1804.0" type="line"/>
      <point x="666.0" y="1804.0" type="line"/>
      <point x="786.0" y="1586.0" type="line"/>
      <point x="1042.0" y="1586.0" type="line"/>
      <point x="850.0" y="1902.0" type="line"/>
      <point x="526.0" y="1902.0" type="line"/>
    </contour>
  </outline>
</glyph>
<glyph name="ccaron" format="2">
  <advance width="844.0"/>
  <unicode hex="010D"/>
  <anchor x="458.0" y="1200.0" name="_top"/>
  <anchor x="478.0" y="0.0" name="bottom"/>
  <anchor x="458.0" y="1200.0" name="top"/>
  <outline>
    <contour>
      <point x="566.0" y="-22.0" type="curve" smooth="yes"/>
      <point x="644.0" y="-22.0"/>
      <point x="732.0" y="-10.0"/>
      <point x="806.0" y="14.0" type="curve"/>
      <point x="806.0" y="326.0" type="line"/>
      <point x="750.0" y="308.0"/>
      <point x="700.0" y="298.0"/>
      <point x="654.0" y="298.0" type="curve" smooth="yes"/>
      <point x="512.0" y="298.0"/>
      <point x="442.0" y="358.0"/>
      <point x="442.0" y="554.0" type="curve" smooth="yes"/>
      <point x="442.0" y="730.0"/>
      <point x="512.0" y="798.0"/>
      <point x="678.0" y="798.0" type="curve" smooth="yes"/>
      <point x="720.0" y="798.0"/>
      <point x="766.0" y="794.0"/>
      <point x="806.0" y="788.0" type="curve"/>
      <point x="806.0" y="1100.0" type="line"/>
      <point x="742.0" y="1112.0"/>
      <point x="676.0" y="1118.0"/>
      <point x="602.0" y="1118.0" type="curve" smooth="yes"/>
      <point x="262.0" y="1118.0"/>
      <point x="40.0" y="952.0"/>
      <point x="40.0" y="548.0" type="curve" smooth="yes"/>
      <point x="40.0" y="158.0"/>
      <point x="230.0" y="-22.0"/>
    </contour>
    <contour>
      <point x="296.0" y="1220.0" type="line"/>
      <point x="620.0" y="1220.0" type="line"/>
      <point x="812.0" y="1616.0" type="line"/>
      <point x="556.0" y="1616.0" type="line"/>
      <point x="436.0" y="1344.0" type="line"/>
      <point x="480.0" y="1344.0" type="line"/>
      <point x="360.0" y="1616.0" type="line"/>
      <point x="104.0" y="1616.0" type="line"/>
    </contour>
  </outline>
</glyph>
<glyph name="dcaron" format="2">
  <advance width="1104.0"/>
  <unicode hex="010F"/>
  <anchor x="1106.0" y="1616.0" name="_caronalt"/>
  <anchor x="562.0" y="0.0" name="bottom"/>
  <anchor x="1106.0" y="1616.0" name="caronalt"/>
  <anchor x="546.0" y="540.0" name="center"/>
  <anchor x="1026.0" y="1350.0" name="stroke"/>
  <anchor x="546.0" y="1200.0" name="top"/>
  <anchor x="1064.0" y="1100.0" name="topright"/>
  <outline>
    <contour>
      <point x="430.0" y="-22.0" type="curve" smooth="yes"/>
      <point x="542.0" y="-22.0"/>
      <point x="618.0" y="32.0"/>
      <point x="658.0" y="120.0" type="curve"/>
      <point x="674.0" y="120.0" type="line"/>
      <point x="700.0" y="0.0" type="line"/>
      <point x="1026.0" y="0.0" type="line"/>
      <point x="1026.0" y="1616.0" type="line"/>
      <point x="640.0" y="1616.0" type="line"/>
      <point x="640.0" y="1116.0" type="line"/>
      <point x="634.0" y="1116.0"/>
      <point x="630.0" y="1116.0"/>
      <point x="624.0" y="1116.0" type="curve" smooth="yes"/>
      <point x="212.0" y="1116.0"/>
      <point x="40.0" y="904.0"/>
      <point x="40.0" y="528.0" type="curve" smooth="yes"/>
      <point x="40.0" y="146.0"/>
      <point x="226.0" y="-22.0"/>
    </contour>
    <contour>
      <point x="564.0" y="300.0" type="curve" smooth="yes"/>
      <point x="484.0" y="300.0"/>
      <point x="434.0" y="346.0"/>
      <point x="434.0" y="562.0" type="curve" smooth="yes"/>
      <point x="434.0" y="770.0"/>
      <point x="488.0" y="824.0"/>
      <point x="592.0" y="824.0" type="curve" smooth="yes"/>
      <point x="602.0" y="824.0"/>
      <point x="624.0" y="822.0"/>
      <point x="640.0" y="820.0" type="curve"/>
      <point x="640.0" y="320.0" type="line"/>
      <point x="620.0" y="308.0"/>
      <point x="592.0" y="300.0"/>
    </contour>
    <contour>
      <point x="1074.0" y="1180.0" type="curve"/>
      <point x="1286.0" y="1180.0" type="line"/>
      <point x="1334.0" y="1290.0"/>
      <point x="1364.0" y="1446.0"/>
      <point x="1364.0" y="1616.0" type="curve"/>
      <point x="1106.0" y="1616.0" type="line"/>
      <point x="1106.0" y="1452.0"/>
      <point x="1098.0" y="1334.0"/>
    </contour>
  </outline>
</glyph>
<glyph name="Emacron" format="2">
  <advance width="1128.0"/>
  <unicode hex="0112"/>
  <anchor x="596.0" y="1520.0" name="_top"/>
  <anchor x="596.0" y="0.0" name="bottom"/>
  <anchor x="990.0" y="0.0" name="ogonek"/>
  <anchor x="596.0" y="1520.0" name="top"/>
  <anchor x="36.0" y="1480.0" name="topleft"/>
  <outline>
    <contour>
      <point x="88.0" y="0.0" type="line"/>
      <point x="1070.0" y="0.0" type="line"/>
      <point x="1070.0" y="334.0" type="line"/>
      <point x="474.0" y="334.0" type="line"/>
      <point x="474.0" y="1146.0" type="line"/>
      <point x="1060.0" y="1146.0" type="line"/>
      <point x="1060.0" y="1480.0" type="line"/>
      <point x="88.0" y="1480.0" type="line"/>
    </contour>
    <contour>
      <point x="366.0" y="588.0" type="line"/>
      <point x="956.0" y="588.0" type="line"/>
      <point x="956.0" y="922.0" type="line"/>
      <point x="366.0" y="922.0" type="line"/>
    </contour>
    <contour>
      <point x="220.0" y="1622.0" type="line"/>
      <point x="972.0" y="1622.0" type="line"/>
      <point x="972.0" y="1868.0" type="line"/>
      <point x="220.0" y="1868.0" type="line"/>
    </contour>
  </outline>
</glyph>
<glyph name="Eogonek" format="2">
  <advance width="1128.0"/>
  <unicode hex="0118"/>
  <anchor x="990.0" y="0.0" name="_ogonek"/>
  <anchor x="596.0" y="0.0" name="bottom"/>
  <anchor x="990.0" y="0.0" name="ogonek"/>
  <anchor x="596.0" y="1520.0" name="top"/>
  <anchor x="36.0" y="1480.0" name="topleft"/>
  <outline>
    <contour>
      <point x="88.0" y="0.0" type="line"/>
      <point x="1070.0" y="0.0" type="line"/>
      <point x="1070.0" y="334.0" type="line"/>
      <point x="474.0" y="334.0" type="line"/>
      <point x="474.0" y="1146.0" type="line"/>
      <point x="1060.0" y="1146.0" type="line"/>
      <point x="1060.0" y="1480.0" type="line"/>
      <point x="88.0" y="1480.0" type="line"/>
    </contour>
    <contour>
      <point x="366.0" y="588.0" type="line"/>
      <point x="956.0" y="588.0" type="line"/>
      <point x="956.0" y="922.0" type="line"/>
      <point x="366.0" y="922.0" type="line"/>
    </contour>
    <contour>
      <point x="820.0" y="-460.0" type="curve" smooth="yes"/>
      <point x="894.0" y="-460.0"/>
      <point x="950.0" y="-448.0"/>
      <point x="1002.0" y="-430.0" type="curve"/>
      <point x="1002.0" y="-280.0" type="line"/>
      <point x="954.0" y="-298.0"/>
      <point x="910.0" y="-306.0"/>
      <point x="872.0" y="-306.0" type="curve" smooth="yes"/>
      <point x="780.0" y="-306.0"/>
      <point x="744.0" y="-272.0"/>
      <point x="744.0" y="-216.0" type="curve" smooth="yes"/>
      <point x="744.0" y="-144.0"/>
      <point x="782.0" y="-72.0"/>
      <point x="990.0" y="0.0" type="curve"/>
      <point x="878.0" y="86.0" type="line"/>
      <point x="614.0" y="-8.0"/>
      <point x="528.0" y="-104.0"/>
      <point x="528.0" y="-238.0" type="curve" smooth="yes"/>
      <point x="528.0" y="-374.0"/>
      <point x="620.0" y="-460.0"/>
    </contour>
  </outline>
</glyph>
<glyph name="Gcommaaccent" format="2">
  <advance width="1280.0"/>
  <unicode hex="0122"/>
  <anchor x="750.0" y="0.0" name="_bottom"/>
  <anchor x="750.0" y="0.0" name="bottom"/>
  <anchor x="750.0" y="1520.0" name="top"/>
  <outline>
    <contour>
      <point x="850.0" y="-20.0" type="curve" smooth="yes"/>
      <point x="956.0" y="-20.0"/>
      <point x="1082.0" y="-8.0"/>
      <point x="1196.0" y="10.0" type="curve"/>
      <point x="1196.0" y="720.0" type="line"/>
      <point x="834.0" y="720.0" type="line"/>
      <point x="834.0" y="224.0" type="line"/>
      <point x="952.0" y="318.0" type="line"/>
      <point x="912.0" y="312.0"/>
      <point x="856.0" y="308.0"/>
      <point x="806.0" y="308.0" type="curve" smooth="yes"/>
      <point x="588.0" y="308.0"/>
      <point x="464.0" y="420.0"/>
      <point x="464.0" y="734.0" type="curve" smooth="yes"/>
      <point x="464.0" y="1060.0"/>
      <point x="590.0" y="1170.0"/>
      <point x="896.0" y="1170.0" type="curve" smooth="yes"/>
      <point x="988.0" y="1170.0"/>
      <point x="1068.0" y="1156.0"/>
      <point x="1158.0" y="1136.0" type="curve"/>
      <point x="1158.0" y="1464.0" type="line"/>
      <point x="1064.0" y="1488.0"/>
      <point x="974.0" y="1500.0"/>
      <point x="850.0" y="1500.0" type="curve" smooth="yes"/>
      <point x="336.0" y="1500.0"/>
      <point x="54.0" y="1254.0"/>
      <point x="54.0" y="740.0" type="curve" smooth="yes"/>
      <point x="54.0" y="218.0"/>
      <point x="324.0" y="-20.0"/>
    </contour>
    <contour>
      <point x="626.0" y="-516.0" type="curve"/>
      <point x="870.0" y="-516.0" type="line"/>
      <point x="918.0" y="-456.0"/>
      <point x="958.0" y="-358.0"/>
      <point x="958.0" y="-278.0" type="curve" smooth="yes"/>
      <point x="958.0" y="-168.0"/>
      <point x="896.0" y="-104.0"/>
      <point x="750.0" y="-104.0" type="curve" smooth="yes"/>
      <point x="604.0" y="-104.0"/>
      <point x="542.0" y="-154.0"/>
      <point x="542.0" y="-236.0" type="curve" smooth="yes"/>
      <point x="542.0" y="-318.0"/>
      <point x="604.0" y="-370.0"/>
      <point x="750.0" y="-370.0" type="curve" smooth="yes"/>
      <point x="778.0" y="-370.0" type="line"/>
      <point x="696.0" y="-292.0" type="line"/>
      <point x="696.0" y="-366.0"/>
      <point x="678.0" y="-420.0"/>
    </contour>
  </outline>
</glyph>
<glyph name="gcommaaccent" format="2">
  <advance width="1104.0"/>
  <unicode hex="0123"/>
  <anchor x="572.0" y="1200.0" name="_top"/>
  <anchor x="552.0" y="-440.0" name="bottom"/>
  <anchor x="572.0" y="1200.0" name="top"/>
  <outline>
    <contour>
      <point x="438.0" y="-460.0" type="curve" smooth="yes"/>
      <point x="828.0" y="-460.0"/>
      <point x="1026.0" y="-286.0"/>
      <point x="1026.0" y="136.0" type="curve" smooth="yes"/>
      <point x="1026.0" y="1052.0" type="line"/>
      <point x="908.0" y="1096.0"/>
      <point x="758.0" y="1118.0"/>
      <point x="626.0" y="1118.0" type="curve" smooth="yes"/>
      <point x="212.0" y="1116.0"/>
      <point x="40.0" y="904.0"/>
      <point x="40.0" y="530.0" type="curve" smooth="yes"/>
      <point x="40.0" y="152.0"/>
      <point x="224.0" y="-10.0"/>
      <point x="404.0" y="-10.0" type="curve" smooth="yes"/>
      <point x="504.0" y="-10.0"/>
      <point x="580.0" y="36.0"/>
      <point x="622.0" y="120.0" type="curve"/>
      <point x="640.0" y="120.0" type="line"/>
      <point x="640.0" y="66.0" type="line" smooth="yes"/>
      <point x="640.0" y="-100.0"/>
      <point x="560.0" y="-158.0"/>
      <point x="402.0" y="-158.0" type="curve" smooth="yes"/>
      <point x="308.0" y="-158.0"/>
      <point x="214.0" y="-146.0"/>
      <point x="120.0" y="-122.0" type="curve"/>
      <point x="120.0" y="-426.0" type="line"/>
      <point x="222.0" y="-450.0"/>
      <point x="344.0" y="-460.0"/>
    </contour>
    <contour>
      <point x="576.0" y="308.0" type="curve" smooth="yes"/>
      <point x="478.0" y="308.0"/>
      <point x="434.0" y="356.0"/>
      <point x="434.0" y="564.0" type="curve" smooth="yes"/>
      <point x="434.0" y="772.0"/>
      <point x="492.0" y="826.0"/>
      <point x="590.0" y="826.0" type="curve" smooth="yes"/>
      <point x="606.0" y="826.0"/>
      <point x="624.0" y="824.0"/>
      <point x="640.0" y="822.0" type="curve"/>
      <point x="640.0" y="320.0" type="line"/>
      <point x="622.0" y="312.0"/>
      <point x="598.0" y="308.0"/>
    </contour>
    <contour>
      <point x="572.0" y="1212.0" type="curve" smooth="yes"/>
      <point x="718.0" y="1212.0"/>
      <point x="780.0" y="1262.0"/>
      <point x="780.0" y="1344.0" type="curve" smooth="yes"/>
      <point x="780.0" y="1426.0"/>
      <point x="718.0" y="1478.0"/>
      <point x="572.0" y="1478.0" type="curve" smooth="yes"/>
      <point x="544.0" y="1478.0" type="line"/>
      <point x="626.0" y="1400.0" type="line"/>
      <point x="626.0" y="1474.0"/>
      <point x="644.0" y="1528.0"/>
      <point x="696.0" y="1624.0" type="curve"/>
      <point x="452.0" y="1624.0" type="line"/>
      <point x="404.0" y="1564.0"/>
      <point x="364.0" y="1466.0"/>
      <point x="364.0" y="1386.0" type="curve" smooth="yes"/>
      <point x="364.0" y="1276.0"/>
      <point x="426.0" y="1212.0"/>
    </contour>
  </outline>
</glyph>
<glyph name="Hcircumflex" format="2">
  <advance width="1366.0"/>
  <unicode hex="0124"/>
  <anchor x="684.0" y="1520.0" name="_top"/>
  <anchor x="684.0" y="0.0" name="bottom"/>
  <anchor x="684.0" y="1200.0" name="center"/>
  <anchor x="684.0" y="1520.0" name="top"/>
  <anchor x="28.0" y="1480.0" name="topleft"/>
  <outline>
    <contour>
      <point x="88.0" y="0.0" type="line"/>
      <point x="480.0" y="0.0" type="line"/>
      <point x="480.0" y="576.0" type="line"/>
      <point x="886.0" y="576.0" type="line"/>
      <point x="886.0" y="0.0" type="line"/>
      <point x="1278.0" y="0.0" type="line"/>
      <point x="1278.0" y="1480.0" type="line"/>
      <point x="886.0" y="1480.0" type="line"/>
      <point x="886.0" y="934.0" type="line"/>
      <point x="480.0" y="934.0" type="line"/>
      <point x="480.0" y="1480.0" type="line"/>
      <point x="88.0" y="1480.0" type="line"/>
    </contour>
    <contour>
      <point x="330.0" y="1586.0" type="line"/>
      <point x="586.0" y="1586.0" type="line"/>
      <point x="706.0" y="1804.0" type="line"/>
      <point x="662.0" y="1804.0" type="line"/>
      <point x="782.0" y="1586.0" type="line"/>
      <point x="1038.0" y="1586.0" type="line"/>
      <point x="846.0" y="1902.0" type="line"/>
      <point x="522.0" y="1902.0" type="line"/>
    </contour>
  </outline>
</glyph>
<glyph name="itilde" format="2">
  <advance width="544.0"/>
  <unicode hex="0129"/>
  <anchor x="272.0" y="1200.0" name="_top"/>
  <anchor x="272.0" y="0.0" name="bottom"/>
  <anchor x="466.0" y="0.0" name="ogonek"/>
  <anchor x="272.0" y="1200.0" name="top"/>
  <outline>
    <contour>
      <point x="78.0" y="0.0" type="line"/>
      <point x="466.0" y="0.0" type="line"/>
      <point x="466.0" y="1100.0" type="line"/>
      <point x="78.0" y="1100.0" type="line"/>
    </contour>
    <contour>
      <point x="430.0" y="1250.0" type="curve" smooth="yes"/>
      <point x="514.0" y="1250.0"/>
      <point x="574.0" y="1274.0"/>
      <point x="628.0" y="1332.0" type="curve"/>
      <point x="628.0" y="1582.0" type="line"/>
      <point x="566.0" y="1520.0"/>
      <point x="510.0" y="1492.0"/>
      <point x="434.0" y="1492.0" type="curve" smooth="yes"/>
      <point x="332.0" y="1492.0"/>
      <point x="240.0" y="1588.0"/>
      <point x="114.0" y="1588.0" type="curve" smooth="yes"/>
      <point x="30.0" y="1588.0"/>
      <point x="-30.0" y="1564.0"/>
      <point x="-84.0" y="1506.0" type="curve"/>
      <point x="-84.0" y="1256.0" type="line"/>
      <point x="-22.0" y="1318.0"/>
      <point x="34.0" y="1346.0"/>
      <point x="110.0" y="1346.0" type="curve" smooth="yes"/>
      <point x="212.0" y="1346.0"/>
      <point x="304.0" y="1250.0"/>
    </contour>
  </outline>
</glyph>
<glyph name="Imacron" format="2">
  <advance width="568.0"/>
  <unicode hex="012A"/>
  <anchor x="284.0" y="1520.0" name="_top"/>
  <anchor x="284.0" y="0.0" name="bottom"/>
  <anchor x="480.0" y="0.0" name="ogonek"/>
  <anchor x="284.0" y="1520.0" name="top"/>
  <outline>
    <contour>
      <point x="88.0" y="0.0" type="line"/>
      <point x="480.0" y="0.0" type="line"/>
      <point x="480.0" y="1480.0" type="line"/>
      <point x="88.0" y="1480.0" type="line"/>
    </contour>
    <contour>
      <point x="-92.0" y="1622.0" type="line"/>
      <point x="660.0" y="1622.0" type="line"/>
      <point x="660.0" y="1868.0" type="line"/>
      <point x="-92.0" y="1868.0" type="line"/>
    </contour>
  </outline>
</glyph>
<glyph name="Ibreve" format="2">
  <advance width="568.0"/>
  <unicode hex="012C"/>
  <anchor x="284.0" y="1520.0" name="_top"/>
  <anchor x="284.0" y="0.0" name="bottom"/>
  <anchor x="480.0" y="0.0" name="ogonek"/>
  <anchor x="284.0" y="1520.0" name="top"/>
  <outline>
    <contour>
      <point x="88.0" y="0.0" type="line"/>
      <point x="480.0" y="0.0" type="line"/>
      <point x="480.0" y="1480.0" type="line"/>
      <point x="88.0" y="1480.0" type="line"/>
    </contour>
    <contour>
      <point x="284.0" y="1586.0" type="curve" smooth="yes"/>
      <point x="498.0" y="1586.0"/>
      <point x="630.0" y="1698.0"/>
      <point x="650.0" y="1902.0" type="curve"/>
      <point x="418.0" y="1902.0" type="line"/>
      <point x="406.0" y="1808.0"/>
      <point x="362.0" y="1772.0"/>
      <point x="284.0" y="1772.0" type="curve" smooth="yes"/>
      <point x="206.0" y="1772.0"/>
      <point x="162.0" y="1808.0"/>
      <point x="150.0" y="1902.0" type="curve"/>
      <point x="-82.0" y="1902.0" type="line"/>
      <point x="-62.0" y="1698.0"/>
      <point x="70.0" y="1586.0"/>
    </contour>
  </outline>
</glyph>
<glyph name="ibreve" format="2">
  <advance width="544.0"/>
  <unicode hex="012D"/>
  <anchor x="272.0" y="1200.0" name="_top"/>
  <anchor x="272.0" y="0.0" name="bottom"/>
  <anchor x="466.0" y="0.0" name="ogonek"/>
  <anchor x="272.0" y="1200.0" name="top"/>
  <outline>
    <contour>
      <point x="78.0" y="0.0" type="line"/>
      <point x="466.0" y="0.0" type="line"/>
      <point x="466.0" y="1100.0" type="line"/>
      <point x="78.0" y="1100.0" type="line"/>
    </contour>
    <contour>
      <point x="272.0" y="1232.0" type="curve" smooth="yes"/>
      <point x="472.0" y="1232.0"/>
      <point x="612.0" y="1338.0"/>
      <point x="626.0" y="1596.0" type="curve"/>
      <point x="394.0" y="1596.0" type="line"/>
      <point x="388.0" y="1474.0"/>
      <point x="342.0" y="1428.0"/>
      <point x="272.0" y="1428.0" type="curve" smooth="yes"/>
      <point x="202.0" y="1428.0"/>
      <point x="156.0" y="1474.0"/>
      <point x="150.0" y="1596.0" type="curve"/>
      <point x="-82.0" y="1596.0" type="line"/>
      <point x="-68.0" y="1338.0"/>
      <point x="72.0" y="1232.0"/>
    </contour>
  </outline>
</glyph>
<glyph name="Iogonek" format="2">
  <advance width="568.0"/>
  <unicode hex="012E"/>
  <anchor x="480.0" y="0.0" name="_ogonek"/>
  <anchor x="284.0" y="0.0" name="bottom"/>
  <anchor x="480.0" y="0.0" name="ogonek"/>
  <anchor x="284.0" y="1520.0" name="top"/>
  <outline>
    <contour>
      <point x="88.0" y="0.0" type="line"/>
      <point x="480.0" y="0.0" type="line"/>
      <point x="480.0" y="1480.0" type="line"/>
      <point x="88.0" y="1480.0" type="line"/>
    </contour>
    <contour>
      <point x="310.0" y="-460.0" type="curve" smooth="yes"/>
      <point x="384.0" y="-460.0"/>
      <point x="440.0" y="-448.0"/>
      <point x="492.0" y="-430.0" type="curve"/>
      <point x="492.0" y="-280.0" type="line"/>
      <point x="444.0" y="-298.0"/>
      <point x="400.0" y="-306.0"/>
      <point x="362.0" y="-306.0" type="curve" smooth="yes"/>
      <point x="270.0" y="-306.0"/>
      <point x="234.0" y="-272.0"/>
      <point x="234.0" y="-216.0" type="curve" smooth="yes"/>
      <point x="234.0" y="-144.0"/>
      <point x="272.0" y="-72.0"/>
      <point x="480.0" y="0.0" type="curve"/>
      <point x="368.0" y="86.0" type="line"/>
      <point x="104.0" y="-8.0"/>
      <point x="18.0" y="-104.0"/>
      <point x="18.0" y="-238.0" type="curve" smooth="yes"/>
      <point x="18.0" y="-374.0"/>
      <point x="110.0" y="-460.0"/>
    </contour>
  </outline>
</glyph>
<glyph name="iogonek" format="2">
  <advance width="544.0"/>
  <unicode hex="012F"/>
  <anchor x="272.0" y="1200.0" name="_top"/>
  <anchor x="272.0" y="0.0" name="bottom"/>
  <anchor x="466.0" y="0.0" name="ogonek"/>
  <anchor x="272.0" y="1200.0" name="top"/>
  <outline>
    <contour>
      <point x="78.0" y="0.0" type="line"/>
      <point x="466.0" y="0.0" type="line"/>
      <point x="466.0" y="1100.0" type="line"/>
      <point x="78.0" y="1100.0" type="line"/>
    </contour>
    <contour>
      <point x="272.0" y="1210.0" type="curve" smooth="yes"/>
      <point x="434.0" y="1210.0"/>
      <point x="506.0" y="1288.0"/>
      <point x="506.0" y="1418.0" type="curve" smooth="yes"/>
      <point x="506.0" y="1548.0"/>
      <point x="434.0" y="1626.0"/>
      <point x="272.0" y="1626.0" type="curve" smooth="yes"/>
      <point x="110.0" y="1626.0"/>
      <point x="38.0" y="1548.0"/>
      <point x="38.0" y="1418.0" type="curve" smooth="yes"/>
      <point x="38.0" y="1288.0"/>
      <point x="110.0" y="1210.0"/>
    </contour>
    <contour>
      <point x="296.0" y="-460.0" type="curve" smooth="yes"/>
      <point x="370.0" y="-460.0"/>
      <point x="420.0" y="-446.0"/>
      <point x="466.0" y="-430.0" type="curve"/>
      <point x="466.0" y="-280.0" type="line"/>
      <point x="418.0" y="-298.0"/>
      <point x="380.0" y="-306.0"/>
      <point x="348.0" y="-306.0" type="curve" smooth="yes"/>
      <point x="276.0" y="-306.0"/>
      <point x="240.0" y="-272.0"/>
      <point x="240.0" y="-216.0" type="curve" smooth="yes"/>
      <point x="240.0" y="-144.0"/>
      <point x="278.0" y="-72.0"/>
      <point x="466.0" y="0.0" type="curve"/>
      <point x="354.0" y="86.0" type="line"/>
      <point x="100.0" y="-8.0"/>
      <point x="24.0" y="-104.0"/>
      <point x="24.0" y="-238.0" type="curve" smooth="yes"/>
      <point x="24.0" y="-374.0"/>
      <point x="116.0" y="-460.0"/>
    </contour>
  </outline>
</glyph>
<glyph name="Idotaccent" format="2">
  <advance width="568.0"/>
  <unicode hex="0130"/>
  <anchor x="284.0" y="1520.0" name="_top"/>
  <anchor x="284.0" y="0.0" name="bottom"/>
  <anchor x="480.0" y="0.0" name="ogonek"/>
  <anchor x="284.0" y="1520.0" name="top"/>
  <outline>
    <contour>
      <point x="88.0" y="0.0" type="line"/>
      <point x="480.0" y="0.0" type="line"/>
      <point x="480.0" y="1480.0" type="line"/>
      <point x="88.0" y="1480.0" type="line"/>
    </contour>
    <contour>
      <point x="284.0" y="1570.0" type="curve" smooth="yes"/>
      <point x="430.0" y="1570.0"/>
      <point x="520.0" y="1628.0"/>
      <point x="520.0" y="1750.0" type="curve" smooth="yes"/>
      <point x="520.0" y="1872.0"/>
      <point x="430.0" y="1930.0"/>
      <point x="284.0" y="1930.0" type="curve" smooth="yes"/>
      <point x="138.0" y="1930.0"/>
      <point x="48.0" y="1872.0"/>
      <point x="48.0" y="1750.0" type="curve" smooth="yes"/>
      <point x="48.0" y="1628.0"/>
      <point x="138.0" y="1570.0"/>
    </contour>
  </outline>
</glyph>
<glyph name="jcircumflex" format="2">
  <advance width="544.0"/>
  <unicode hex="0135"/>
  <anchor x="272.0" y="1200.0" name="_top"/>
  <anchor x="272.0" y="1200.0" name="top"/>
  <outline>
    <contour>
      <point x="196.0" y="-476.0" type="line"/>
      <point x="398.0" y="-258.0"/>
      <point x="466.0" y="-54.0"/>
      <point x="466.0" y="196.0" type="curve" smooth="yes"/>
      <point x="466.0" y="1100.0" type="line"/>
      <point x="78.0" y="1100.0" type="line"/>
      <point x="78.0" y="180.0" type="line" smooth="yes"/>
      <point x="78.0" y="-26.0"/>
      <point x="48.0" y="-152.0"/>
      <point x="-60.0" y="-308.0" type="curve"/>
    </contour>
    <contour>
      <point x="-82.0" y="1220.0" type="line"/>
      <point x="174.0" y="1220.0" type="line"/>
      <point x="294.0" y="1492.0" type="line"/>
      <point x="250.0" y="1492.0" type="line"/>
      <point x="370.0" y="1220.0" type="line"/>
      <point x="626.0" y="1220.0" type="line"/>
      <point x="434.0" y="1616.0" type="line"/>
      <point x="110.0" y="1616.0" type="line"/>
    </contour>
  </outline>
</glyph>
<glyph name="lacute" format="2">
  <advance width="542.0"/>
  <unicode hex="013A"/>
  <anchor x="272.0" y="1616.0" name="_top"/>
  <anchor x="272.0" y="0.0" name="bottom"/>
  <anchor x="544.0" y="1616.0" name="caronalt"/>
  <anchor x="704.0" y="794.0" name="periodcentered"/>
  <anchor x="272.0" y="714.0" name="slash"/>
  <anchor x="272.0" y="1616.0" name="top"/>
  <outline>
    <contour>
      <point x="78.0" y="0.0" type="line"/>
      <point x="464.0" y="0.0" type="line"/>
      <point x="464.0" y="1616.0" type="line"/>
      <point x="78.0" y="1616.0" type="line"/>
    </contour>
    <contour>
      <point x="100.0" y="1682.0" type="line"/>
      <point x="444.0" y="1682.0" type="line"/>
      <point x="662.0" y="1998.0" type="line"/>
      <point x="262.0" y="1998.0" type="line"/>
    </contour>
  </outline>
</glyph>
<glyph name="Lcommaaccent" format="2">
  <advance width="1036.0"/>
  <unicode hex="013B"/>
  <anchor x="560.0" y="0.0" name="_bottom"/>
  <anchor x="560.0" y="0.0" name="bottom"/>
  <anchor x="676.0" y="1616.0" name="caronalt"/>
  <anchor x="796.0" y="894.0" name="periodcentered"/>
  <anchor x="292.0" y="854.0" name="slash"/>
  <anchor x="292.0" y="1520.0" name="top"/>
  <outline>
    <contour>
      <point x="88.0" y="0.0" type="line"/>
      <point x="1032.0" y="0.0" type="line"/>
      <point x="1032.0" y="346.0" type="line"/>
      <point x="480.0" y="346.0" type="line"/>
      <point x="480.0" y="1480.0" type="line"/>
      <point x="88.0" y="1480.0" type="line"/>
    </contour>
    <contour>
      <point x="436.0" y="-516.0" type="curve"/>
      <point x="680.0" y="-516.0" type="line"/>
      <point x="728.0" y="-456.0"/>
      <point x="768.0" y="-358.0"/>
      <point x="768.0" y="-278.0" type="curve" smooth="yes"/>
      <point x="768.0" y="-168.0"/>
      <point x="706.0" y="-104.0"/>
      <point x="560.0" y="-104.0" type="curve" smooth="yes"/>
      <point x="414.0" y="-104.0"/>
      <point x="352.0" y="-154.0"/>
      <point x="352.0" y="-236.0" type="curve" smooth="yes"/>
      <point x="352.0" y="-318.0"/>
      <point x="414.0" y="-370.0"/>
      <point x="560.0" y="-370.0" type="curve" smooth="yes"/>
      <point x="588.0" y="-370.0" type="line"/>
      <point x="506.0" y="-292.0" type="line"/>
      <point x="506.0" y="-366.0"/>
      <point x="488.0" y="-420.0"/>
    </contour>
  </outline>
</glyph>
<glyph name="lcommaaccent" format="2">
  <advance width="542.0"/>
  <unicode hex="013C"/>
  <anchor x="272.0" y="0.0" name="_bottom"/>
  <anchor x="272.0" y="0.0" name="bottom"/>
  <anchor x="544.0" y="1616.0" name="caronalt"/>
  <anchor x="704.0" y="794.0" name="periodcentered"/>
  <anchor x="272.0" y="714.0" name="slash"/>
  <anchor x="272.0" y="1616.0" name="top"/>
  <outline>
    <contour>
      <point x="78.0" y="0.0" type="line"/>
      <point x="464.0" y="0.0" type="line"/>
      <point x="464.0" y="1616.0" type="line"/>
      <point x="78.0" y="1616.0" type="line"/>
    </contour>
    <contour>
      <point x="148.0" y="-516.0" type="curve"/>
      <point x="392.0" y="-516.0" type="line"/>
      <point x="440.0" y="-456.0"/>
      <point x="480.0" y="-358.0"/>
      <point x="480.0" y="-278.0" type="curve" smooth="yes"/>
      <point x="480.0" y="-168.0"/>
      <point x="418.0" y="-104.0"/>
      <point x="272.0" y="-104.0" type="curve" smooth="yes"/>
      <point x="126.0" y="-104.0"/>
      <point x="64.0" y="-154.0"/>
      <point x="64.0" y="-236.0" type="curve" smooth="yes"/>
      <point x="64.0" y="-318.0"/>
      <point x="126.0" y="-370.0"/>
      <point x="272.0" y="-370.0" type="curve" smooth="yes"/>
      <point x="300.0" y="-370.0" type="line"/>
      <point x="218.0" y="-292.0" type="line"/>
      <point x="218.0" y="-366.0"/>
      <point x="200.0" y="-420.0"/>
    </contour>
  </outline>
</glyph>
<glyph name="Lcaron" format="2">
  <advance width="1036.0"/>
  <unicode hex="013D"/>
  <anchor x="676.0" y="1616.0" name="_caronalt"/>
  <anchor x="560.0" y="0.0" name="bottom"/>
  <anchor x="676.0" y="1616.0" name="caronalt"/>
  <anchor x="796.0" y="894.0" name="periodcentered"/>
  <anchor x="292.0" y="854.0" name="slash"/>
  <anchor x="292.0" y="1520.0" name="top"/>
  <outline>
    <contour>
      <point x="88.0" y="0.0" type="line"/>
      <point x="1032.0" y="0.0" type="line"/>
      <point x="1032.0" y="346.0" type="line"/>
      <point x="480.0" y="346.0" type="line"/>
      <point x="480.0" y="1480.0" type="line"/>
      <point x="88.0" y="1480.0" type="line"/>
    </contour>
    <contour>
      <point x="644.0" y="1140.0" type="curve"/>
      <point x="856.0" y="1140.0" type="line"/>
      <point x="904.0" y="1250.0"/>
      <point x="934.0" y="1406.0"/>
      <point x="934.0" y="1616.0" type="curve"/>
      <point x="676.0" y="1616.0" type="line"/>
      <point x="676.0" y="1412.0"/>
      <point x="668.0" y="1294.0"/>
    </contour>
  </outline>
</glyph>
<glyph name="lcaron" format="2">
  <advance width="542.0"/>
  <unicode hex="013E"/>
  <anchor x="544.0" y="1616.0" name="_caronalt"/>
  <anchor x="272.0" y="0.0" name="bottom"/>
  <anchor x="544.0" y="1616.0" name="caronalt"/>
  <anchor x="704.0" y="794.0" name="periodcentered"/>
  <anchor x="272.0" y="714.0" name="slash"/>
  <anchor x="272.0" y="1616.0" name="top"/>
  <outline>
    <contour>
      <point x="78.0" y="0.0" type="line"/>
      <point x="464.0" y="0.0" type="line"/>
      <point x="464.0" y="1616.0" type="line"/>
      <point x="78.0" y="1616.0" type="line"/>
    </contour>
    <contour>
      <point x="512.0" y="1180.0" type="curve"/>
      <point x="724.0" y="1180.0" type="line"/>
      <point x="772.0" y="1290.0"/>
      <point x="802.0" y="1446.0"/>
      <point x="802.0" y="1616.0" type="curve"/>
      <point x="544.0" y="1616.0" type="line"/>
      <point x="544.0" y="1452.0"/>
      <point x="536.0" y="1334.0"/>
    </contour>
  </outline>
</glyph>
<glyph name="Lslash" format="2">
  <advance width="1074.0"/>
  <unicode hex="0141"/>
  <anchor x="330.0" y="854.0" name="_slash"/>
  <anchor x="598.0" y="0.0" name="bottom"/>
  <anchor x="714.0" y="1616.0" name="caronalt"/>
  <anchor x="834.0" y="894.0" name="periodcentered"/>
  <anchor x="330.0" y="854.0" name="slash"/>
  <anchor x="330.0" y="1520.0" name="top"/>
  <outline>
    <contour>
      <point x="126.0" y="0.0" type="line"/>
      <point x="1070.0" y="0.0" type="line"/>
      <point x="1070.0" y="346.0" type="line"/>
      <point x="518.0" y="346.0" type="line"/>
      <point x="518.0" y="1480.0" type="line"/>
      <point x="126.0" y="1480.0" type="line"/>
    </contour>
    <contour>
      <point x="78.0" y="586.0" type="line"/>
      <point x="868.0" y="966.0" type="line"/>
      <point x="750.0" y="1204.0" type="line"/>
      <point x="-40.0" y="824.0" type="line"/>
    </contour>
  </outline>
</glyph>
<glyph name="lslash" format="2">
  <advance width="642.0"/>
  <unicode hex="0142"/>
  <anchor x="322.0" y="714.0" name="_slash"/>
  <anchor x="322.0" y="0.0" name="bottom"/>
  <anchor x="594.0" y="1616.0" name="caronalt"/>
  <anchor x="754.0" y="794.0" name="periodcentered"/>
  <anchor x="322.0" y="714.0" name="slash"/>
  <anchor x="322.0" y="1616.0" name="top"/>
  <outline>
    <contour>
      <point x="128.0" y="0.0" type="line"/>
      <point x="514.0" y="0.0" type="line"/>
      <point x="514.0" y="1616.0" type="line"/>
      <point x="128.0" y="1616.0" type="line"/>
    </contour>
    <contour>
      <point x="66.0" y="454.0" type="line"/>
      <point x="688.0" y="752.0" type="line"/>
      <point x="578.0" y="974.0" type="line"/>
      <point x="-44.0" y="676.0" type="line"/>
    </contour>
  </outline>
</glyph>
<glyph name="Ncommaaccent" format="2">
  <advance width="1380.0"/>
  <unicode hex="0145"/>
  <anchor x="690.0" y="0.0" name="_bottom"/>
  <anchor x="690.0" y="0.0" name="bottom"/>
  <anchor x="690.0" y="1520.0" name="top"/>
  <outline>
    <contour>
      <point x="88.0" y="0.0" type="line"/>
      <point x="454.0" y="0.0" type="line"/>
      <point x="454.0" y="930.0" type="line"/>
      <point x="396.0" y="930.0" type="line"/>
      <point x="902.0" y="0.0" type="line"/>
      <point x="1292.0" y="0.0" type="line"/>
      <point x="1292.0" y="1480.0" type="line"/>
      <point x="926.0" y="1480.0" type="line"/>
      <point x="926.0" y="550.0" type="line"/>
      <point x="984.0" y="550.0" type="line"/>
      <point x="478.0" y="1480.0" type="line"/>
      <point x="88.0" y="1480.0" type="line"/>
    </contour>
    <contour>
      <point x="566.0" y="-516.0" type="curve"/>
      <point x="810.0" y="-516.0" type="line"/>
      <point x="858.0" y="-456.0"/>
      <point x="898.0" y="-358.0"/>
      <point x="898.0" y="-278.0" type="curve" smooth="yes"/>
      <point x="898.0" y="-168.0"/>
      <point x="836.0" y="-104.0"/>
      <point x="690.0" y="-104.0" type="curve" smooth="yes"/>
      <point x="544.0" y="-104.0"/>
      <point x="482.0" y="-154.0"/>
      <point x="482.0" y="-236.0" type="curve" smooth="yes"/>
      <point x="482.0" y="-318.0"/>
      <point x="544.0" y="-370.0"/>
      <point x="690.0" y="-370.0" type="curve" smooth="yes"/>
      <point x="718.0" y="-370.0" type="line"/>
      <point x="636.0" y="-292.0" type="line"/>
      <point x="636.0" y="-366.0"/>
      <point x="618.0" y="-420.0"/>
    </contour>
  </outline>
</glyph>
<glyph name="ncommaaccent" format="2">
  <advance width="1098.0"/>
  <unicode hex="0146"/>
  <anchor x="552.0" y="0.0" name="_bottom"/>
  <anchor x="10.0" y="1200.0" name="apostrophe"/>
  <anchor x="552.0" y="0.0" name="bottom"/>
  <anchor x="552.0" y="1200.0" name="top"/>
  <outline>
    <contour>
      <point x="78.0" y="0.0" type="line"/>
      <point x="464.0" y="0.0" type="line"/>
      <point x="464.0" y="736.0" type="line"/>
      <point x="486.0" y="760.0"/>
      <point x="522.0" y="776.0"/>
      <point x="560.0" y="776.0" type="curve" smooth="yes"/>
      <point x="606.0" y="776.0"/>
      <point x="638.0" y="754.0"/>
      <point x="638.0" y="678.0" type="curve" smooth="yes"/>
      <point x="638.0" y="0.0" type="line"/>
      <point x="1024.0" y="0.0" type="line"/>
      <point x="1024.0" y="708.0" type="line" smooth="yes"/>
      <point x="1024.0" y="1008.0"/>
      <point x="886.0" y="1118.0"/>
      <point x="706.0" y="1118.0" type="curve" smooth="yes"/>
      <point x="594.0" y="1118.0"/>
      <point x="506.0" y="1074.0"/>
      <point x="442.0" y="988.0" type="curve"/>
      <point x="426.0" y="988.0" type="line"/>
      <point x="398.0" y="1100.0" type="line"/>
      <point x="78.0" y="1100.0" type="line"/>
    </contour>
    <contour>
      <point x="428.0" y="-516.0" type="curve"/>
      <point x="672.0" y="-516.0" type="line"/>
      <point x="720.0" y="-456.0"/>
      <point x="760.0" y="-358.0"/>
      <point x="760.0" y="-278.0" type="curve" smooth="yes"/>
      <point x="760.0" y="-168.0"/>
      <point x="698.0" y="-104.0"/>
      <point x="552.0" y="-104.0" type="curve" smooth="yes"/>
      <point x="406.0" y="-104.0"/>
      <point x="344.0" y="-154.0"/>
      <point x="344.0" y="-236.0" type="curve" smooth="yes"/>
      <point x="344.0" y="-318.0"/>
      <point x="406.0" y="-370.0"/>
      <point x="552.0" y="-370.0" type="curve" smooth="yes"/>
      <point x="580.0" y="-370.0" type="line"/>
      <point x="498.0" y="-292.0" type="line"/>
      <point x="498.0" y="-366.0"/>
      <point x="480.0" y="-420.0"/>
    </contour>
  </outline>
</glyph>
<glyph name="Ncaron" format="2">
  <advance width="1380.0"/>
  <unicode hex="0147"/>
  <anchor x="690.0" y="1520.0" name="_top"/>
  <anchor x="690.0" y="0.0" name="bottom"/>
  <anchor x="690.0" y="1520.0" name="top"/>
  <outline>
    <contour>
      <point x="88.0" y="0.0" type="line"/>
      <point x="454.0" y="0.0" type="line"/>
      <point x="454.0" y="930.0" type="line"/>
      <point x="396.0" y="930.0" type="line"/>
      <point x="902.0" y="0.0" type="line"/>
      <point x="1292.0" y="0.0" type="line"/>
      <point x="1292.0" y="1480.0" type="line"/>
      <point x="926.0" y="1480.0" type="line"/>
      <point x="926.0" y="550.0" type="line"/>
      <point x="984.0" y="550.0" type="line"/>
      <point x="478.0" y="1480.0" type="line"/>
      <point x="88.0" y="1480.0" type="line"/>
    </contour>
    <contour>
      <point x="528.0" y="1586.0" type="line"/>
      <point x="852.0" y="1586.0" type="line"/>
      <point x="1044.0" y="1902.0" type="line"/>
      <point x="788.0" y="1902.0" type="line"/>
      <point x="668.0" y="1684.0" type="line"/>
      <point x="712.0" y="1684.0" type="line"/>
      <point x="592.0" y="1902.0" type="line"/>
      <point x="336.0" y="1902.0" type="line"/>
    </contour>
  </outline>
</glyph>
<glyph name="napostrophe" format="2">
  <advance width="1098.0"/>
  <unicode hex="0149"/>
  <anchor x="10.0" y="1200.0" name="_apostrophe"/>
  <anchor x="10.0" y="1200.0" name="apostrophe"/>
  <anchor x="552.0" y="0.0" name="bottom"/>
  <anchor x="552.0" y="1200.0" name="top"/>
  <outline>
    <contour>
      <point x="78.0" y="0.0" type="line"/>
      <point x="464.0" y="0.0" type="line"/>
      <point x="464.0" y="736.0" type="line"/>
      <point x="486.0" y="760.0"/>
      <point x="522.0" y="776.0"/>
      <point x="560.0" y="776.0" type="curve" smooth="yes"/>
      <point x="606.0" y="776.0"/>
      <point x="638.0" y="754.0"/>
      <point x="638.0" y="678.0" type="curve" smooth="yes"/>
      <point x="638.0" y="0.0" type="line"/>
      <point x="1024.0" y="0.0" type="line"/>
      <point x="1024.0" y="708.0" type="line" smooth="yes"/>
      <point x="1024.0" y="1008.0"/>
      <point x="886.0" y="1118.0"/>
      <point x="706.0" y="1118.0" type="curve" smooth="yes"/>
      <point x="594.0" y="1118.0"/>
      <point x="506.0" y="1074.0"/>
      <point x="442.0" y="988.0" type="curve"/>
      <point x="426.0" y="988.0" type="line"/>
      <point x="398.0" y="1100.0" type="line"/>
      <point x="78.0" y="1100.0" type="line"/>
    </contour>
    <contour>
      <point x="94.0" y="1212.0" type="curve"/>
      <point x="338.0" y="1212.0" type="line"/>
      <point x="386.0" y="1272.0"/>
      <point x="426.0" y="1370.0"/>
      <point x="426.0" y="1450.0" type="curve" smooth="yes"/>
      <point x="426.0" y="1560.0"/>
      <point x="364.0" y="1624.0"/>
      <point x="218.0" y="1624.0" type="curve" smooth="yes"/>
      <point x="72.0" y="1624.0"/>
      <point x="10.0" y="1574.0"/>
      <point x="10.0" y="1492.0" type="curve" smooth="yes"/>
      <point x="10.0" y="1410.0"/>
      <point x="72.0" y="1358.0"/>
      <point x="218.0" y="1358.0" type="curve" smooth="yes"/>
      <point x="246.0" y="1358.0" type="line"/>
      <point x="164.0" y="1436.0" type="line"/>
      <point x="164.0" y="1362.0"/>
      <point x="146.0" y="1308.0"/>
    </contour>
  </outline>
</glyph>
<glyph name="Racute" format="2">
  <advance width="1272.0"/>
  <unicode hex="0154"/>
  <anchor x="622.0" y="1520.0" name="_top"/>
  <anchor x="682.0" y="0.0" name="bottom"/>
  <anchor x="622.0" y="1520.0" name="top"/>
  <outline>
    <contour>
      <point x="88.0" y="0.0" type="line"/>
      <point x="474.0" y="0.0" type="line"/>
      <point x="474.0" y="504.0" type="line"/>
      <point x="510.0" y="504.0"/>
      <point x="538.0" y="502.0"/>
      <point x="584.0" y="502.0" type="curve" smooth="yes"/>
      <point x="930.0" y="502.0"/>
      <point x="1168.0" y="674.0"/>
      <point x="1168.0" y="1000.0" type="curve" smooth="yes"/>
      <point x="1168.0" y="1336.0"/>
      <point x="958.0" y="1500.0"/>
      <point x="536.0" y="1500.0" type="curve" smooth="yes"/>
      <point x="370.0" y="1500.0"/>
      <point x="224.0" y="1480.0"/>
      <point x="88.0" y="1450.0" type="curve"/>
    </contour>
    <contour>
      <point x="858.0" y="0.0" type="line"/>
      <point x="1274.0" y="0.0" type="line"/>
      <point x="864.0" y="672.0" type="line"/>
      <point x="460.0" y="672.0" type="line"/>
    </contour>
    <contour>
      <point x="584.0" y="808.0" type="curve" smooth="yes"/>
      <point x="538.0" y="808.0"/>
      <point x="510.0" y="810.0"/>
      <point x="474.0" y="814.0" type="curve"/>
      <point x="474.0" y="1188.0" type="line"/>
      <point x="506.0" y="1194.0"/>
      <point x="540.0" y="1198.0"/>
      <point x="592.0" y="1198.0" type="curve" smooth="yes"/>
      <point x="720.0" y="1198.0"/>
      <point x="798.0" y="1136.0"/>
      <point x="798.0" y="1000.0" type="curve" smooth="yes"/>
      <point x="798.0" y="858.0"/>
      <point x="720.0" y="808.0"/>
    </contour>
    <contour>
      <point x="450.0" y="1586.0" type="line"/>
      <point x="794.0" y="1586.0" type="line"/>
      <point x="1012.0" y="1902.0" type="line"/>
      <point x="612.0" y="1902.0" type="line"/>
    </contour>
  </outline>
</glyph>
<glyph name="rcaron" format="2">
  <advance width="778.0"/>
  <unicode hex="0159"/>
  <anchor x="424.0" y="1200.0" name="_top"/>
  <anchor x="272.0" y="0.0" name="bottom"/>
  <anchor x="424.0" y="1200.0" name="top"/>
  <outline>
    <contour>
      <point x="78.0" y="0.0" type="line"/>
      <point x="464.0" y="0.0" type="line"/>
      <point x="464.0" y="690.0" type="line"/>
      <point x="500.0" y="732.0"/>
      <point x="578.0" y="762.0"/>
      <point x="660.0" y="762.0" type="curve" smooth="yes"/>
      <point x="692.0" y="762.0"/>
      <point x="734.0" y="760.0"/>
      <point x="768.0" y="752.0" type="curve"/>
      <point x="768.0" y="1110.0" type="line"/>
      <point x="746.0" y="1114.0"/>
      <point x="714.0" y="1118.0"/>
      <point x="686.0" y="1118.0" type="curve" smooth="yes"/>
      <point x="574.0" y="1118.0"/>
      <point x="484.0" y="1074.0"/>
      <point x="440.0" y="946.0" type="curve"/>
      <point x="424.0" y="946.0" type="line"/>
      <point x="394.0" y="1100.0" type="line"/>
      <point x="78.0" y="1100.0" type="line"/>
    </contour>
    <contour>
      <point x="262.0" y="1220.0" type="line"/>
      <point x="586.0" y="1220.0" type="line"/>
      <point x="778.0" y="1616.0" type="line"/>
      <point x="522.0" y="1616.0" type="line"/>
      <point x="402.0" y="1344.0" type="line"/>
      <point x="446.0" y="1344.0" type="line"/>
      <point x="326.0" y="1616.0" type="line"/>
      <point x="70.0" y="1616.0" type="line"/>
    </contour>
  </outline>
</glyph>
<glyph name="Scaron" format="2">
  <advance width="1050.0"/>
  <unicode hex="0160"/>
  <anchor x="536.0" y="1520.0" name="_top"/>
  <anchor x="536.0" y="0.0" name="bottom"/>
  <anchor x="536.0" y="1520.0" name="top"/>
  <outline>
    <contour>
      <point x="446.0" y="-20.0" type="curve" smooth="yes"/>
      <point x="816.0" y="-20.0"/>
      <point x="1030.0" y="166.0"/>
      <point x="1030.0" y="456.0" type="curve" smooth="yes"/>
      <point x="1030.0" y="698.0"/>
      <point x="888.0" y="826.0"/>
      <point x="670.0" y="898.0" type="curve" smooth="yes"/>
      <point x="550.0" y="938.0" type="line" smooth="yes"/>
      <point x="438.0" y="976.0"/>
      <point x="414.0" y="1004.0"/>
      <point x="414.0" y="1054.0" type="curve" smooth="yes"/>
      <point x="414.0" y="1116.0"/>
      <point x="466.0" y="1172.0"/>
      <point x="666.0" y="1172.0" type="curve" smooth="yes"/>
      <point x="764.0" y="1172.0"/>
      <point x="868.0" y="1158.0"/>
      <point x="948.0" y="1134.0" type="curve"/>
      <point x="948.0" y="1460.0" type="line"/>
      <point x="864.0" y="1484.0"/>
      <point x="750.0" y="1500.0"/>
      <point x="624.0" y="1500.0" type="curve" smooth="yes"/>
      <point x="218.0" y="1500.0"/>
      <point x="20.0" y="1318.0"/>
      <point x="20.0" y="1024.0" type="curve" smooth="yes"/>
      <point x="20.0" y="790.0"/>
      <point x="166.0" y="654.0"/>
      <point x="356.0" y="590.0" type="curve" smooth="yes"/>
      <point x="476.0" y="550.0" type="line" smooth="yes"/>
      <point x="606.0" y="506.0"/>
      <point x="636.0" y="474.0"/>
      <point x="636.0" y="420.0" type="curve" smooth="yes"/>
      <point x="636.0" y="354.0"/>
      <point x="582.0" y="308.0"/>
      <point x="436.0" y="308.0" type="curve" smooth="yes"/>
      <point x="308.0" y="308.0"/>
      <point x="176.0" y="334.0"/>
      <point x="66.0" y="368.0" type="curve"/>
      <point x="66.0" y="42.0" type="line"/>
      <point x="174.0" y="2.0"/>
      <point x="326.0" y="-20.0"/>
    </contour>
    <contour>
      <point x="374.0" y="1586.0" type="line"/>
      <point x="698.0" y="1586.0" type="line"/>
      <point x="890.0" y="1902.0" type="line"/>
      <point x="634.0" y="1902.0" type="line"/>
      <point x="514.0" y="1684.0" type="line"/>
      <point x="558.0" y="1684.0" type="line"/>
      <point x="438.0" y="1902.0" type="line"/>
      <point x="182.0" y="1902.0" type="line"/>
    </contour>
  </outline>
</glyph>
<glyph name="tcaron" format="2">
  <advance width="788.0"/>
  <unicode hex="0165"/>
  <anchor x="628.0" y="1616.0" name="_caronalt"/>
  <anchor x="448.0" y="0.0" name="bottom"/>
  <anchor x="628.0" y="1616.0" name="caronalt"/>
  <anchor x="140.0" y="564.0" name="stroke"/>
  <anchor x="334.0" y="1520.0" name="top"/>
  <anchor x="728.0" y="1616.0" name="topright"/>
  <outline>
    <contour>
      <point x="556.0" y="-20.0" type="curve" smooth="yes"/>
      <point x="626.0" y="-20.0"/>
      <point x="702.0" y="-10.0"/>
      <point x="756.0" y="4.0" type="curve"/>
      <point x="756.0" y="316.0" type="line"/>
      <point x="718.0" y="312.0"/>
      <point x="690.0" y="308.0"/>
      <point x="662.0" y="308.0" type="curve" smooth="yes"/>
      <point x="558.0" y="308.0"/>
      <point x="526.0" y="346.0"/>
      <point x="526.0" y="470.0" type="curve" smooth="yes"/>
      <point x="526.0" y="1480.0" type="line"/>
      <point x="212.0" y="1480.0" type="line"/>
      <point x="140.0" y="1100.0" type="line"/>
      <point x="140.0" y="426.0" type="line" smooth="yes"/>
      <point x="140.0" y="108.0"/>
      <point x="290.0" y="-20.0"/>
    </contour>
    <contour>
      <point x="0.0" y="800.0" type="line"/>
      <point x="756.0" y="800.0" type="line"/>
      <point x="756.0" y="1100.0" type="line"/>
      <point x="0.0" y="1100.0" type="line"/>
    </contour>
    <contour>
      <point x="596.0" y="1180.0" type="curve"/>
      <point x="808.0" y="1180.0" type="line"/>
      <point x="856.0" y="1290.0"/>
      <point x="886.0" y="1446.0"/>
      <point x="886.0" y="1616.0" type="curve"/>
      <point x="628.0" y="1616.0" type="line"/>
      <point x="628.0" y="1452.0"/>
      <point x="620.0" y="1334.0"/>
    </contour>
  </outline>
</glyph>
<glyph name="Tbar" format="2">
  <advance width="1186.0"/>
  <unicode hex="0166"/>
  <anchor x="594.0" y="700.0" name="_center"/>
  <anchor x="594.0" y="0.0" name="bottom"/>
  <anchor x="594.0" y="700.0" name="center"/>
  <anchor x="594.0" y="1520.0" name="top"/>
  <outline>
    <contour>
      <point x="396.0" y="0.0" type="line"/>
      <point x="790.0" y="0.0" type="line"/>
      <point x="790.0" y="1134.0" type="line"/>
      <point x="1182.0" y="1134.0" type="line"/>
      <point x="1182.0" y="1480.0" type="line"/>
      <point x="4.0" y="1480.0" type="line"/>
      <point x="4.0" y="1134.0" type="line"/>
      <point x="396.0" y="1134.0" type="line"/>
    </contour>
    <contour>
      <point x="154.0" y="570.0" type="line"/>
      <point x="1034.0" y="570.0" type="line"/>
      <point x="1034.0" y="830.0" type="line"/>
      <point x="154.0" y="830.0" type="line"/>
    </contour>
  </outline>
</glyph>
<glyph name="Umacron" format="2">
  <advance width="1338.0"/>
  <unicode hex="016A"/>
  <anchor x="674.0" y="1520.0" name="_top"/>
  <anchor x="674.0" y="0.0" name="bottom"/>
  <anchor x="926.0" y="0.0" name="ogonek"/>
  <anchor x="674.0" y="1520.0" name="top"/>
  <anchor x="940.0" y="1480.0" name="topright"/>
  <outline>
    <contour>
      <point x="674.0" y="-20.0" type="curve" smooth="yes"/>
      <point x="1064.0" y="-20.0"/>
      <point x="1256.0" y="158.0"/>
      <point x="1256.0" y="604.0" type="curve" smooth="yes"/>
      <point x="1256.0" y="1480.0" type="line"/>
      <point x="872.0" y="1480.0" type="line"/>
      <point x="872.0" y="560.0" type="line" smooth="yes"/>
      <point x="872.0" y="370.0"/>
      <point x="798.0" y="308.0"/>
      <point x="674.0" y="308.0" type="curve" smooth="yes"/>
      <point x="550.0" y="308.0"/>
      <point x="474.0" y="370.0"/>
      <point x="474.0" y="560.0" type="curve" smooth="yes"/>
      <point x="474.0" y="1480.0" type="line"/>
      <point x="82.0" y="1480.0" type="line"/>
      <point x="82.0" y="604.0" type="line" smooth="yes"/>
      <point x="82.0" y="158.0"/>
      <point x="280.0" y="-20.0"/>
    </contour>
    <contour>
      <point x="298.0" y="1622.0" type="line"/>
      <point x="1050.0" y="1622.0" type="line"/>
      <point x="1050.0" y="1868.0" type="line"/>
      <point x="298.0" y="1868.0" type="line"/>
    </contour>
  </outline>
</glyph>
<glyph name="Ubreve" format="2">
  <advance width="1338.0"/>
  <unicode hex="016C"/>
  <anchor x="674.0" y="1520.0" name="_top"/>
  <anchor x="674.0" y="0.0" name="bottom"/>
  <anchor x="926.0" y="0.0" name="ogonek"/>
  <anchor x="674.0" y="1520.0" name="top"/>
  <anchor x="940.0" y="1480.0" name="topright"/>
  <outline>
    <contour>
      <point x="674.0" y="-20.0" type="curve" smooth="yes"/>
      <point x="1064.0" y="-20.0"/>
      <point x="1256.0" y="158.0"/>
      <point x="1256.0" y="604.0" type="curve" smooth="yes"/>
      <point x="1256.0" y="1480.0" type="line"/>
      <point x="872.0" y="1480.0" type="line"/>
      <point x="872.0" y="560.0" type="line" smooth="yes"/>
      <point x="872.0" y="370.0"/>
      <point x="798.0" y="308.0"/>
      <point x="674.0" y="308.0" type="curve" smooth="yes"/>
      <point x="550.0" y="308.0"/>
      <point x="474.0" y="370.0"/>
      <point x="474.0" y="560.0" type="curve" smooth="yes"/>
      <point x="474.0" y="1480.0" type="line"/>
      <point x="82.0" y="1480.0" type="line"/>
      <point x="82.0" y="604.0" type="line" smooth="yes"/>
      <point x="82.0" y="158.0"/>
      <point x="280.0" y="-20.0"/>
    </contour>
    <contour>
      <point x="674.0" y="1586.0" type="curve" smooth="yes"/>
      <point x="888.0" y="1586.0"/>
      <point x="1020.0" y="1698.0"/>
      <point x="1040.0" y="1902.0" type="curve"/>
      <point x="808.0" y="1902.0" type="line"/>
      <point x="796.0" y="1808.0"/>
      <point x="752.0" y="1772.0"/>
      <point x="674.0" y="1772.0" type="curve" smooth="yes"/>
      <point x="596.0" y="1772.0"/>
      <point x="552.0" y="1808.0"/>
      <point x="540.0" y="1902.0" type="curve"/>
      <point x="308.0" y="1902.0" type="line"/>
      <point x="328.0" y="1698.0"/>
      <point x="460.0" y="1586.0"/>
    </contour>
  </outline>
</glyph>
<glyph name="Uring" format="2">
  <advance width="1338.0"/>
  <unicode hex="016E"/>
  <anchor x="674.0" y="1520.0" name="_top"/>
  <anchor x="674.0" y="0.0" name="bottom"/>
  <anchor x="926.0" y="0.0" name="ogonek"/>
  <anchor x="674.0" y="1520.0" name="top"/>
  <anchor x="940.0" y="1480.0" name="topright"/>
  <outline>
    <contour>
      <point x="674.0" y="-20.0" type="curve" smooth="yes"/>
      <point x="1064.0" y="-20.0"/>
      <point x="1256.0" y="158.0"/>
      <point x="1256.0" y="604.0" type="curve" smooth="yes"/>
      <point x="1256.0" y="1480.0" type="line"/>
      <point x="872.0" y="1480.0" type="line"/>
      <point x="872.0" y="560.0" type="line" smooth="yes"/>
      <point x="872.0" y="370.0"/>
      <point x="798.0" y="308.0"/>
      <point x="674.0" y="308.0" type="curve" smooth="yes"/>
      <point x="550.0" y="308.0"/>
      <point x="474.0" y="370.0"/>
      <point x="474.0" y="560.0" type="curve" smooth="yes"/>
      <point x="474.0" y="1480.0" type="line"/>
      <point x="82.0" y="1480.0" type="line"/>
      <point x="82.0" y="604.0" type="line" smooth="yes"/>
      <point x="82.0" y="158.0"/>
      <point x="280.0" y="-20.0"/>
    </contour>
    <contour>
      <point x="674.0" y="1570.0" type="curve" smooth="yes"/>
      <point x="806.0" y="1570.0"/>
      <point x="902.0" y="1662.0"/>
      <point x="902.0" y="1790.0" type="curve" smooth="yes"/>
      <point x="902.0" y="1918.0"/>
      <point x="806.0" y="2010.0"/>
      <point x="674.0" y="2010.0" type="curve" smooth="yes"/>
      <point x="542.0" y="2010.0"/>
      <point x="446.0" y="1918.0"/>
      <point x="446.0" y="1790.0" type="curve" smooth="yes"/>
      <point x="446.0" y="1662.0"/>
      <point x="542.0" y="1570.0"/>
    </contour>
    <contour>
      <point x="674.0" y="1708.0" type="curve" smooth="yes"/>
      <point x="628.0" y="1708.0"/>
      <point x="596.0" y="1740.0"/>
      <point x="596.0" y="1790.0" type="curve" smooth="yes"/>
      <point x="596.0" y="1840.0"/>
      <point x="628.0" y="1872.0"/>
      <point x="674.0" y="1872.0" type="curve" smooth="yes"/>
      <point x="720.0" y="1872.0"/>
      <point x="752.0" y="1840.0"/>
      <point x="752.0" y="1790.0" type="curve" smooth="yes"/>
      <point x="752.0" y="1740.0"/>
      <point x="720.0" y="1708.0"/>
    </contour>
  </outline>
</glyph>
<glyph name="uring" format="2">
  <advance width="1090.0"/>
  <unicode hex="016F"/>
  <anchor x="544.0" y="1200.0" name="_top"/>
  <anchor x="544.0" y="0.0" name="bottom"/>
  <anchor x="1012.0" y="0.0" name="ogonek"/>
  <anchor x="544.0" y="1200.0" name="top"/>
  <anchor x="700.0" y="1100.0" name="topright"/>
  <outline>
    <contour>
      <point x="388.0" y="-20.0" type="curve" smooth="yes"/>
      <point x="496.0" y="-20.0"/>
      <point x="580.0" y="24.0"/>
      <point x="648.0" y="112.0" type="curve"/>
      <point x="664.0" y="112.0" type="line"/>
      <point x="692.0" y="0.0" type="line"/>
      <point x="1012.0" y="0.0" type="line"/>
      <point x="1012.0" y="1100.0" type="line"/>
      <point x="626.0" y="1100.0" type="line"/>
      <point x="626.0" y="362.0" type="line"/>
      <point x="604.0" y="338.0"/>
      <point x="564.0" y="322.0"/>
      <point x="534.0" y="322.0" type="curve" smooth="yes"/>
      <point x="492.0" y="322.0"/>
      <point x="460.0" y="346.0"/>
      <point x="460.0" y="422.0" type="curve" smooth="yes"/>
      <point x="460.0" y="1100.0" type="line"/>
      <point x="74.0" y="1100.0" type="line"/>
      <point x="74.0" y="386.0" type="line" smooth="yes"/>
      <point x="74.0" y="88.0"/>
      <point x="212.0" y="-20.0"/>
    </contour>
    <contour>
      <point x="544.0" y="1214.0" type="curve" smooth="yes"/>
      <point x="676.0" y="1214.0"/>
      <point x="772.0" y="1306.0"/>
      <point x="772.0" y="1434.0" type="curve" smooth="yes"/>
      <point x="772.0" y="1562.0"/>
      <point x="676.0" y="1654.0"/>
      <point x="544.0" y="1654.0" type="curve" smooth="yes"/>
      <point x="412.0" y="1654.0"/>
      <point x="316.0" y="1562.0"/>
      <point x="316.0" y="1434.0" type="curve" smooth="yes"/>
      <point x="316.0" y="1306.0"/>
      <point x="412.0" y="1214.0"/>
    </contour>
    <contour>
      <point x="544.0" y="1352.0" type="curve" smooth="yes"/>
      <point x="498.0" y="1352.0"/>
      <point x="466.0" y="1384.0"/>
      <point x="466.0" y="1434.0" type="curve" smooth="yes"/>
      <point x="466.0" y="1484.0"/>
      <point x="498.0" y="1516.0"/>
      <point x="544.0" y="1516.0" type="curve" smooth="yes"/>
      <point x="590.0" y="1516.0"/>
      <point x="622.0" y="1484.0"/>
      <point x="622.0" y="1434.0" type="curve" smooth="yes"/>
      <point x="622.0" y="1384.0"/>
      <point x="590.0" y="1352.0"/>
    </contour>
  </outline>
</glyph>
<glyph name="Uogonek" format="2">
  <advance width="1338.0"/>
  <unicode hex="0172"/>
  <outline>
    <contour>
      <point x="756.0" y="-460.0" type="curve" smooth="yes"/>
      <point x="830.0" y="-460.0"/>
      <point x="886.0" y="-448.0"/>
      <point x="938.0" y="-430.0" type="curve"/>
      <point x="938.0" y="-280.0" type="line"/>
      <point x="890.0" y="-298.0"/>
      <point x="846.0" y="-306.0"/>
      <point x="808.0" y="-306.0" type="curve" smooth="yes"/>
      <point x="716.0" y="-306.0"/>
      <point x="680.0" y="-272.0"/>
      <point x="680.0" y="-216.0" type="curve" smooth="yes"/>
      <point x="680.0" y="-144.0"/>
      <point x="716.0" y="-62.0"/>
      <point x="946.0" y="20.0" type="curve" smooth="yes"/>
      <point x="1150.0" y="92.0"/>
      <point x="1256.0" y="274.0"/>
      <point x="1256.0" y="604.0" type="curve" smooth="yes"/>
      <point x="1256.0" y="1480.0" type="line"/>
      <point x="872.0" y="1480.0" type="line"/>
      <point x="872.0" y="560.0" type="line" smooth="yes"/>
      <point x="872.0" y="370.0"/>
      <point x="798.0" y="308.0"/>
      <point x="674.0" y="308.0" type="curve" smooth="yes"/>
      <point x="550.0" y="308.0"/>
      <point x="474.0" y="370.0"/>
      <point x="474.0" y="560.0" type="curve" smooth="yes"/>
      <point x="474.0" y="1480.0" type="line"/>
      <point x="82.0" y="1480.0" type="line"/>
      <point x="82.0" y="604.0" type="line" smooth="yes"/>
      <point x="82.0" y="158.0"/>
      <point x="280.0" y="-20.0"/>
      <point x="674.0" y="-20.0" type="curve" smooth="yes"/>
      <point x="712.0" y="-20.0" type="line"/>
      <point x="748.0" y="62.0" type="line"/>
      <point x="538.0" y="-26.0"/>
      <point x="464.0" y="-116.0"/>
      <point x="464.0" y="-238.0" type="curve" smooth="yes"/>
      <point x="464.0" y="-374.0"/>
      <point x="556.0" y="-460.0"/>
    </contour>
  </outline>
</glyph>
<glyph name="Wcircumflex" format="2">
  <advance width="2028.0"/>
  <unicode hex="0174"/>
  <anchor x="1014.0" y="1520.0" name="_top"/>
  <anchor x="1014.0" y="0.0" name="bottom"/>
  <anchor x="1014.0" y="1520.0" name="top"/>
  <outline>
    <contour>
      <point x="308.0" y="0.0" type="line"/>
      <point x="816.0" y="0.0" type="line"/>
      <point x="1076.0" y="1200.0" type="line"/>
      <point x="976.0" y="1200.0" type="line"/>
      <point x="1212.0" y="0.0" type="line"/>
      <point x="1720.0" y="0.0" type="line"/>
      <point x="2024.0" y="1480.0" type="line"/>
      <point x="1658.0" y="1480.0" type="line"/>
      <point x="1394.0" y="138.0" type="line"/>
      <point x="1500.0" y="138.0" type="line"/>
      <point x="1240.0" y="1480.0" type="line"/>
      <point x="816.0" y="1480.0" type="line"/>
      <point x="536.0" y="138.0" type="line"/>
      <point x="650.0" y="138.0" type="line"/>
      <point x="398.0" y="1480.0" type="line"/>
      <point x="4.0" y="1480.0" type="line"/>
    </contour>
    <contour>
      <point x="660.0" y="1586.0" type="line"/>
      <point x="916.0" y="1586.0" type="line"/>
      <point x="1036.0" y="1804.0" type="line"/>
      <point x="992.0" y="1804.0" type="line"/>
      <point x="1112.0" y="1586.0" type="line"/>
      <point x="1368.0" y="1586.0" type="line"/>
      <point x="1176.0" y="1902.0" type="line"/>
      <point x="852.0" y="1902.0" type="line"/>
    </contour>
  </outline>
</glyph>
<glyph name="wcircumflex" format="2">
  <advance width="1630.0"/>
  <unicode hex="0175"/>
  <anchor x="816.0" y="1200.0" name="_top"/>
  <anchor x="816.0" y="0.0" name="bottom"/>
  <anchor x="816.0" y="1200.0" name="top"/>
  <outline>
    <contour>
      <point x="252.0" y="0.0" type="line"/>
      <point x="662.0" y="0.0" type="line"/>
      <point x="830.0" y="744.0" type="line"/>
      <point x="808.0" y="744.0" type="line"/>
      <point x="970.0" y="0.0" type="line"/>
      <point x="1380.0" y="0.0" type="line"/>
      <point x="1626.0" y="1100.0" type="line"/>
      <point x="1286.0" y="1100.0" type="line"/>
      <point x="1148.0" y="420.0" type="line"/>
      <point x="1170.0" y="420.0" type="line"/>
      <point x="1030.0" y="1100.0" type="line"/>
      <point x="620.0" y="1100.0" type="line"/>
      <point x="474.0" y="418.0" type="line"/>
      <point x="488.0" y="418.0" type="line"/>
      <point x="358.0" y="1100.0" type="line"/>
      <point x="4.0" y="1100.0" type="line"/>
    </contour>
    <contour>
      <point x="462.0" y="1220.0" type="line"/>
      <point x="718.0" y="1220.0" type="line"/>
      <point x="838.0" y="1492.0" type="line"/>
      <point x="794.0" y="1492.0" type="line"/>
      <point x="914.0" y="1220.0" type="line"/>
      <point x="1170.0" y="1220.0" type="line"/>
      <point x="978.0" y="1616.0" type="line"/>
      <point x="654.0" y="1616.0" type="line"/>
    </contour>
  </outline>
</glyph>
<glyph name="Ycircumflex" format="2">
  <advance width="1186.0"/>
  <unicode hex="0176"/>
  <anchor x="596.0" y="1520.0" name="_top"/>
  <anchor x="594.0" y="0.0" name="bottom"/>
  <anchor x="596.0" y="1520.0" name="top"/>
  <anchor x="-46.0" y="1480.0" name="topleft"/>
  <outline>
    <contour>
      <point x="398.0" y="0.0" type="line"/>
      <point x="790.0" y="0.0" type="line"/>
      <point x="790.0" y="770.0" type="line"/>
      <point x="710.0" y="460.0" type="line"/>
      <point x="1252.0" y="1480.0" type="line"/>
      <point x="876.0" y="1480.0" type="line"/>
      <point x="556.0" y="870.0" type="line"/>
      <point x="656.0" y="870.0" type="line"/>
      <point x="338.0" y="1480.0" type="line"/>
      <point x="-72.0" y="1480.0" type="line"/>
      <point x="478.0" y="460.0" type="line"/>
      <point x="398.0" y="776.0" type="line"/>
    </contour>
    <contour>
      <point x="242.0" y="1586.0" type="line"/>
      <point x="498.0" y="1586.0" type="line"/>
      <point x="618.0" y="1804.0" type="line"/>
      <point x="574.0" y="1804.0" type="line"/>
      <point x="694.0" y="1586.0" type="line"/>
      <point x="950.0" y="1586.0" type="line"/>
      <point x="758.0" y="1902.0" type="line"/>
      <point x="434.0" y="1902.0" type="line"/>
    </contour>
  </outline>
</glyph>
<glyph name="Ydieresis" format="2">
  <advance width="1186.0"/>
  <unicode hex="0178"/>
  <anchor x="596.0" y="1520.0" name="_top"/>
  <anchor x="594.0" y="0.0" name="bottom"/>
  <anchor x="596.0" y="1520.0" name="top"/>
  <anchor x="-46.0" y="1480.0" name="topleft"/>
  <outline>
    <contour>
      <point x="398.0" y="0.0" type="line"/>
      <point x="790.0" y="0.0" type="line"/>
      <point x="790.0" y="770.0" type="line"/>
      <point x="710.0" y="460.0" type="line"/>
      <point x="1252.0" y="1480.0" type="line"/>
      <point x="876.0" y="1480.0" type="line"/>
      <point x="556.0" y="870.0" type="line"/>
      <point x="656.0" y="870.0" type="line"/>
      <point x="338.0" y="1480.0" type="line"/>
      <point x="-72.0" y="1480.0" type="line"/>
      <point x="478.0" y="460.0" type="line"/>
      <point x="398.0" y="776.0" type="line"/>
    </contour>
    <contour>
      <point x="846.0" y="1570.0" type="curve" smooth="yes"/>
      <point x="978.0" y="1570.0"/>
      <point x="1054.0" y="1634.0"/>
      <point x="1054.0" y="1750.0" type="curve" smooth="yes"/>
      <point x="1054.0" y="1866.0"/>
      <point x="978.0" y="1930.0"/>
      <point x="846.0" y="1930.0" type="curve" smooth="yes"/>
      <point x="714.0" y="1930.0"/>
      <point x="638.0" y="1866.0"/>
      <point x="638.0" y="1750.0" type="curve" smooth="yes"/>
      <point x="638.0" y="1634.0"/>
      <point x="714.0" y="1570.0"/>
    </contour>
    <contour>
      <point x="346.0" y="1570.0" type="curve" smooth="yes"/>
      <point x="478.0" y="1570.0"/>
      <point x="554.0" y="1634.0"/>
      <point x="554.0" y="1750.0" type="curve" smooth="yes"/>
      <point x="554.0" y="1866.0"/>
      <point x="478.0" y="1930.0"/>
      <point x="346.0" y="1930.0" type="curve" smooth="yes"/>
      <point x="214.0" y="1930.0"/>
      <point x="138.0" y="1866.0"/>
      <point x="138.0" y="1750.0" type="curve" smooth="yes"/>
      <point x="138.0" y="1634.0"/>
      <point x="214.0" y="1570.0"/>
    </contour>
  </outline>
</glyph>
<glyph name="zacute" format="2">
  <advance width="876.0"/>
  <unicode hex="017A"/>
  <anchor x="446.0" y="1200.0" name="_top"/>
  <anchor x="446.0" y="0.0" name="bottom"/>
  <anchor x="446.0" y="1200.0" name="top"/>
  <outline>
    <contour>
      <point x="42.0" y="0.0" type="line"/>
      <point x="850.0" y="0.0" type="line"/>
      <point x="850.0" y="300.0" type="line"/>
      <point x="422.0" y="300.0" type="line"/>
      <point x="422.0" y="228.0" type="line"/>
      <point x="840.0" y="860.0" type="line"/>
      <point x="840.0" y="1100.0" type="line"/>
      <point x="52.0" y="1100.0" type="line"/>
      <point x="52.0" y="800.0" type="line"/>
      <point x="460.0" y="800.0" type="line"/>
      <point x="460.0" y="872.0" type="line"/>
      <point x="42.0" y="240.0" type="line"/>
    </contour>
    <contour>
      <point x="278.0" y="1220.0" type="line"/>
      <point x="614.0" y="1220.0" type="line"/>
      <point x="874.0" y="1616.0" type="line"/>
      <point x="486.0" y="1616.0" type="line"/>
    </contour>
  </outline>
</glyph>
<glyph name="Zdotaccent" format="2">
  <advance width="1112.0"/>
  <unicode hex="017B"/>
  <anchor x="558.0" y="1520.0" name="_top"/>
  <anchor x="550.0" y="0.0" name="bottom"/>
  <anchor x="558.0" y="1520.0" name="top"/>
  <outline>
    <contour>
      <point x="32.0" y="0.0" type="line"/>
      <point x="1080.0" y="0.0" type="line"/>
      <point x="1080.0" y="346.0" type="line"/>
      <point x="502.0" y="346.0" type="line"/>
      <point x="502.0" y="280.0" type="line"/>
      <point x="1070.0" y="1260.0" type="line"/>
      <point x="1070.0" y="1480.0" type="line"/>
      <point x="42.0" y="1480.0" type="line"/>
      <point x="42.0" y="1134.0" type="line"/>
      <point x="600.0" y="1134.0" type="line"/>
      <point x="600.0" y="1200.0" type="line"/>
      <point x="32.0" y="220.0" type="line"/>
    </contour>
    <contour>
      <point x="558.0" y="1570.0" type="curve" smooth="yes"/>
      <point x="704.0" y="1570.0"/>
      <point x="794.0" y="1628.0"/>
      <point x="794.0" y="1750.0" type="curve" smooth="yes"/>
      <point x="794.0" y="1872.0"/>
      <point x="704.0" y="1930.0"/>
      <point x="558.0" y="1930.0" type="curve" smooth="yes"/>
      <point x="412.0" y="1930.0"/>
      <point x="322.0" y="1872.0"/>
      <point x="322.0" y="1750.0" type="curve" smooth="yes"/>
      <point x="322.0" y="1628.0"/>
      <point x="412.0" y="1570.0"/>
    </contour>
  </outline>
</glyph>
<glyph name="zcaron" format="2">
  <advance width="876.0"/>
  <unicode hex="017E"/>
  <anchor x="446.0" y="1200.0" name="_top"/>
  <anchor x="446.0" y="0.0" name="bottom"/>
  <anchor x="446.0" y="1200.0" name="top"/>
  <outline>
    <contour>
      <point x="42.0" y="0.0" type="line"/>
      <point x="850.0" y="0.0" type="line"/>
      <point x="850.0" y="300.0" type="line"/>
      <point x="422.0" y="300.0" type="line"/>
      <point x="422.0" y="228.0" type="line"/>
      <point x="840.0" y="860.0" type="line"/>
      <point x="840.0" y="1100.0" type="line"/>
      <point x="52.0" y="1100.0" type="line"/>
      <point x="52.0" y="800.0" type="line"/>
      <point x="460.0" y="800.0" type="line"/>
      <point x="460.0" y="872.0" type="line"/>
      <point x="42.0" y="240.0" type="line"/>
    </contour>
    <contour>
      <point x="284.0" y="1220.0" type="line"/>
      <point x="608.0" y="1220.0" type="line"/>
      <point x="800.0" y="1616.0" type="line"/>
      <point x="544.0" y="1616.0" type="line"/>
      <point x="424.0" y="1344.0" type="line"/>
      <point x="468.0" y="1344.0" type="line"/>
      <point x="348.0" y="1616.0" type="line"/>
      <point x="92.0" y="1616.0" type="line"/>
    </contour>
  </outline>
</glyph>
<glyph name="DZcaron" format="2">
  <advance width="2404.0"/>
  <unicode hex="01C4"/>
  <anchor x="1850.0" y="1520.0" name="_top"/>
  <anchor x="638.0" y="0.0" name="bottom"/>
  <anchor x="652.0" y="740.0" name="center"/>
  <anchor x="88.0" y="762.0" name="stroke"/>
  <anchor x="618.0" y="1520.0" name="top"/>
  <outline>
    <contour>
      <point x="472.0" y="-20.0" type="curve" smooth="yes"/>
      <point x="1014.0" y="-20.0"/>
      <point x="1278.0" y="212.0"/>
      <point x="1278.0" y="740.0" type="curve" smooth="yes"/>
      <point x="1278.0" y="1264.0"/>
      <point x="1028.0" y="1500.0"/>
      <point x="526.0" y="1500.0" type="curve" smooth="yes"/>
      <point x="370.0" y="1500.0"/>
      <point x="224.0" y="1480.0"/>
      <point x="88.0" y="1450.0" type="curve"/>
      <point x="88.0" y="2.0" type="line"/>
      <point x="208.0" y="-12.0"/>
      <point x="348.0" y="-20.0"/>
    </contour>
    <contour>
      <point x="580.0" y="306.0" type="curve" smooth="yes"/>
      <point x="558.0" y="306.0"/>
      <point x="524.0" y="306.0"/>
      <point x="480.0" y="308.0" type="curve"/>
      <point x="480.0" y="1166.0" type="line"/>
      <point x="504.0" y="1172.0"/>
      <point x="546.0" y="1176.0"/>
      <point x="574.0" y="1176.0" type="curve" smooth="yes"/>
      <point x="756.0" y="1176.0"/>
      <point x="874.0" y="1078.0"/>
      <point x="874.0" y="740.0" type="curve" smooth="yes"/>
      <point x="874.0" y="404.0"/>
      <point x="764.0" y="306.0"/>
    </contour>
    <contour>
      <point x="1324.0" y="0.0" type="line"/>
      <point x="2372.0" y="0.0" type="line"/>
      <point x="2372.0" y="346.0" type="line"/>
      <point x="1794.0" y="346.0" type="line"/>
      <point x="1794.0" y="280.0" type="line"/>
      <point x="2362.0" y="1260.0" type="line"/>
      <point x="2362.0" y="1480.0" type="line"/>
      <point x="1334.0" y="1480.0" type="line"/>
      <point x="1334.0" y="1134.0" type="line"/>
      <point x="1892.0" y="1134.0" type="line"/>
      <point x="1892.0" y="1200.0" type="line"/>
      <point x="1324.0" y="220.0" type="line"/>
    </contour>
    <contour>
      <point x="1688.0" y="1586.0" type="line"/>
      <point x="2012.0" y="1586.0" type="line"/>
      <point x="2204.0" y="1902.0" type="line"/>
      <point x="1948.0" y="1902.0" type="line"/>
      <point x="1828.0" y="1684.0" type="line"/>
      <point x="1872.0" y="1684.0" type="line"/>
      <point x="1752.0" y="1902.0" type="line"/>
      <point x="1496.0" y="1902.0" type="line"/>
    </contour>
  </outline>
</glyph>
<glyph name="Lj" format="2">
  <advance width="1580.0"/>
  <unicode hex="01C8"/>
  <anchor x="560.0" y="0.0" name="bottom"/>
  <anchor x="676.0" y="1616.0" name="caronalt"/>
  <anchor x="796.0" y="894.0" name="periodcentered"/>
  <anchor x="292.0" y="854.0" name="slash"/>
  <anchor x="292.0" y="1520.0" name="top"/>
  <outline>
    <contour>
      <point x="88.0" y="0.0" type="line"/>
      <point x="1032.0" y="0.0" type="line"/>
      <point x="1032.0" y="346.0" type="line"/>
      <point x="480.0" y="346.0" type="line"/>
      <point x="480.0" y="1480.0" type="line"/>
      <point x="88.0" y="1480.0" type="line"/>
    </contour>
    <component base="jdotless" xOffset="1036.0"/>
    <component base="dotaccentcomb" xOffset="708.0"/>
  </outline>
</glyph>
<glyph name="lj" format="2">
  <advance width="1086.0"/>
  <unicode hex="01C9"/>
  <anchor x="814.0" y="1200.0" name="_top"/>
  <anchor x="272.0" y="0.0" name="bottom"/>
  <anchor x="544.0" y="1616.0" name="caronalt"/>
  <anchor x="704.0" y="794.0" name="periodcentered"/>
  <anchor x="272.0" y="714.0" name="slash"/>
  <anchor x="272.0" y="1616.0" name="top"/>
  <outline>
    <contour>
      <point x="78.0" y="0.0" type="line"/>
      <point x="464.0" y="0.0" type="line"/>
      <point x="464.0" y="1616.0" type="line"/>
      <point x="78.0" y="1616.0" type="line"/>
    </contour>
    <contour>
      <point x="738.0" y="-476.0" type="line"/>
      <point x="940.0" y="-258.0"/>
      <point x="1008.0" y="-54.0"/>
      <point x="1008.0" y="196.0" type="curve" smooth="yes"/>
      <point x="1008.0" y="1100.0" type="line"/>
      <point x="620.0" y="1100.0" type="line"/>
      <point x="620.0" y="180.0" type="line" smooth="yes"/>
      <point x="620.0" y="-26.0"/>
      <point x="590.0" y="-152.0"/>
      <point x="482.0" y="-308.0" type="curve"/>
    </contour>
    <contour>
      <point x="814.0" y="1210.0" type="curve" smooth="yes"/>
      <point x="976.0" y="1210.0"/>
      <point x="1048.0" y="1288.0"/>
      <point x="1048.0" y="1418.0" type="curve" smooth="yes"/>
      <point x="1048.0" y="1548.0"/>
      <point x="976.0" y="1626.0"/>
      <point x="814.0" y="1626.0" type="curve" smooth="yes"/>
      <point x="652.0" y="1626.0"/>
      <point x="580.0" y="1548.0"/>
      <point x="580.0" y="1418.0" type="curve" smooth="yes"/>
      <point x="580.0" y="1288.0"/>
      <point x="652.0" y="1210.0"/>
    </contour>
  </outline>
</glyph>
<glyph name="nj" format="2">
  <advance width="1642.0"/>
  <unicode hex="01CC"/>
  <anchor x="1370.0" y="1200.0" name="_top"/>
  <anchor x="10.0" y="1200.0" name="apostrophe"/>
  <anchor x="552.0" y="0.0" name="bottom"/>
  <anchor x="552.0" y="1200.0" name="top"/>
  <outline>
    <contour>
      <point x="78.0" y="0.0" type="line"/>
      <point x="464.0" y="0.0" type="line"/>
      <point x="464.0" y="736.0" type="line"/>
      <point x="486.0" y="760.0"/>
      <point x="522.0" y="776.0"/>
      <point x="560.0" y="776.0" type="curve" smooth="yes"/>
      <point x="606.0" y="776.0"/>
      <point x="638.0" y="754.0"/>
      <point x="638.0" y="678.0" type="curve" smooth="yes"/>
      <point x="638.0" y="0.0" type="line"/>
      <point x="1024.0" y="0.0" type="line"/>
      <point x="1024.0" y="708.0" type="line" smooth="yes"/>
      <point x="1024.0" y="1008.0"/>
      <point x="886.0" y="1118.0"/>
      <point x="706.0" y="1118.0" type="curve" smooth="yes"/>
      <point x="594.0" y="1118.0"/>
      <point x="506.0" y="1074.0"/>
      <point x="442.0" y="988.0" type="curve"/>
      <point x="426.0" y="988.0" type="line"/>
      <point x="398.0" y="1100.0" type="line"/>
      <point x="78.0" y="1100.0" type="line"/>
    </contour>
    <contour>
      <point x="1294.0" y="-476.0" type="line"/>
      <point x="1496.0" y="-258.0"/>
      <point x="1564.0" y="-54.0"/>
      <point x="1564.0" y="196.0" type="curve" smooth="yes"/>
      <point x="1564.0" y="1100.0" type="line"/>
      <point x="1176.0" y="1100.0" type="line"/>
      <point x="1176.0" y="180.0" type="line" smooth="yes"/>
      <point x="1176.0" y="-26.0"/>
      <point x="1146.0" y="-152.0"/>
      <point x="1038.0" y="-308.0" type="curve"/>
    </contour>
    <contour>
      <point x="1370.0" y="1210.0" type="curve" smooth="yes"/>
      <point x="1532.0" y="1210.0"/>
      <point x="1604.0" y="1288.0"/>
      <point x="1604.0" y="1418.0" type="curve" smooth="yes"/>
      <point x="1604.0" y="1548.0"/>
      <point x="1532.0" y="1626.0"/>
      <point x="1370.0" y="1626.0" type="curve" smooth="yes"/>
      <point x="1208.0" y="1626.0"/>
      <point x="1136.0" y="1548.0"/>
      <point x="1136.0" y="1418.0" type="curve" smooth="yes"/>
      <point x="1136.0" y="1288.0"/>
      <point x="1208.0" y="1210.0"/>
    </contour>
  </outline>
</glyph>
<glyph name="Oogonek" format="2">
  <advance width="1396.0"/>
  <unicode hex="01EA"/>
  <outline>
    <contour>
      <point x="760.0" y="-460.0" type="curve" smooth="yes"/>
      <point x="834.0" y="-460.0"/>
      <point x="890.0" y="-448.0"/>
      <point x="942.0" y="-430.0" type="curve"/>
      <point x="942.0" y="-280.0" type="line"/>
      <point x="894.0" y="-298.0"/>
      <point x="850.0" y="-306.0"/>
      <point x="812.0" y="-306.0" type="curve" smooth="yes"/>
      <point x="720.0" y="-306.0"/>
      <point x="684.0" y="-272.0"/>
      <point x="684.0" y="-216.0" type="curve" smooth="yes"/>
      <point x="684.0" y="-130.0"/>
      <point x="752.0" y="-54.0"/>
      <point x="954.0" y="20.0" type="curve" smooth="yes"/>
      <point x="1164.0" y="96.0"/>
      <point x="1342.0" y="298.0"/>
      <point x="1342.0" y="740.0" type="curve" smooth="yes"/>
      <point x="1342.0" y="1276.0"/>
      <point x="1078.0" y="1500.0"/>
      <point x="698.0" y="1500.0" type="curve" smooth="yes"/>
      <point x="318.0" y="1500.0"/>
      <point x="54.0" y="1276.0"/>
      <point x="54.0" y="740.0" type="curve" smooth="yes"/>
      <point x="54.0" y="204.0"/>
      <point x="312.0" y="-20.0"/>
      <point x="698.0" y="-20.0" type="curve" smooth="yes"/>
      <point x="726.0" y="-20.0" type="line"/>
      <point x="766.0" y="64.0" type="line"/>
      <point x="544.0" y="-18.0"/>
      <point x="468.0" y="-114.0"/>
      <point x="468.0" y="-238.0" type="curve" smooth="yes"/>
      <point x="468.0" y="-374.0"/>
      <point x="560.0" y="-460.0"/>
    </contour>
    <contour>
      <point x="698.0" y="304.0" type="curve" smooth="yes"/>
      <point x="544.0" y="304.0"/>
      <point x="458.0" y="414.0"/>
      <point x="458.0" y="748.0" type="curve" smooth="yes"/>
      <point x="458.0" y="1066.0"/>
      <point x="544.0" y="1176.0"/>
      <point x="698.0" y="1176.0" type="curve" smooth="yes"/>
      <point x="852.0" y="1176.0"/>
      <point x="938.0" y="1066.0"/>
      <point x="938.0" y="732.0" type="curve" smooth="yes"/>
      <point x="938.0" y="414.0"/>
      <point x="852.0" y="304.0"/>
    </contour>
  </outline>
</glyph>
<glyph name="oogonek" format="2">
  <advance width="1068.0"/>
  <unicode hex="01EB"/>
  <anchor x="534.0" y="0.0" name="bottom"/>
  <anchor x="534.0" y="550.0" name="center"/>
  <anchor x="534.0" y="1200.0" name="top"/>
  <anchor x="534.0" y="1100.0" name="topright"/>
  <outline>
    <contour>
      <point x="586.0" y="-460.0" type="curve" smooth="yes"/>
      <point x="660.0" y="-460.0"/>
      <point x="710.0" y="-446.0"/>
      <point x="756.0" y="-430.0" type="curve"/>
      <point x="756.0" y="-280.0" type="line"/>
      <point x="708.0" y="-298.0"/>
      <point x="670.0" y="-306.0"/>
      <point x="638.0" y="-306.0" type="curve" smooth="yes"/>
      <point x="566.0" y="-306.0"/>
      <point x="530.0" y="-266.0"/>
      <point x="530.0" y="-210.0" type="curve" smooth="yes"/>
      <point x="530.0" y="-134.0"/>
      <point x="566.0" y="-66.0"/>
      <point x="756.0" y="16.0" type="curve" smooth="yes"/>
      <point x="938.0" y="94.0"/>
      <point x="1028.0" y="260.0"/>
      <point x="1028.0" y="546.0" type="curve" smooth="yes"/>
      <point x="1028.0" y="926.0"/>
      <point x="850.0" y="1118.0"/>
      <point x="534.0" y="1118.0" type="curve" smooth="yes"/>
      <point x="218.0" y="1118.0"/>
      <point x="40.0" y="936.0"/>
      <point x="40.0" y="542.0" type="curve" smooth="yes"/>
      <point x="40.0" y="158.0"/>
      <point x="218.0" y="-22.0"/>
      <point x="534.0" y="-22.0" type="curve"/>
      <point x="548.0" y="46.0" type="line"/>
      <point x="378.0" y="-32.0"/>
      <point x="314.0" y="-116.0"/>
      <point x="314.0" y="-238.0" type="curve" smooth="yes"/>
      <point x="314.0" y="-374.0"/>
      <point x="406.0" y="-460.0"/>
    </contour>
    <contour>
      <point x="534.0" y="262.0" type="curve" smooth="yes"/>
      <point x="466.0" y="262.0"/>
      <point x="434.0" y="302.0"/>
      <point x="434.0" y="546.0" type="curve" smooth="yes"/>
      <point x="434.0" y="790.0"/>
      <point x="470.0" y="834.0"/>
      <point x="534.0" y="834.0" type="curve" smooth="yes"/>
      <point x="598.0" y="834.0"/>
      <point x="634.0" y="790.0"/>
      <point x="634.0" y="542.0" type="curve" smooth="yes"/>
      <point x="634.0" y="302.0"/>
      <point x="602.0" y="262.0"/>
    </contour>
  </outline>
</glyph>
<glyph name="dz" format="2">
  <advance width="1980.0"/>
  <unicode hex="01F3"/>
  <anchor x="562.0" y="0.0" name="bottom"/>
  <anchor x="1106.0" y="1616.0" name="caronalt"/>
  <anchor x="546.0" y="540.0" name="center"/>
  <anchor x="1026.0" y="1350.0" name="stroke"/>
  <anchor x="546.0" y="1200.0" name="top"/>
  <anchor x="1064.0" y="1100.0" name="topright"/>
  <outline>
    <contour>
      <point x="430.0" y="-22.0" type="curve" smooth="yes"/>
      <point x="542.0" y="-22.0"/>
      <point x="618.0" y="32.0"/>
      <point x="658.0" y="120.0" type="curve"/>
      <point x="674.0" y="120.0" type="line"/>
      <point x="700.0" y="0.0" type="line"/>
      <point x="1026.0" y="0.0" type="line"/>
      <point x="1026.0" y="1616.0" type="line"/>
      <point x="640.0" y="1616.0" type="line"/>
      <point x="640.0" y="1116.0" type="line"/>
      <point x="634.0" y="1116.0"/>
      <point x="630.0" y="1116.0"/>
      <point x="624.0" y="1116.0" type="curve" smooth="yes"/>
      <point x="212.0" y="1116.0"/>
      <point x="40.0" y="904.0"/>
      <point x="40.0" y="528.0" type="curve" smooth="yes"/>
      <point x="40.0" y="146.0"/>
      <point x="226.0" y="-22.0"/>
    </contour>
    <contour>
      <point x="564.0" y="300.0" type="curve" smooth="yes"/>
      <point x="484.0" y="300.0"/>
      <point x="434.0" y="346.0"/>
      <point x="434.0" y="562.0" type="curve" smooth="yes"/>
      <point x="434.0" y="770.0"/>
      <point x="488.0" y="824.0"/>
      <point x="592.0" y="824.0" type="curve" smooth="yes"/>
      <point x="602.0" y="824.0"/>
      <point x="624.0" y="822.0"/>
      <point x="640.0" y="820.0" type="curve"/>
      <point x="640.0" y="320.0" type="line"/>
      <point x="620.0" y="308.0"/>
      <point x="592.0" y="300.0"/>
    </contour>
    <contour>
      <point x="1146.0" y="0.0" type="line"/>
      <point x="1954.0" y="0.0" type="line"/>
      <point x="1954.0" y="300.0" type="line"/>
      <point x="1526.0" y="300.0" type="line"/>
      <point x="1526.0" y="228.0" type="line"/>
      <point x="1944.0" y="860.0" type="line"/>
      <point x="1944.0" y="1100.0" type="line"/>
      <point x="1156.0" y="1100.0" type="line"/>
      <point x="1156.0" y="800.0" type="line"/>
      <point x="1564.0" y="800.0" type="line"/>
      <point x="1564.0" y="872.0" type="line"/>
      <point x="1146.0" y="240.0" type="line"/>
    </contour>
  </outline>
</glyph>
<glyph name="Aringacute" format="2">
  <advance width="1300.0"/>
  <unicode hex="01FA"/>
  <anchor x="650.0" y="1520.0" name="_top"/>
  <anchor x="650.0" y="0.0" name="bottom"/>
  <anchor x="1308.0" y="0.0" name="ogonek"/>
  <anchor x="650.0" y="1520.0" name="top"/>
  <outline>
    <contour>
      <point x="-8.0" y="0.0" type="line"/>
      <point x="372.0" y="0.0" type="line"/>
      <point x="664.0" y="1306.0" type="line"/>
      <point x="628.0" y="1306.0" type="line"/>
      <point x="924.0" y="0.0" type="line"/>
      <point x="1308.0" y="0.0" type="line"/>
      <point x="944.0" y="1480.0" type="line"/>
      <point x="356.0" y="1480.0" type="line"/>
    </contour>
    <contour>
      <point x="246.0" y="344.0" type="line"/>
      <point x="1052.0" y="344.0" type="line"/>
      <point x="980.0" y="674.0" type="line"/>
      <point x="318.0" y="674.0" type="line"/>
    </contour>
    <contour>
      <point x="650.0" y="1570.0" type="curve" smooth="yes"/>
      <point x="782.0" y="1570.0"/>
      <point x="878.0" y="1662.0"/>
      <point x="878.0" y="1790.0" type="curve" smooth="yes"/>
      <point x="878.0" y="1918.0"/>
      <point x="782.0" y="2010.0"/>
      <point x="650.0" y="2010.0" type="curve" smooth="yes"/>
      <point x="518.0" y="2010.0"/>
      <point x="422.0" y="1918.0"/>
      <point x="422.0" y="1790.0" type="curve" smooth="yes"/>
      <point x="422.0" y="1662.0"/>
      <point x="518.0" y="1570.0"/>
    </contour>
    <contour>
      <point x="650.0" y="1708.0" type="curve" smooth="yes"/>
      <point x="604.0" y="1708.0"/>
      <point x="572.0" y="1740.0"/>
      <point x="572.0" y="1790.0" type="curve" smooth="yes"/>
      <point x="572.0" y="1840.0"/>
      <point x="604.0" y="1872.0"/>
      <point x="650.0" y="1872.0" type="curve" smooth="yes"/>
      <point x="696.0" y="1872.0"/>
      <point x="728.0" y="1840.0"/>
      <point x="728.0" y="1790.0" type="curve" smooth="yes"/>
      <point x="728.0" y="1740.0"/>
      <point x="696.0" y="1708.0"/>
    </contour>
    <contour>
      <point x="812.0" y="1844.0" type="line"/>
      <point x="1064.0" y="2136.0" type="line"/>
      <point x="768.0" y="2136.0" type="line"/>
      <point x="632.0" y="1958.0" type="line"/>
    </contour>
  </outline>
</glyph>
<glyph name="AEacute" format="2">
  <advance width="1842.0"/>
  <unicode hex="01FC"/>
  <anchor x="954.0" y="1520.0" name="_top"/>
  <anchor x="954.0" y="0.0" name="bottom"/>
  <anchor x="954.0" y="1520.0" name="top"/>
  <outline>
    <contour>
      <point x="-8.0" y="0.0" type="line"/>
      <point x="378.0" y="0.0" type="line"/>
      <point x="638.0" y="1146.0" type="line"/>
      <point x="968.0" y="1146.0" type="line"/>
      <point x="968.0" y="1480.0" type="line"/>
      <point x="356.0" y="1480.0" type="line"/>
    </contour>
    <contour>
      <point x="246.0" y="342.0" type="line"/>
      <point x="958.0" y="342.0" type="line"/>
      <point x="958.0" y="676.0" type="line"/>
      <point x="318.0" y="676.0" type="line"/>
    </contour>
    <contour>
      <point x="890.0" y="0.0" type="line"/>
      <point x="1784.0" y="0.0" type="line"/>
      <point x="1784.0" y="334.0" type="line"/>
      <point x="1244.0" y="334.0" type="line"/>
      <point x="1174.0" y="1146.0" type="line"/>
      <point x="1774.0" y="1146.0" type="line"/>
      <point x="1774.0" y="1480.0" type="line"/>
      <point x="782.0" y="1480.0" type="line"/>
    </contour>
    <contour>
      <point x="1078.0" y="588.0" type="line"/>
      <point x="1670.0" y="588.0" type="line"/>
      <point x="1670.0" y="922.0" type="line"/>
      <point x="1078.0" y="922.0" type="line"/>
    </contour>
    <contour>
      <point x="782.0" y="1586.0" type="line"/>
      <point x="1126.0" y="1586.0" type="line"/>
      <point x="1344.0" y="1902.0" type="line"/>
      <point x="944.0" y="1902.0" type="line"/>
    </contour>
  </outline>
</glyph>
<glyph name="Einvertedbreve" format="2">
  <advance width="1128.0"/>
  <unicode hex="0206"/>
  <anchor x="596.0" y="1520.0" name="_top"/>
  <anchor x="596.0" y="0.0" name="bottom"/>
  <anchor x="990.0" y="0.0" name="ogonek"/>
  <anchor x="596.0" y="1520.0" name="top"/>
  <anchor x="36.0" y="1480.0" name="topleft"/>
  <outline>
    <contour>
      <point x="88.0" y="0.0" type="line"/>
      <point x="1070.0" y="0.0" type="line"/>
      <point x="1070.0" y="334.0" type="line"/>
      <point x="474.0" y="334.0" type="line"/>
      <point x="474.0" y="1146.0" type="line"/>
      <point x="1060.0" y="1146.0" type="line"/>
      <point x="1060.0" y="1480.0" type="line"/>
      <point x="88.0" y="1480.0" type="line"/>
    </contour>
    <contour>
      <point x="366.0" y="588.0" type="line"/>
      <point x="956.0" y="588.0" type="line"/>
      <point x="956.0" y="922.0" type="line"/>
      <point x="366.0" y="922.0" type="line"/>
    </contour>
    <contour>
      <point x="230.0" y="1586.0" type="curve"/>
      <point x="462.0" y="1586.0" type="line"/>
      <point x="474.0" y="1680.0"/>
      <point x="518.0" y="1716.0"/>
      <point x="596.0" y="1716.0" type="curve" smooth="yes"/>
      <point x="674.0" y="1716.0"/>
      <point x="718.0" y="1680.0"/>
      <point x="730.0" y="1586.0" type="curve"/>
      <point x="962.0" y="1586.0" type="line"/>
      <point x="942.0" y="1790.0"/>
      <point x="810.0" y="1902.0"/>
      <point x="596.0" y="1902.0" type="curve" smooth="yes"/>
      <point x="382.0" y="1902.0"/>
      <point x="250.0" y="1790.0"/>
    </contour>
  </outline>
</glyph>
<glyph name="idblgrave" format="2">
  <advance width="544.0"/>
  <unicode hex="0209"/>
  <anchor x="272.0" y="1200.0" name="_top"/>
  <anchor x="272.0" y="0.0" name="bottom"/>
  <anchor x="466.0" y="0.0" name="ogonek"/>
  <anchor x="272.0" y="1200.0" name="top"/>
  <outline>
    <contour>
      <point x="78.0" y="0.0" type="line"/>
      <point x="466.0" y="0.0" type="line"/>
      <point x="466.0" y="1100.0" type="line"/>
      <point x="78.0" y="1100.0" type="line"/>
    </contour>
    <contour>
      <point x="340.0" y="1220.0" type="line"/>
      <point x="636.0" y="1220.0" type="line"/>
      <point x="496.0" y="1616.0" type="line"/>
      <point x="184.0" y="1616.0" type="line"/>
    </contour>
    <contour>
      <point x="-92.0" y="1220.0" type="line"/>
      <point x="204.0" y="1220.0" type="line"/>
      <point x="64.0" y="1616.0" type="line"/>
      <point x="-248.0" y="1616.0" type="line"/>
    </contour>
  </outline>
</glyph>
<glyph name="Iinvertedbreve" format="2">
  <advance width="568.0"/>
  <unicode hex="020A"/>
  <anchor x="284.0" y="1520.0" name="_top"/>
  <anchor x="284.0" y="0.0" name="bottom"/>
  <anchor x="480.0" y="0.0" name="ogonek"/>
  <anchor x="284.0" y="1520.0" name="top"/>
  <outline>
    <contour>
      <point x="88.0" y="0.0" type="line"/>
      <point x="480.0" y="0.0" type="line"/>
      <point x="480.0" y="1480.0" type="line"/>
      <point x="88.0" y="1480.0" type="line"/>
    </contour>
    <contour>
      <point x="-82.0" y="1586.0" type="curve"/>
      <point x="150.0" y="1586.0" type="line"/>
      <point x="162.0" y="1680.0"/>
      <point x="206.0" y="1716.0"/>
      <point x="284.0" y="1716.0" type="curve" smooth="yes"/>
      <point x="362.0" y="1716.0"/>
      <point x="406.0" y="1680.0"/>
      <point x="418.0" y="1586.0" type="curve"/>
      <point x="650.0" y="1586.0" type="line"/>
      <point x="630.0" y="1790.0"/>
      <point x="498.0" y="1902.0"/>
      <point x="284.0" y="1902.0" type="curve" smooth="yes"/>
      <point x="70.0" y="1902.0"/>
      <point x="-62.0" y="1790.0"/>
    </contour>
  </outline>
</glyph>
<glyph name="iinvertedbreve" format="2">
  <advance width="544.0"/>
  <unicode hex="020B"/>
  <anchor x="272.0" y="1200.0" name="_top"/>
  <anchor x="272.0" y="0.0" name="bottom"/>
  <anchor x="466.0" y="0.0" name="ogonek"/>
  <anchor x="272.0" y="1200.0" name="top"/>
  <outline>
    <contour>
      <point x="78.0" y="0.0" type="line"/>
      <point x="466.0" y="0.0" type="line"/>
      <point x="466.0" y="1100.0" type="line"/>
      <point x="78.0" y="1100.0" type="line"/>
    </contour>
    <contour>
      <point x="-82.0" y="1248.0" type="curve"/>
      <point x="150.0" y="1248.0" type="line"/>
      <point x="156.0" y="1376.0"/>
      <point x="194.0" y="1422.0"/>
      <point x="272.0" y="1422.0" type="curve" smooth="yes"/>
      <point x="340.0" y="1422.0"/>
      <point x="388.0" y="1376.0"/>
      <point x="394.0" y="1248.0" type="curve"/>
      <point x="626.0" y="1248.0" type="line"/>
      <point x="612.0" y="1506.0"/>
      <point x="468.0" y="1612.0"/>
      <point x="272.0" y="1612.0" type="curve" smooth="yes"/>
      <point x="66.0" y="1612.0"/>
      <point x="-68.0" y="1506.0"/>
    </contour>
  </outline>
</glyph>
<glyph name="Oinvertedbreve" format="2">
  <advance width="1396.0"/>
  <unicode hex="020E"/>
  <anchor x="698.0" y="1520.0" name="_top"/>
  <anchor x="698.0" y="0.0" name="bottom"/>
  <anchor x="698.0" y="740.0" name="center"/>
  <anchor x="890.0" y="0.0" name="ogonek"/>
  <anchor x="698.0" y="1520.0" name="top"/>
  <anchor x="42.0" y="1480.0" name="topleft"/>
  <anchor x="882.0" y="1480.0" name="topright"/>
  <outline>
    <contour>
      <point x="698.0" y="-20.0" type="curve" smooth="yes"/>
      <point x="1078.0" y="-20.0"/>
      <point x="1342.0" y="204.0"/>
      <point x="1342.0" y="740.0" type="curve" smooth="yes"/>
      <point x="1342.0" y="1276.0"/>
      <point x="1078.0" y="1500.0"/>
      <point x="698.0" y="1500.0" type="curve" smooth="yes"/>
      <point x="318.0" y="1500.0"/>
      <point x="54.0" y="1276.0"/>
      <point x="54.0" y="740.0" type="curve" smooth="yes"/>
      <point x="54.0" y="204.0"/>
      <point x="318.0" y="-20.0"/>
    </contour>
    <contour>
      <point x="698.0" y="304.0" type="curve" smooth="yes"/>
      <point x="544.0" y="304.0"/>
      <point x="458.0" y="414.0"/>
      <point x="458.0" y="748.0" type="curve" smooth="yes"/>
      <point x="458.0" y="1066.0"/>
      <point x="544.0" y="1176.0"/>
      <point x="698.0" y="1176.0" type="curve" smooth="yes"/>
      <point x="852.0" y="1176.0"/>
      <point x="938.0" y="1066.0"/>
      <point x="938.0" y="732.0" type="curve" smooth="yes"/>
      <point x="938.0" y="414.0"/>
      <point x="852.0" y="304.0"/>
    </contour>
    <contour>
      <point x="332.0" y="1586.0" type="curve"/>
      <point x="564.0" y="1586.0" type="line"/>
      <point x="576.0" y="1680.0"/>
      <point x="620.0" y="1716.0"/>
      <point x="698.0" y="1716.0" type="curve" smooth="yes"/>
      <point x="776.0" y="1716.0"/>
      <point x="820.0" y="1680.0"/>
      <point x="832.0" y="1586.0" type="curve"/>
      <point x="1064.0" y="1586.0" type="line"/>
      <point x="1044.0" y="1790.0"/>
      <point x="912.0" y="1902.0"/>
      <point x="698.0" y="1902.0" type="curve" smooth="yes"/>
      <point x="484.0" y="1902.0"/>
      <point x="352.0" y="1790.0"/>
    </contour>
  </outline>
</glyph>
<glyph name="Rinvertedbreve" format="2">
  <advance width="1272.0"/>
  <unicode hex="0212"/>
  <anchor x="622.0" y="1520.0" name="_top"/>
  <anchor x="682.0" y="0.0" name="bottom"/>
  <anchor x="622.0" y="1520.0" name="top"/>
  <outline>
    <contour>
      <point x="88.0" y="0.0" type="line"/>
      <point x="474.0" y="0.0" type="line"/>
      <point x="474.0" y="504.0" type="line"/>
      <point x="510.0" y="504.0"/>
      <point x="538.0" y="502.0"/>
      <point x="584.0" y="502.0" type="curve" smooth="yes"/>
      <point x="930.0" y="502.0"/>
      <point x="1168.0" y="674.0"/>
      <point x="1168.0" y="1000.0" type="curve" smooth="yes"/>
      <point x="1168.0" y="1336.0"/>
      <point x="958.0" y="1500.0"/>
      <point x="536.0" y="1500.0" type="curve" smooth="yes"/>
      <point x="370.0" y="1500.0"/>
      <point x="224.0" y="1480.0"/>
      <point x="88.0" y="1450.0" type="curve"/>
    </contour>
    <contour>
      <point x="858.0" y="0.0" type="line"/>
      <point x="1274.0" y="0.0" type="line"/>
      <point x="864.0" y="672.0" type="line"/>
      <point x="460.0" y="672.0" type="line"/>
    </contour>
    <contour>
      <point x="584.0" y="808.0" type="curve" smooth="yes"/>
      <point x="538.0" y="808.0"/>
      <point x="510.0" y="810.0"/>
      <point x="474.0" y="814.0" type="curve"/>
      <point x="474.0" y="1188.0" type="line"/>
      <point x="506.0" y="1194.0"/>
      <point x="540.0" y="1198.0"/>
      <point x="592.0" y="1198.0" type="curve" smooth="yes"/>
      <point x="720.0" y="1198.0"/>
      <point x="798.0" y="1136.0"/>
      <point x="798.0" y="1000.0" type="curve" smooth="yes"/>
      <point x="798.0" y="858.0"/>
      <point x="720.0" y="808.0"/>
    </contour>
    <contour>
      <point x="256.0" y="1586.0" type="curve"/>
      <point x="488.0" y="1586.0" type="line"/>
      <point x="500.0" y="1680.0"/>
      <point x="544.0" y="1716.0"/>
      <point x="622.0" y="1716.0" type="curve" smooth="yes"/>
      <point x="700.0" y="1716.0"/>
      <point x="744.0" y="1680.0"/>
      <point x="756.0" y="1586.0" type="curve"/>
      <point x="988.0" y="1586.0" type="line"/>
      <point x="968.0" y="1790.0"/>
      <point x="836.0" y="1902.0"/>
      <point x="622.0" y="1902.0" type="curve" smooth="yes"/>
      <point x="408.0" y="1902.0"/>
      <point x="276.0" y="1790.0"/>
    </contour>
  </outline>
</glyph>
<glyph name="scommaaccent" format="2">
  <advance width="852.0"/>
  <unicode hex="0219"/>
  <anchor x="420.0" y="0.0" name="_bottom"/>
  <anchor x="420.0" y="0.0" name="bottom"/>
  <anchor x="420.0" y="1200.0" name="top"/>
  <outline>
    <contour>
      <point x="372.0" y="-22.0" type="curve" smooth="yes"/>
      <point x="654.0" y="-22.0"/>
      <point x="834.0" y="120.0"/>
      <point x="834.0" y="350.0" type="curve" smooth="yes"/>
      <point x="834.0" y="542.0"/>
      <point x="740.0" y="632.0"/>
      <point x="582.0" y="670.0" type="curve" smooth="yes"/>
      <point x="422.0" y="708.0" type="line" smooth="yes"/>
      <point x="390.0" y="716.0"/>
      <point x="374.0" y="726.0"/>
      <point x="374.0" y="750.0" type="curve" smooth="yes"/>
      <point x="374.0" y="782.0"/>
      <point x="404.0" y="816.0"/>
      <point x="536.0" y="816.0" type="curve" smooth="yes"/>
      <point x="624.0" y="816.0"/>
      <point x="698.0" y="806.0"/>
      <point x="772.0" y="786.0" type="curve"/>
      <point x="772.0" y="1088.0" type="line"/>
      <point x="698.0" y="1106.0"/>
      <point x="612.0" y="1118.0"/>
      <point x="514.0" y="1118.0" type="curve" smooth="yes"/>
      <point x="192.0" y="1118.0"/>
      <point x="26.0" y="974.0"/>
      <point x="26.0" y="752.0" type="curve" smooth="yes"/>
      <point x="26.0" y="562.0"/>
      <point x="124.0" y="462.0"/>
      <point x="280.0" y="426.0" type="curve" smooth="yes"/>
      <point x="440.0" y="388.0" type="line" smooth="yes"/>
      <point x="472.0" y="380.0"/>
      <point x="486.0" y="368.0"/>
      <point x="486.0" y="342.0" type="curve" smooth="yes"/>
      <point x="486.0" y="306.0"/>
      <point x="460.0" y="280.0"/>
      <point x="364.0" y="280.0" type="curve" smooth="yes"/>
      <point x="254.0" y="280.0"/>
      <point x="150.0" y="298.0"/>
      <point x="64.0" y="328.0" type="curve"/>
      <point x="64.0" y="26.0" type="line"/>
      <point x="160.0" y="-8.0"/>
      <point x="262.0" y="-22.0"/>
    </contour>
    <contour>
      <point x="296.0" y="-516.0" type="curve"/>
      <point x="540.0" y="-516.0" type="line"/>
      <point x="588.0" y="-456.0"/>
      <point x="628.0" y="-358.0"/>
      <point x="628.0" y="-278.0" type="curve" smooth="yes"/>
      <point x="628.0" y="-168.0"/>
      <point x="566.0" y="-104.0"/>
      <point x="420.0" y="-104.0" type="curve" smooth="yes"/>
      <point x="274.0" y="-104.0"/>
      <point x="212.0" y="-154.0"/>
      <point x="212.0" y="-236.0" type="curve" smooth="yes"/>
      <point x="212.0" y="-318.0"/>
      <point x="274.0" y="-370.0"/>
      <point x="420.0" y="-370.0" type="curve" smooth="yes"/>
      <point x="448.0" y="-370.0" type="line"/>
      <point x="366.0" y="-292.0" type="line"/>
      <point x="366.0" y="-366.0"/>
      <point x="348.0" y="-420.0"/>
    </contour>
  </outline>
</glyph>
<glyph name="Tcommaaccent" format="2">
  <advance width="1186.0"/>
  <unicode hex="021A"/>
  <anchor x="594.0" y="0.0" name="_bottom"/>
  <anchor x="594.0" y="0.0" name="bottom"/>
  <anchor x="594.0" y="700.0" name="center"/>
  <anchor x="594.0" y="1520.0" name="top"/>
  <outline>
    <contour>
      <point x="396.0" y="0.0" type="line"/>
      <point x="790.0" y="0.0" type="line"/>
      <point x="790.0" y="1134.0" type="line"/>
      <point x="1182.0" y="1134.0" type="line"/>
      <point x="1182.0" y="1480.0" type="line"/>
      <point x="4.0" y="1480.0" type="line"/>
      <point x="4.0" y="1134.0" type="line"/>
      <point x="396.0" y="1134.0" type="line"/>
    </contour>
    <contour>
      <point x="470.0" y="-516.0" type="curve"/>
      <point x="714.0" y="-516.0" type="line"/>
      <point x="762.0" y="-456.0"/>
      <point x="802.0" y="-358.0"/>
      <point x="802.0" y="-278.0" type="curve" smooth="yes"/>
      <point x="802.0" y="-168.0"/>
      <point x="740.0" y="-104.0"/>
      <point x="594.0" y="-104.0" type="curve" smooth="yes"/>
      <point x="448.0" y="-104.0"/>
      <point x="386.0" y="-154.0"/>
      <point x="386.0" y="-236.0" type="curve" smooth="yes"/>
      <point x="386.0" y="-318.0"/>
      <point x="448.0" y="-370.0"/>
      <point x="594.0" y="-370.0" type="curve" smooth="yes"/>
      <point x="622.0" y="-370.0" type="line"/>
      <point x="540.0" y="-292.0" type="line"/>
      <point x="540.0" y="-366.0"/>
      <point x="522.0" y="-420.0"/>
    </contour>
  </outline>
</glyph>
